<?xml version="1.0" encoding="UTF-8" standalone="no"?>
<svg
   xmlns:dc="http://purl.org/dc/elements/1.1/"
   xmlns:cc="http://creativecommons.org/ns#"
   xmlns:rdf="http://www.w3.org/1999/02/22-rdf-syntax-ns#"
   xmlns:svg="http://www.w3.org/2000/svg"
   xmlns="http://www.w3.org/2000/svg"
   viewBox="0 0 1586.6667 1121.3333"
   height="1121.3333"
   width="1586.6667"
   xml:space="preserve"
   id="svg2"
   version="1.1"><metadata
     id="metadata8"><rdf:RDF><cc:Work
         rdf:about=""><dc:format>image/svg+xml</dc:format><dc:type
           rdf:resource="http://purl.org/dc/dcmitype/StillImage" /></cc:Work></rdf:RDF></metadata><defs
     id="defs6"><clipPath
       id="clipPath36"
       clipPathUnits="userSpaceOnUse"><path
         id="path34"
         d="M 159.67,86.11 H 1176.48 V 827.28 H 159.67 Z" /></clipPath></defs><g
     transform="matrix(1.3333333,0,0,-1.3333333,0,1121.3333)"
     id="g10"><g
       id="g12" /><g
       id="g14" /><g
       id="g16" /><g
       id="g18" /><g
       id="g20"><path
         id="path22"
         style="fill:#ffffff;fill-opacity:1;fill-rule:nonzero;stroke:#ffffff;stroke-width:1.05999994;stroke-linecap:round;stroke-linejoin:round;stroke-miterlimit:10;stroke-dasharray:none;stroke-opacity:1"
         d="M 0,0 H 1190.88 V 841.68 H 0 Z" /></g><g
       id="g24" /><g
       id="g26" /><g
       id="g28" /><g
       id="g30"><g
         clip-path="url(#clipPath36)"
         id="g32"><path
           id="path38"
           style="fill:none;stroke:#000000;stroke-width:1.05999994;stroke-linecap:round;stroke-linejoin:round;stroke-miterlimit:10;stroke-dasharray:none;stroke-opacity:1"
           d="M 159.67,86.11 H 1176.48 V 827.28 H 159.67 Z" /><path
           id="path40"
           style="fill:none;stroke:#f2f2f2;stroke-width:0.52999997;stroke-linecap:butt;stroke-linejoin:round;stroke-miterlimit:10;stroke-dasharray:none;stroke-opacity:1"
           d="M 358.17,86.11 V 827.28" /><path
           id="path42"
           style="fill:none;stroke:#f2f2f2;stroke-width:0.52999997;stroke-linecap:butt;stroke-linejoin:round;stroke-miterlimit:10;stroke-dasharray:none;stroke-opacity:1"
           d="M 662.74,86.11 V 827.28" /><path
           id="path44"
           style="fill:none;stroke:#f2f2f2;stroke-width:0.52999997;stroke-linecap:butt;stroke-linejoin:round;stroke-miterlimit:10;stroke-dasharray:none;stroke-opacity:1"
           d="M 967.32,86.11 V 827.28" /><path
           id="path46"
           style="fill:none;stroke:#ffffff;stroke-width:1.05999994;stroke-linecap:butt;stroke-linejoin:round;stroke-miterlimit:10;stroke-dasharray:none;stroke-opacity:1"
           d="M 159.67,159.06 H 1176.48" /><path
           id="path48"
           style="fill:none;stroke:#ffffff;stroke-width:1.05999994;stroke-linecap:butt;stroke-linejoin:round;stroke-miterlimit:10;stroke-dasharray:none;stroke-opacity:1"
           d="M 159.67,232.01 H 1176.48" /><path
           id="path50"
           style="fill:none;stroke:#ffffff;stroke-width:1.05999994;stroke-linecap:butt;stroke-linejoin:round;stroke-miterlimit:10;stroke-dasharray:none;stroke-opacity:1"
           d="M 159.67,304.96 H 1176.48" /><path
           id="path52"
           style="fill:none;stroke:#ffffff;stroke-width:1.05999994;stroke-linecap:butt;stroke-linejoin:round;stroke-miterlimit:10;stroke-dasharray:none;stroke-opacity:1"
           d="M 159.67,377.91 H 1176.48" /><path
           id="path54"
           style="fill:none;stroke:#ffffff;stroke-width:1.05999994;stroke-linecap:butt;stroke-linejoin:round;stroke-miterlimit:10;stroke-dasharray:none;stroke-opacity:1"
           d="M 159.67,450.86 H 1176.48" /><path
           id="path56"
           style="fill:none;stroke:#ffffff;stroke-width:1.05999994;stroke-linecap:butt;stroke-linejoin:round;stroke-miterlimit:10;stroke-dasharray:none;stroke-opacity:1"
           d="M 159.67,523.81 H 1176.48" /><path
           id="path58"
           style="fill:none;stroke:#ffffff;stroke-width:1.05999994;stroke-linecap:butt;stroke-linejoin:round;stroke-miterlimit:10;stroke-dasharray:none;stroke-opacity:1"
           d="M 159.67,596.76 H 1176.48" /><path
           id="path60"
           style="fill:none;stroke:#ffffff;stroke-width:1.05999994;stroke-linecap:butt;stroke-linejoin:round;stroke-miterlimit:10;stroke-dasharray:none;stroke-opacity:1"
           d="M 159.67,669.71 H 1176.48" /><path
           id="path62"
           style="fill:none;stroke:#ffffff;stroke-width:1.05999994;stroke-linecap:butt;stroke-linejoin:round;stroke-miterlimit:10;stroke-dasharray:none;stroke-opacity:1"
           d="M 159.67,742.66 H 1176.48" /><path
           id="path64"
           style="fill:none;stroke:#ffffff;stroke-width:1.05999994;stroke-linecap:butt;stroke-linejoin:round;stroke-miterlimit:10;stroke-dasharray:none;stroke-opacity:1"
           d="M 159.67,815.61 H 1176.48" /><path
           id="path66"
           style="fill:none;stroke:#ffffff;stroke-width:1.05999994;stroke-linecap:butt;stroke-linejoin:round;stroke-miterlimit:10;stroke-dasharray:none;stroke-opacity:1"
           d="M 205.89,86.11 V 827.28" /><path
           id="path68"
           style="fill:none;stroke:#ffffff;stroke-width:1.05999994;stroke-linecap:butt;stroke-linejoin:round;stroke-miterlimit:10;stroke-dasharray:none;stroke-opacity:1"
           d="M 510.46,86.11 V 827.28" /><path
           id="path70"
           style="fill:none;stroke:#ffffff;stroke-width:1.05999994;stroke-linecap:butt;stroke-linejoin:round;stroke-miterlimit:10;stroke-dasharray:none;stroke-opacity:1"
           d="M 815.03,86.11 V 827.28" /><path
           id="path72"
           style="fill:none;stroke:#ffffff;stroke-width:1.05999994;stroke-linecap:butt;stroke-linejoin:round;stroke-miterlimit:10;stroke-dasharray:none;stroke-opacity:1"
           d="M 1119.6,86.11 V 827.28" /><path
           id="path74"
           style="fill:none;stroke:#f8766d;stroke-width:4.25;stroke-linecap:butt;stroke-linejoin:round;stroke-miterlimit:1;stroke-dasharray:none;stroke-opacity:1"
           d="m 205.89,802.62 0.3,-12.6 0.3,-12.3 0.31,-12 0.3,-11.7 0.31,-11.28 0.3,-11.01 0.31,-10.76 0.3,-10.47 0.31,-10.27 0.3,-9.96 0.31,-9.73 0.3,-9.49 0.3,-9.31 0.31,-9.02 0.3,-8.84 0.31,-8.58 0.3,-8.43 0.31,-8.26 0.3,-8.06 0.31,-7.87 0.3,-7.7 0.31,-7.53 0.3,-7.33 0.31,-7.17 0.3,-7.04 0.3,-6.87 0.31,-6.73 0.3,-6.58 0.31,-6.47 0.3,-6.34 0.31,-6.21 0.3,-6.08 0.31,-5.97 0.3,-5.84 0.31,-5.74 0.3,-5.58 0.3,-5.46 0.31,-5.37 0.3,-5.24 0.31,-5.12 0.3,-5.09 0.31,-4.98 0.3,-4.88 0.31,-4.79 0.3,-4.69 0.31,-4.65 0.3,-4.5 0.3,-4.44 0.31,-4.34 0.3,-4.29 0.31,-4.2 0.3,-4.1 0.31,-4.04 0.3,-3.97 0.31,-3.87 0.3,-3.82 0.31,-3.75 0.3,-3.69 0.31,-3.63 0.3,-3.58 0.3,-3.5 0.31,-3.43 0.3,-3.39 0.31,-3.35 0.3,-3.28 0.31,-3.22 0.3,-3.2 0.31,-3.14 0.3,-3.09 0.31,-3.02 0.3,-2.97 0.3,-2.93 0.31,-2.85 0.3,-2.82 0.31,-2.8 0.3,-2.76 0.31,-2.69 0.3,-2.64 0.31,-2.63 0.3,-2.56 0.31,-2.52 0.3,-2.46 0.3,-2.44 0.31,-2.39 0.3,-2.39 0.31,-2.35 0.3,-2.27 0.31,-2.27 0.3,-2.27 0.31,-2.21 0.3,-2.16 0.31,-2.12 0.3,-2.12 0.31,-2.09 0.3,-2.06 0.3,-2.03 0.31,-1.99 0.3,-1.97 0.31,-1.93 0.3,-1.92 0.31,-1.89 0.3,-1.87 0.31,-1.85 0.3,-1.79 0.31,-1.8 0.3,-1.76 0.3,-1.74 0.31,-1.71 0.3,-1.71 0.31,-1.66 0.3,-1.66 0.31,-1.61 0.3,-1.6 0.31,-1.59 0.3,-1.55 0.31,-1.55 0.3,-1.52 0.3,-1.5 0.31,-1.47 0.3,-1.48 0.31,-1.43 0.3,-1.44 0.31,-1.41 0.3,-1.39 0.31,-1.37 0.3,-1.35 0.31,-1.34 0.3,-1.34 0.31,-1.29 0.3,-1.28 0.3,-1.27 0.31,-1.27 0.3,-1.24 0.31,-1.23 0.3,-1.21 0.31,-1.19 0.3,-1.18 0.31,-1.15 0.3,-1.15 0.31,-1.16 0.3,-1.13 0.3,-1.09 0.31,-1.11 0.3,-1.09 0.31,-1.08 0.3,-1.06 0.31,-1.03 0.3,-1.03 0.31,-1.02 0.3,-0.99 0.31,-1 0.3,-0.99 0.3,-0.97 0.31,-0.95 0.3,-0.95 0.31,-0.95 0.3,-0.92 0.31,-0.92 0.3,-0.9 0.31,-0.9 0.3,-0.88 0.31,-0.88 0.3,-0.87 0.31,-0.85 0.3,-0.85 0.3,-0.83 0.31,-0.83 0.3,-0.81 0.31,-0.81 0.3,-0.81 0.31,-0.81 0.3,-0.79 0.31,-0.79 0.3,-0.78 0.31,-0.76 0.3,-0.75 0.3,-0.75 0.31,-0.74 0.3,-0.73 0.31,-0.73 0.3,-0.71 0.31,-0.71 0.3,-0.7 0.31,-0.69 0.3,-0.69 0.31,-0.68 0.3,-0.66 0.3,-0.66 0.31,-0.67 0.3,-0.66 0.31,-0.64 0.3,-0.64 0.31,-0.64 0.3,-0.63 0.31,-0.62 0.3,-0.63 0.31,-0.6 0.3,-0.61 0.31,-0.6 0.3,-0.6 0.3,-0.57 0.31,-0.59 0.3,-0.58 0.31,-0.57 0.3,-0.57 0.31,-0.57 0.3,-0.55 0.31,-0.55 0.3,-0.55 0.31,-0.55 0.3,-0.54 0.3,-0.53 0.31,-0.54 0.3,-0.51 0.31,-0.54 0.3,-0.53 0.31,-0.52 0.3,-0.52 0.31,-0.52 0.3,-0.51 0.31,-0.5 0.3,-0.51 0.3,-0.5 0.31,-0.5 0.3,-0.48 0.31,-0.49 0.3,-0.49 0.31,-0.49 0.3,-0.47 0.31,-0.48 0.3,-0.49 0.31,-0.47 0.3,-0.47 0.31,-0.48 0.3,-0.46 0.3,-0.47 0.31,-0.46 0.3,-0.47 0.31,-0.45 0.3,-0.46 0.31,-0.45 0.3,-0.45 0.31,-0.46 0.3,-0.45 0.31,-0.45 0.3,-0.45 0.3,-0.45 0.31,-0.44 0.3,-0.44 0.31,-0.44 0.3,-0.43 0.31,-0.42 0.3,-0.43 0.31,-0.44 0.3,-0.42 0.31,-0.44 0.3,-0.42 0.3,-0.43 0.31,-0.42 0.3,-0.42 0.31,-0.41 0.3,-0.42 0.31,-0.41 0.3,-0.41 0.31,-0.41 0.3,-0.41 0.31,-0.41 0.3,-0.4 0.31,-0.39 0.3,-0.41 0.3,-0.4 0.31,-0.41 0.3,-0.39 0.31,-0.38 0.3,-0.4 0.31,-0.39 0.3,-0.39 0.31,-0.38 0.3,-0.38 0.31,-0.39 0.3,-0.38 0.3,-0.38 0.31,-0.37 0.3,-0.37 0.31,-0.38 0.3,-0.37 0.31,-0.37 0.3,-0.37 0.31,-0.37 0.3,-0.36 0.31,-0.37 0.3,-0.36 0.3,-0.36 0.31,-0.36 0.3,-0.35 0.31,-0.35 0.3,-0.36 0.31,-0.35 0.3,-0.34 0.31,-0.35 0.3,-0.35 0.31,-0.33 0.3,-0.34 0.31,-0.33 0.3,-0.34 0.3,-0.34 0.31,-0.34 0.3,-0.33 0.31,-0.33 0.3,-0.33 0.31,-0.32 0.3,-0.32 0.31,-0.32 0.3,-0.32 0.31,-0.31 0.3,-0.32 0.3,-0.31 0.31,-0.31 0.3,-0.32 0.31,-0.3 0.3,-0.31 0.31,-0.3 0.3,-0.32 0.31,-0.31 0.3,-0.3 0.31,-0.3 0.3,-0.3 0.3,-0.29 0.31,-0.3 0.3,-0.29 0.31,-0.3 0.3,-0.3 0.31,-0.29 0.3,-0.29 0.31,-0.28 0.3,-0.29 0.31,-0.28 0.3,-0.28 0.31,-0.28 0.3,-0.27 0.3,-0.28 0.31,-0.28 0.3,-0.28 0.31,-0.27 0.3,-0.27 0.31,-0.26 0.3,-0.27 0.31,-0.27 0.3,-0.28 0.31,-0.26 0.3,-0.27 0.3,-0.26 0.31,-0.25 0.3,-0.25 0.31,-0.25 0.3,-0.25 0.31,-0.25 0.3,-0.25 0.31,-0.25 0.3,-0.24 0.31,-0.25 0.3,-0.24 0.31,-0.24 0.3,-0.23 0.3,-0.24 0.31,-0.24 0.3,-0.24 0.31,-0.23 0.3,-0.23 0.31,-0.24 0.3,-0.23 0.31,-0.23 0.3,-0.23 0.31,-0.23 0.3,-0.22 0.3,-0.23 0.31,-0.22 0.3,-0.22 0.31,-0.22 0.3,-0.21 0.31,-0.22 0.3,-0.22 0.31,-0.21 0.3,-0.21 0.31,-0.22 0.3,-0.21 0.3,-0.22 0.31,-0.2 0.3,-0.21 0.31,-0.21 0.3,-0.2 0.31,-0.21 0.3,-0.19 0.31,-0.2 0.3,-0.2 0.31,-0.2 0.3,-0.2 0.31,-0.19 0.3,-0.2 0.3,-0.19 0.31,-0.18 0.3,-0.2 0.31,-0.19 0.3,-0.19 0.31,-0.19 0.3,-0.18 0.31,-0.18 0.3,-0.18 0.31,-0.18 0.3,-0.19 0.3,-0.18 0.31,-0.17 0.3,-0.17 0.31,-0.17 0.3,-0.17 0.31,-0.18 0.3,-0.16 0.31,-0.16 0.3,-0.17 0.31,-0.16 0.3,-0.17 0.3,-0.17 0.31,-0.16 0.3,-0.16 0.31,-0.16 0.3,-0.15 0.31,-0.16 0.3,-0.16 0.31,-0.15 0.3,-0.15 0.31,-0.15 0.3,-0.15 0.31,-0.15 0.3,-0.15 0.3,-0.14 0.31,-0.15 0.3,-0.14 0.31,-0.14 0.3,-0.14 0.31,-0.14 0.3,-0.14 0.31,-0.14 0.3,-0.13 0.31,-0.14 0.3,-0.13 0.3,-0.15 0.31,-0.13 0.3,-0.13 0.31,-0.14 0.3,-0.14 0.31,-0.12 0.3,-0.13 0.31,-0.13 0.3,-0.12 0.31,-0.13 0.3,-0.13 0.3,-0.13 0.31,-0.12 0.3,-0.13 0.31,-0.12 0.3,-0.12 0.31,-0.13 0.3,-0.12 0.31,-0.12 0.3,-0.12 0.31,-0.12 0.3,-0.12 0.31,-0.11 0.3,-0.12 0.3,-0.11 0.31,-0.11 0.3,-0.11 0.31,-0.11 0.3,-0.11 0.31,-0.1 0.3,-0.11 0.31,-0.11 0.3,-0.1 0.31,-0.1 0.3,-0.1 0.3,-0.11 0.31,-0.1 0.3,-0.09 0.31,-0.1 0.3,-0.1 0.31,-0.1 0.3,-0.1 0.31,-0.1 0.3,-0.09 0.31,-0.09 0.3,-0.1 0.3,-0.09 0.31,-0.1 0.3,-0.09 0.31,-0.08 0.3,-0.1 0.31,-0.09 0.3,-0.08 0.31,-0.09 0.3,-0.09 0.31,-0.08 0.3,-0.09 0.31,-0.08 0.3,-0.09 0.3,-0.08 0.31,-0.09 0.3,-0.08 0.31,-0.08 0.3,-0.09 0.31,-0.08 0.3,-0.08 0.31,-0.07 0.3,-0.08 0.31,-0.07 0.3,-0.08 0.3,-0.08 0.31,-0.07 0.3,-0.08 0.31,-0.07 0.3,-0.08 0.31,-0.07 0.3,-0.07 0.31,-0.08 0.3,-0.07 0.31,-0.07 0.3,-0.07 0.3,-0.06 0.31,-0.07 0.3,-0.07 0.31,-0.06 0.3,-0.07 0.31,-0.06 0.3,-0.06 0.31,-0.06 0.3,-0.07 0.31,-0.06 0.3,-0.06 0.31,-0.06 0.3,-0.07 0.3,-0.06 0.31,-0.06 0.3,-0.06 0.31,-0.05 0.3,-0.06 0.31,-0.06 0.3,-0.06 0.31,-0.05 0.3,-0.06 0.31,-0.05 0.3,-0.06 0.3,-0.05 0.31,-0.06 0.3,-0.05 0.31,-0.05 0.3,-0.05 0.31,-0.05 0.3,-0.05 0.31,-0.05 0.3,-0.05 0.31,-0.05 0.3,-0.04 0.3,-0.05 0.31,-0.05 0.3,-0.04 0.31,-0.05 0.3,-0.04 0.31,-0.05 0.3,-0.05 0.31,-0.04 0.3,-0.05 0.31,-0.04 0.3,-0.04 0.31,-0.05 0.3,-0.04 0.3,-0.04 0.31,-0.04 0.3,-0.04 0.31,-0.04 0.3,-0.04 0.31,-0.05 0.3,-0.04 0.31,-0.04 0.3,-0.03 0.31,-0.04 0.3,-0.04 0.3,-0.04 0.31,-0.04 0.3,-0.04 0.31,-0.03 0.3,-0.04 0.31,-0.03 0.3,-0.04 0.31,-0.04 0.3,-0.03 0.31,-0.04 0.3,-0.03 0.3,-0.04 0.31,-0.03 0.3,-0.04 0.31,-0.03 0.3,-0.03 0.31,-0.03 0.3,-0.03 0.31,-0.03 0.3,-0.03 0.31,-0.03 0.3,-0.03 0.31,-0.03 0.3,-0.03 0.3,-0.03 0.31,-0.03 0.3,-0.03 0.31,-0.03 0.3,-0.02 0.31,-0.03 0.3,-0.03 0.31,-0.03 0.3,-0.03 0.31,-0.03 0.3,-0.02 0.3,-0.03 0.31,-0.02 0.3,-0.03 0.31,-0.02 0.3,-0.03 0.31,-0.03 0.3,-0.02 0.31,-0.02 0.3,-0.03 0.31,-0.02 0.3,-0.02 0.3,-0.03 0.31,-0.02 0.3,-0.02 0.31,-0.02 0.3,-0.02 0.31,-0.03 0.3,-0.02 0.31,-0.02 0.3,-0.02 0.31,-0.02 0.3,-0.02 0.31,-0.02 0.3,-0.02 0.3,-0.02 0.31,-0.02 0.3,-0.02 0.31,-0.02 0.3,-0.01 0.31,-0.02 0.3,-0.02 0.31,-0.02 0.3,-0.01 0.31,-0.02 0.3,-0.02 0.3,-0.02 0.31,-0.02 0.3,-0.01 0.31,-0.02 0.3,-0.01 0.31,-0.02 0.3,-0.02 0.31,-0.01 0.3,-0.02 0.31,-0.02 0.3,-0.01 0.3,-0.02 0.31,-0.01 0.3,-0.01 0.31,-0.02 0.3,-0.01 0.31,-0.02 0.3,-0.01 0.31,-0.01 0.3,-0.02 0.31,-0.01 0.3,-0.01 0.31,-0.02 0.3,-0.01 0.3,-0.01 0.31,-0.02 0.3,-0.01 0.31,-0.01 0.3,-0.01 0.31,-0.02 0.3,-0.01 0.31,-0.01 0.3,-0.01 0.31,-0.02 0.3,-0.01 0.3,-0.01 0.31,-0.01 0.3,-0.01 0.31,-0.01 0.3,-0.01 0.31,-0.01 0.3,-0.01 0.31,-0.01 0.3,-0.01 0.31,-0.01 0.3,-0.01 0.3,-0.01 0.31,-0.01 0.3,-0.01 0.31,-0.01 h 0.3 l 0.31,-0.01 0.3,-0.01 0.31,-0.01 0.3,-0.01 0.31,-0.01 0.3,-0.01 0.31,-0.01 h 0.3 l 0.3,-0.01 0.31,-0.01 0.3,-0.01 h 0.31 l 0.3,-0.01 0.31,-0.01 0.3,-0.01 0.31,-0.01 h 0.3 l 0.31,-0.01 0.3,-0.01 h 0.3 l 0.31,-0.01 0.3,-0.01 h 0.31 l 0.3,-0.01 0.31,-0.01 h 0.3 l 0.31,-0.01 h 0.3 l 0.31,-0.01 0.3,-0.01 h 0.3 l 0.31,-0.01 0.3,-0.01 h 0.31 l 0.3,-0.01 h 0.31 l 0.3,-0.01 h 0.31 l 0.3,-0.01 0.31,-0.01 h 0.3 l 0.31,-0.01 h 0.3 l 0.3,-0.01 h 0.31 l 0.3,-0.01 h 0.31 l 0.3,-0.01 h 0.31 l 0.3,-0.01 h 0.31 l 0.3,-0.01 h 0.31 0.3 l 0.3,-0.01 h 0.31 l 0.3,-0.01 h 0.31 0.3 l 0.31,-0.01 h 0.3 l 0.31,-0.01 h 0.3 0.31 l 0.3,-0.01 h 0.3 0.31 l 0.3,-0.01 h 0.31 l 0.3,-0.01 h 0.31 0.3 0.31 l 0.3,-0.01 h 0.31 0.3 l 0.31,-0.01 h 0.3 0.3 l 0.31,-0.01 h 0.3 0.31 l 0.3,-0.01 h 0.31 0.3 l 0.31,-0.01 h 0.3 0.31 0.3 l 0.3,-0.01 h 0.31 0.3 0.31 l 0.3,-0.01 h 0.31 0.3 l 0.31,-0.01 h 0.3 0.31 0.3 0.3 l 0.31,-0.01 h 0.3 0.31 0.3 l 0.31,-0.01 h 0.3 0.31 0.3 0.31 l 0.3,-0.01 h 0.31 0.3 0.3 l 0.31,-0.01 h 0.3 0.31 0.3 0.31 0.3 l 0.31,-0.01 h 0.3 0.31 0.3 0.3 0.31 l 0.3,-0.01 h 0.31 0.3 0.31 0.3 0.31 l 0.3,-0.01 h 0.31 0.3 0.3 0.31 0.3 0.31 l 0.3,-0.01 h 0.31 0.3 0.31 0.3 0.31 0.3 l 0.31,-0.01 h 0.3 0.3 0.31 0.3 0.31 0.3 0.31 0.3 l 0.31,-0.01 h 0.3 0.31 0.3 0.3 0.31 0.3 0.31 0.3 0.31 l 0.3,-0.01 h 0.31 0.3 0.31 0.3 0.3 0.31 0.3 0.31 l 0.3,-0.01 h 0.31 0.3 0.31 0.3 0.31 0.3 0.31 0.3 0.3 0.31 0.3 0.31 0.3 l 0.31,-0.01 h 0.3 0.31 0.3 0.31 0.3 0.3 0.31 0.3 0.31 0.3 0.31 l 0.3,-0.01 h 0.31 0.3 0.31 0.3 0.31 0.3 0.3 0.31 0.3 0.31 0.3 0.31 0.3 0.31 0.3 0.31 0.3 0.3 l 0.31,-0.01 h 0.3 0.31 0.3 0.31 0.3 0.31 0.3 0.31 0.3 0.3 0.31 0.3 0.31 0.3 0.31 0.3 0.31 0.3 0.31 0.3 0.31 0.3 0.3 0.31 0.3 0.31 0.3 0.31 l 0.3,-0.01 h 0.31 0.3 0.31 0.3 0.3 0.31 0.3 0.31 0.3 0.31 0.3 0.31 0.3 0.31 0.3 0.3 0.31 0.3 0.31 0.3 0.31 0.3 0.31 0.3 0.31 0.3 0.31 0.6 0.31 l 0.3,-0.01 h 0.31 0.3 0.31 0.3 0.31 0.3 0.31 0.3 0.3 0.31 0.3 0.61 0.31 0.61 0.3 0.31 0.3 0.61 0.3 0.31 0.3 0.31 0.3 0.31 0.3 0.31 0.3 0.31 0.3 0.3 0.31 0.3 0.31 0.3 0.61 0.92 0.6 0.61 0.61 0.61 0.61 0.31 0.6 0.31 0.3 0.31 0.3 0.31 0.3 0.31 0.3 0.31 0.3 0.91 0.31 1.22 0.3 0.31 l 0.3,-0.01 h 0.31 0.91 0.61 0.3 0.31 0.3 0.31 0.3 0.61 0.91 0.31 0.61 0.3 0.92 0.3 0.91 0.61 0.92 0.61 1.21 0.31 0.3 0.61 2.13 0.31 0.61 0.3 0.31 1.22 0.3 0.31 0.3 0.3 0.31 0.3 0.61 0.31 0.91 1.22 0.3 0.31 0.3 0.31 1.52 0.91 0.61 0.61 2.13 0.92 0.91 0.31 0.3 0.31 2.43 0.31 0.91 1.83 0.91 1.22 0.91 0.61 1.83 2.44 1.21 1.83 2.13 1.83 0.31 3.65 1.52 1.22 2.13 11.58 1.22 10.05 0.91 0.31 1.21 2.14 0.91 1.22 3.35 0.3 1.83 5.79 8.83 11.88 3.35 9.44 4.26" /><path
           id="path76"
           style="fill:none;stroke:#a3a500;stroke-width:4.25;stroke-linecap:butt;stroke-linejoin:round;stroke-miterlimit:1;stroke-dasharray:8.5, 8.5;stroke-dashoffset:0;stroke-opacity:1"
           d="m 205.89,809.11 0.3,-6.37 0.3,-6.32 0.31,-6.27 0.3,-6.15 0.31,-6.07 0.3,-6.01 0.31,-5.92 0.3,-5.84 0.31,-5.81 0.3,-5.7 0.31,-5.63 0.3,-5.56 0.3,-5.46 0.31,-5.38 0.3,-5.35 0.31,-5.27 0.3,-5.21 0.31,-5.11 0.3,-5.04 0.31,-5 0.3,-4.95 0.31,-4.88 0.3,-4.83 0.31,-4.75 0.3,-4.71 0.3,-4.65 0.31,-4.61 0.3,-4.54 0.31,-4.47 0.3,-4.41 0.31,-4.38 0.3,-4.33 0.31,-4.29 0.3,-4.22 0.31,-4.14 0.3,-4.14 0.3,-4.08 0.31,-4.07 0.3,-3.99 0.31,-3.98 0.3,-3.93 0.31,-3.84 0.3,-3.81 0.31,-3.76 0.3,-3.7 0.31,-3.66 0.3,-3.64 0.3,-3.59 0.31,-3.58 0.3,-3.5 0.31,-3.51 0.3,-3.46 0.31,-3.41 0.3,-3.39 0.31,-3.37 0.3,-3.3 0.31,-3.26 0.3,-3.19 0.31,-3.19 0.3,-3.16 0.3,-3.16 0.31,-3.11 0.3,-3.06 0.31,-3.03 0.3,-3.03 0.31,-2.99 0.3,-2.93 0.31,-2.91 0.3,-2.9 0.31,-2.85 0.3,-2.79 0.3,-2.8 0.31,-2.76 0.3,-2.76 0.31,-2.71 0.3,-2.69 0.31,-2.68 0.3,-2.64 0.31,-2.62 0.3,-2.6 0.31,-2.56 0.3,-2.53 0.3,-2.54 0.31,-2.5 0.3,-2.47 0.31,-2.43 0.3,-2.44 0.31,-2.39 0.3,-2.38 0.31,-2.34 0.3,-2.33 0.31,-2.3 0.3,-2.27 0.31,-2.26 0.3,-2.23 0.3,-2.23 0.31,-2.2 0.3,-2.19 0.31,-2.16 0.3,-2.16 0.31,-2.13 0.3,-2.07 0.31,-2.1 0.3,-2.05 0.31,-2.05 0.3,-2 0.3,-2.01 0.31,-1.97 0.3,-1.98 0.31,-1.96 0.3,-1.94 0.31,-1.92 0.3,-1.91 0.31,-1.9 0.3,-1.88 0.31,-1.86 0.3,-1.85 0.3,-1.83 0.31,-1.79 0.3,-1.8 0.31,-1.78 0.3,-1.76 0.31,-1.75 0.3,-1.73 0.31,-1.71 0.3,-1.69 0.31,-1.69 0.3,-1.68 0.31,-1.66 0.3,-1.65 0.3,-1.64 0.31,-1.62 0.3,-1.6 0.31,-1.61 0.3,-1.56 0.31,-1.57 0.3,-1.55 0.31,-1.54 0.3,-1.54 0.31,-1.49 0.3,-1.51 0.3,-1.47 0.31,-1.48 0.3,-1.48 0.31,-1.44 0.3,-1.44 0.31,-1.43 0.3,-1.41 0.31,-1.41 0.3,-1.41 0.31,-1.38 0.3,-1.38 0.3,-1.35 0.31,-1.35 0.3,-1.35 0.31,-1.33 0.3,-1.32 0.31,-1.31 0.3,-1.31 0.31,-1.29 0.3,-1.28 0.31,-1.27 0.3,-1.27 0.31,-1.25 0.3,-1.25 0.3,-1.25 0.31,-1.24 0.3,-1.22 0.31,-1.2 0.3,-1.21 0.31,-1.2 0.3,-1.17 0.31,-1.16 0.3,-1.16 0.31,-1.17 0.3,-1.13 0.3,-1.13 0.31,-1.13 0.3,-1.12 0.31,-1.1 0.3,-1.09 0.31,-1.08 0.3,-1.09 0.31,-1.07 0.3,-1.08 0.31,-1.08 0.3,-1.06 0.3,-1.05 0.31,-1.03 0.3,-1.03 0.31,-1.02 0.3,-1.02 0.31,-1.01 0.3,-1.01 0.31,-1 0.3,-0.99 0.31,-0.98 0.3,-0.98 0.31,-0.96 0.3,-0.97 0.3,-0.97 0.31,-0.96 0.3,-0.95 0.31,-0.93 0.3,-0.92 0.31,-0.93 0.3,-0.91 0.31,-0.92 0.3,-0.9 0.31,-0.89 0.3,-0.9 0.3,-0.9 0.31,-0.88 0.3,-0.86 0.31,-0.88 0.3,-0.86 0.31,-0.85 0.3,-0.86 0.31,-0.85 0.3,-0.85 0.31,-0.85 0.3,-0.82 0.3,-0.82 0.31,-0.82 0.3,-0.82 0.31,-0.8 0.3,-0.8 0.31,-0.81 0.3,-0.79 0.31,-0.79 0.3,-0.79 0.31,-0.77 0.3,-0.77 0.31,-0.78 0.3,-0.75 0.3,-0.77 0.31,-0.75 0.3,-0.74 0.31,-0.73 0.3,-0.72 0.31,-0.73 0.3,-0.72 0.31,-0.73 0.3,-0.71 0.31,-0.71 0.3,-0.72 0.3,-0.7 0.31,-0.7 0.3,-0.7 0.31,-0.69 0.3,-0.7 0.31,-0.68 0.3,-0.66 0.31,-0.68 0.3,-0.68 0.31,-0.68 0.3,-0.66 0.3,-0.64 0.31,-0.65 0.3,-0.64 0.31,-0.64 0.3,-0.63 0.31,-0.63 0.3,-0.63 0.31,-0.64 0.3,-0.61 0.31,-0.62 0.3,-0.61 0.31,-0.62 0.3,-0.59 0.3,-0.61 0.31,-0.61 0.3,-0.59 0.31,-0.6 0.3,-0.59 0.31,-0.59 0.3,-0.59 0.31,-0.57 0.3,-0.57 0.31,-0.57 0.3,-0.57 0.3,-0.57 0.31,-0.56 0.3,-0.56 0.31,-0.54 0.3,-0.55 0.31,-0.55 0.3,-0.55 0.31,-0.55 0.3,-0.53 0.31,-0.53 0.3,-0.54 0.3,-0.53 0.31,-0.52 0.3,-0.52 0.31,-0.5 0.3,-0.51 0.31,-0.51 0.3,-0.5 0.31,-0.51 0.3,-0.51 0.31,-0.5 0.3,-0.5 0.31,-0.49 0.3,-0.5 0.3,-0.5 0.31,-0.49 0.3,-0.47 0.31,-0.48 0.3,-0.48 0.31,-0.47 0.3,-0.48 0.31,-0.48 0.3,-0.48 0.31,-0.46 0.3,-0.46 0.3,-0.45 0.31,-0.46 0.3,-0.45 0.31,-0.46 0.3,-0.44 0.31,-0.44 0.3,-0.44 0.31,-0.45 0.3,-0.43 0.31,-0.44 0.3,-0.43 0.3,-0.43 0.31,-0.43 0.3,-0.44 0.31,-0.42 0.3,-0.42 0.31,-0.42 0.3,-0.42 0.31,-0.42 0.3,-0.4 0.31,-0.41 0.3,-0.42 0.31,-0.41 0.3,-0.4 0.3,-0.4 0.31,-0.4 0.3,-0.4 0.31,-0.39 0.3,-0.4 0.31,-0.41 0.3,-0.38 0.31,-0.39 0.3,-0.39 0.31,-0.39 0.3,-0.38 0.3,-0.38 0.31,-0.39 0.3,-0.38 0.31,-0.38 0.3,-0.38 0.31,-0.37 0.3,-0.38 0.31,-0.36 0.3,-0.37 0.31,-0.36 0.3,-0.36 0.31,-0.36 0.3,-0.36 0.3,-0.36 0.31,-0.36 0.3,-0.35 0.31,-0.35 0.3,-0.35 0.31,-0.35 0.3,-0.35 0.31,-0.35 0.3,-0.35 0.31,-0.33 0.3,-0.34 0.3,-0.34 0.31,-0.34 0.3,-0.33 0.31,-0.33 0.3,-0.33 0.31,-0.33 0.3,-0.33 0.31,-0.33 0.3,-0.32 0.31,-0.32 0.3,-0.32 0.3,-0.32 0.31,-0.31 0.3,-0.32 0.31,-0.32 0.3,-0.32 0.31,-0.32 0.3,-0.31 0.31,-0.31 0.3,-0.31 0.31,-0.31 0.3,-0.31 0.31,-0.3 0.3,-0.3 0.3,-0.3 0.31,-0.3 0.3,-0.31 0.31,-0.3 0.3,-0.3 0.31,-0.3 0.3,-0.29 0.31,-0.29 0.3,-0.29 0.31,-0.29 0.3,-0.29 0.3,-0.29 0.31,-0.29 0.3,-0.29 0.31,-0.29 0.3,-0.27 0.31,-0.29 0.3,-0.28 0.31,-0.28 0.3,-0.28 0.31,-0.28 0.3,-0.28 0.3,-0.27 0.31,-0.28 0.3,-0.27 0.31,-0.27 0.3,-0.27 0.31,-0.27 0.3,-0.27 0.31,-0.26 0.3,-0.25 0.31,-0.27 0.3,-0.27 0.31,-0.26 0.3,-0.26 0.3,-0.26 0.31,-0.26 0.3,-0.27 0.31,-0.26 0.3,-0.25 0.31,-0.26 0.3,-0.26 0.31,-0.26 0.3,-0.26 0.31,-0.25 0.3,-0.26 0.3,-0.25 0.31,-0.26 0.3,-0.25 0.31,-0.25 0.3,-0.25 0.31,-0.26 0.3,-0.25 0.31,-0.24 0.3,-0.25 0.31,-0.26 0.3,-0.25 0.3,-0.25 0.31,-0.25 0.3,-0.25 0.31,-0.24 0.3,-0.24 0.31,-0.25 0.3,-0.25 0.31,-0.24 0.3,-0.25 0.31,-0.25 0.3,-0.23 0.31,-0.24 0.3,-0.24 0.3,-0.25 0.31,-0.23 0.3,-0.24 0.31,-0.24 0.3,-0.23 0.31,-0.24 0.3,-0.25 0.31,-0.24 0.3,-0.24 0.31,-0.23 0.3,-0.24 0.3,-0.24 0.31,-0.23 0.3,-0.23 0.31,-0.23 0.3,-0.23 0.31,-0.24 0.3,-0.23 0.31,-0.22 0.3,-0.23 0.31,-0.23 0.3,-0.23 0.3,-0.22 0.31,-0.24 0.3,-0.22 0.31,-0.23 0.3,-0.23 0.31,-0.22 0.3,-0.22 0.31,-0.23 0.3,-0.23 0.31,-0.22 0.3,-0.22 0.31,-0.23 0.3,-0.22 0.3,-0.22 0.31,-0.22 0.3,-0.22 0.31,-0.22 0.3,-0.22 0.31,-0.21 0.3,-0.23 0.31,-0.22 0.3,-0.22 0.31,-0.22 0.3,-0.22 0.3,-0.22 0.31,-0.23 0.3,-0.2 0.31,-0.23 0.3,-0.21 0.31,-0.22 0.3,-0.21 0.31,-0.22 0.3,-0.21 0.31,-0.21 0.3,-0.22 0.3,-0.22 0.31,-0.21 0.3,-0.21 0.31,-0.2 0.3,-0.21 0.31,-0.21 0.3,-0.21 0.31,-0.2 0.3,-0.2 0.31,-0.21 0.3,-0.21 0.31,-0.21 0.3,-0.2 0.3,-0.21 0.31,-0.2 0.3,-0.2 0.31,-0.2 0.3,-0.21 0.31,-0.2 0.3,-0.2 0.31,-0.21 0.3,-0.19 0.31,-0.2 0.3,-0.2 0.3,-0.2 0.31,-0.2 0.3,-0.2 0.31,-0.19 0.3,-0.2 0.31,-0.2 0.3,-0.19 0.31,-0.2 0.3,-0.19 0.31,-0.2 0.3,-0.19 0.3,-0.19 0.31,-0.2 0.3,-0.2 0.31,-0.19 0.3,-0.19 0.31,-0.2 0.3,-0.2 0.31,-0.19 0.3,-0.19 0.31,-0.19 0.3,-0.19 0.31,-0.19 0.3,-0.19 0.3,-0.19 0.31,-0.18 0.3,-0.19 0.31,-0.2 0.3,-0.18 0.31,-0.18 0.3,-0.18 0.31,-0.19 0.3,-0.18 0.31,-0.18 0.3,-0.19 0.3,-0.18 0.31,-0.18 0.3,-0.19 0.31,-0.18 0.3,-0.18 0.31,-0.18 0.3,-0.18 0.31,-0.18 0.3,-0.18 0.31,-0.18 0.3,-0.18 0.3,-0.17 0.31,-0.17 0.3,-0.19 0.31,-0.17 0.3,-0.19 0.31,-0.17 0.3,-0.18 0.31,-0.18 0.3,-0.18 0.31,-0.17 0.3,-0.18 0.31,-0.16 0.3,-0.19 0.3,-0.16 0.31,-0.17 0.3,-0.17 0.31,-0.18 0.3,-0.16 0.31,-0.17 0.3,-0.17 0.31,-0.16 0.3,-0.17 0.31,-0.17 0.3,-0.16 0.3,-0.17 0.31,-0.17 0.3,-0.17 0.31,-0.17 0.3,-0.16 0.31,-0.17 0.3,-0.17 0.31,-0.16 0.3,-0.16 0.31,-0.16 0.3,-0.16 0.3,-0.16 0.31,-0.17 0.3,-0.16 0.31,-0.16 0.3,-0.16 0.31,-0.16 0.3,-0.16 0.31,-0.16 0.3,-0.15 0.31,-0.15 0.3,-0.16 0.31,-0.16 0.3,-0.16 0.3,-0.15 0.31,-0.15 0.3,-0.15 0.31,-0.15 0.3,-0.16 0.31,-0.16 0.3,-0.15 0.31,-0.15 0.3,-0.15 0.31,-0.15 0.3,-0.15 0.3,-0.16 0.31,-0.15 0.3,-0.15 0.31,-0.15 0.3,-0.14 0.31,-0.15 0.3,-0.15 0.31,-0.15 0.3,-0.15 0.31,-0.14 0.3,-0.15 0.3,-0.15 0.31,-0.14 0.3,-0.15 0.31,-0.14 0.3,-0.15 0.31,-0.15 0.3,-0.15 0.31,-0.14 0.3,-0.15 0.31,-0.14 0.3,-0.15 0.31,-0.14 0.3,-0.14 0.3,-0.13 0.31,-0.14 0.3,-0.13 0.31,-0.14 0.3,-0.14 0.31,-0.14 0.3,-0.14 0.31,-0.13 0.3,-0.14 0.31,-0.14 0.3,-0.14 0.3,-0.13 0.31,-0.14 0.3,-0.14 0.31,-0.14 0.3,-0.13 0.31,-0.14 0.3,-0.13 0.31,-0.13 0.3,-0.14 0.31,-0.13 0.3,-0.13 0.3,-0.13 0.31,-0.13 0.3,-0.13 0.31,-0.13 0.3,-0.13 0.31,-0.13 0.3,-0.14 0.31,-0.13 0.3,-0.13 0.31,-0.12 0.3,-0.13 0.31,-0.13 0.3,-0.12 0.3,-0.13 0.31,-0.13 0.3,-0.12 0.31,-0.12 0.3,-0.13 0.31,-0.13 0.3,-0.12 0.31,-0.12 0.3,-0.13 0.31,-0.12 0.3,-0.13 0.3,-0.12 0.31,-0.12 0.3,-0.12 0.31,-0.12 0.3,-0.12 0.31,-0.12 0.3,-0.13 0.31,-0.12 0.3,-0.11 0.31,-0.13 0.3,-0.12 0.3,-0.12 0.31,-0.12 0.3,-0.12 0.31,-0.12 0.3,-0.12 0.31,-0.11 0.3,-0.12 0.31,-0.11 0.3,-0.12 0.31,-0.12 0.3,-0.11 0.31,-0.12 0.3,-0.11 0.3,-0.11 0.31,-0.12 0.3,-0.11 0.31,-0.12 0.3,-0.11 0.31,-0.12 0.3,-0.1 0.31,-0.12 0.3,-0.11 0.31,-0.11 0.3,-0.11 0.3,-0.11 0.31,-0.11 0.3,-0.11 0.31,-0.1 0.3,-0.11 0.31,-0.11 0.3,-0.1 0.31,-0.11 0.3,-0.11 0.31,-0.11 0.3,-0.1 0.3,-0.11 0.31,-0.1 0.3,-0.1 0.31,-0.11 0.3,-0.11 0.31,-0.11 0.3,-0.1 0.31,-0.1 0.3,-0.11 0.31,-0.1 0.3,-0.09 0.31,-0.11 0.3,-0.1 0.3,-0.1 0.31,-0.1 0.3,-0.1 0.31,-0.1 0.3,-0.1 0.31,-0.1 0.3,-0.1 0.31,-0.1 0.3,-0.09 0.31,-0.1 0.3,-0.1 0.3,-0.09 0.31,-0.1 0.3,-0.09 0.31,-0.1 0.3,-0.09 0.31,-0.1 0.3,-0.1 0.31,-0.09 0.3,-0.1 0.31,-0.09 0.3,-0.09 0.3,-0.1 0.31,-0.1 0.3,-0.09 0.31,-0.1 0.3,-0.09 0.31,-0.09 0.3,-0.09 0.31,-0.09 0.3,-0.09 0.31,-0.09 0.3,-0.09 0.31,-0.09 0.3,-0.09 0.3,-0.09 0.31,-0.09 0.3,-0.09 0.31,-0.08 0.3,-0.09 0.31,-0.09 0.3,-0.09 0.31,-0.09 0.3,-0.09 0.31,-0.08 0.3,-0.09 0.3,-0.08 0.31,-0.09 0.3,-0.08 0.31,-0.09 0.3,-0.08 0.31,-0.08 0.3,-0.09 0.31,-0.08 0.3,-0.09 0.31,-0.08 0.3,-0.09 0.3,-0.08 0.31,-0.08 0.3,-0.09 0.31,-0.07 0.3,-0.08 0.31,-0.09 0.3,-0.08 0.31,-0.08 0.3,-0.07 0.31,-0.09 0.3,-0.08 0.31,-0.08 0.3,-0.07 0.3,-0.08 0.31,-0.08 0.3,-0.08 0.31,-0.08 0.3,-0.08 0.31,-0.08 0.3,-0.07 0.31,-0.08 0.3,-0.07 0.31,-0.08 0.3,-0.07 0.3,-0.08 0.31,-0.07 0.3,-0.08 0.31,-0.07 0.3,-0.08 0.31,-0.07 0.3,-0.07 0.31,-0.07 0.3,-0.08 0.31,-0.07 0.3,-0.08 0.3,-0.07 0.31,-0.07 0.3,-0.07 0.31,-0.08 0.3,-0.06 0.31,-0.07 0.3,-0.07 0.31,-0.07 0.3,-0.08 0.31,-0.06 0.3,-0.08 0.31,-0.06 0.3,-0.08 0.3,-0.06 0.31,-0.07 0.3,-0.07 0.31,-0.07 0.3,-0.07 0.31,-0.06 0.3,-0.07 0.31,-0.07 0.3,-0.07 0.31,-0.07 0.3,-0.06 0.3,-0.07 0.31,-0.06 0.3,-0.07 0.31,-0.06 0.3,-0.06 0.31,-0.07 0.3,-0.07 0.31,-0.06 0.3,-0.07 0.31,-0.06 0.3,-0.06 0.31,-0.07 0.3,-0.05 0.3,-0.07 0.31,-0.06 0.3,-0.07 0.31,-0.05 0.3,-0.07 0.31,-0.06 0.3,-0.06 0.31,-0.06 0.3,-0.06 0.31,-0.06 0.3,-0.06 0.3,-0.06 0.31,-0.05 0.3,-0.06 0.31,-0.07 0.3,-0.05 0.31,-0.07 0.3,-0.06 0.31,-0.05 0.3,-0.06 0.31,-0.06 0.3,-0.05 0.3,-0.06 0.31,-0.06 0.3,-0.05 0.31,-0.06 0.3,-0.05 0.31,-0.05 0.3,-0.06 0.31,-0.06 0.3,-0.05 0.31,-0.06 0.3,-0.05 0.31,-0.06 0.3,-0.06 0.3,-0.05 0.31,-0.05 0.3,-0.06 0.31,-0.05 0.3,-0.05 0.31,-0.05 0.3,-0.06 0.31,-0.05 0.3,-0.05 0.31,-0.05 0.3,-0.06 0.3,-0.05 0.31,-0.05 0.3,-0.05 0.31,-0.05 0.3,-0.05 0.31,-0.05 0.3,-0.04 0.31,-0.05 0.3,-0.05 0.31,-0.05 0.3,-0.05 0.3,-0.05 0.31,-0.04 0.3,-0.05 0.31,-0.05 0.3,-0.05 0.31,-0.05 0.3,-0.05 0.31,-0.04 0.3,-0.05 0.31,-0.05 0.3,-0.05 0.31,-0.04 0.3,-0.05 0.3,-0.04 0.31,-0.05 0.3,-0.05 0.31,-0.04 0.3,-0.04 0.31,-0.05 0.3,-0.04 0.31,-0.05 0.3,-0.04 0.31,-0.05 0.3,-0.04 0.3,-0.05 0.31,-0.04 0.3,-0.04 0.31,-0.05 0.3,-0.04 0.31,-0.04 0.3,-0.05 0.31,-0.04 0.3,-0.04 0.31,-0.04 0.3,-0.05 0.3,-0.04 0.31,-0.04 0.3,-0.04 0.31,-0.05 0.3,-0.03 0.31,-0.04 0.3,-0.04 0.31,-0.04 0.3,-0.05 0.31,-0.04 0.3,-0.04 0.31,-0.03 0.3,-0.04 0.3,-0.04 0.31,-0.05 0.3,-0.03 0.31,-0.04 0.3,-0.04 0.31,-0.03 0.3,-0.04 0.31,-0.04 0.3,-0.04 0.31,-0.04 0.3,-0.04 0.3,-0.03 0.31,-0.04 0.3,-0.04 0.31,-0.04 0.3,-0.04 0.31,-0.04 0.3,-0.04 0.31,-0.03 0.3,-0.04 0.31,-0.04 0.3,-0.03 0.3,-0.04 0.31,-0.03 0.3,-0.04 0.31,-0.03 0.3,-0.04 0.31,-0.03 0.3,-0.03 0.31,-0.04 0.3,-0.03 0.31,-0.03 0.3,-0.04 0.31,-0.03 0.3,-0.04 0.3,-0.03 0.31,-0.04 0.3,-0.03 0.31,-0.03 0.3,-0.04 0.31,-0.03 0.3,-0.03 0.31,-0.03 0.3,-0.03 0.31,-0.03 0.3,-0.03 0.3,-0.03 0.31,-0.03 0.3,-0.03 0.31,-0.03 0.3,-0.03 0.31,-0.03 0.3,-0.04 0.31,-0.03 0.3,-0.03 0.31,-0.03 0.3,-0.02 0.3,-0.04 0.31,-0.02 0.3,-0.03 0.31,-0.03 0.3,-0.03 0.31,-0.03 0.3,-0.03 0.31,-0.03 0.3,-0.03 0.31,-0.03 0.3,-0.03 0.31,-0.03 0.3,-0.03 0.3,-0.02 0.31,-0.03 0.3,-0.03 0.31,-0.03 0.3,-0.02 0.31,-0.03 0.3,-0.03 0.31,-0.02 0.3,-0.03 0.31,-0.02 0.3,-0.03 0.3,-0.03 0.31,-0.02 0.3,-0.03 0.31,-0.02 0.3,-0.03 0.31,-0.02 0.3,-0.03 0.31,-0.02 0.3,-0.03 0.31,-0.02 0.3,-0.03 0.3,-0.02 0.31,-0.02 0.3,-0.03 0.31,-0.02 0.3,-0.03 0.31,-0.02 0.3,-0.02 0.31,-0.03 0.3,-0.02 0.31,-0.03 0.3,-0.02 0.31,-0.02 0.3,-0.03 0.3,-0.02 0.31,-0.03 0.3,-0.02 0.31,-0.02 0.3,-0.02 0.31,-0.02 0.3,-0.02 0.31,-0.03 0.3,-0.02 0.31,-0.02 0.3,-0.02 0.3,-0.02 0.31,-0.03 0.3,-0.02 0.31,-0.02 0.3,-0.02 0.31,-0.02 0.3,-0.02 0.31,-0.02 0.3,-0.03 0.31,-0.02 0.3,-0.02 0.3,-0.02 0.31,-0.02 0.3,-0.02 0.31,-0.02 0.3,-0.02 0.31,-0.02 0.3,-0.02 0.31,-0.02 0.3,-0.02 0.31,-0.02 0.3,-0.02 0.31,-0.02 0.3,-0.02 0.3,-0.02 0.31,-0.02 0.3,-0.01 0.31,-0.02 0.3,-0.02 0.31,-0.02 0.3,-0.02 0.31,-0.02 0.3,-0.02 0.31,-0.02 0.3,-0.02 0.3,-0.01 0.31,-0.02 0.3,-0.02 0.31,-0.02 0.3,-0.02 0.31,-0.02 0.3,-0.02 0.31,-0.01 0.3,-0.02 0.31,-0.02 0.3,-0.01 0.3,-0.02 0.31,-0.02 0.3,-0.01 0.31,-0.02 0.3,-0.01 0.31,-0.02 0.3,-0.01 0.31,-0.02 0.3,-0.01 0.31,-0.02 0.3,-0.01 0.31,-0.02 0.3,-0.02 0.3,-0.01 0.31,-0.02 0.3,-0.01 0.31,-0.02 0.3,-0.01 0.31,-0.02 0.3,-0.01 0.31,-0.02 0.3,-0.01 0.31,-0.02 0.3,-0.01 0.3,-0.01 0.31,-0.02 0.3,-0.01 0.31,-0.02 0.3,-0.01 0.31,-0.01 0.3,-0.02 0.31,-0.01 0.3,-0.01 0.31,-0.02 0.3,-0.01 0.3,-0.01 0.31,-0.02 0.3,-0.01 0.31,-0.01 0.3,-0.02 0.31,-0.01 0.3,-0.01 0.31,-0.02 0.3,-0.01 0.31,-0.01 0.3,-0.01 0.31,-0.02 0.3,-0.01 0.3,-0.01 0.31,-0.02 0.3,-0.01 0.31,-0.01 0.3,-0.01 0.31,-0.01 0.3,-0.02 0.31,-0.01 0.3,-0.01 0.31,-0.01 0.3,-0.01 0.3,-0.01 0.31,-0.02 0.3,-0.01 0.31,-0.01 0.3,-0.01 0.31,-0.01 0.3,-0.01 0.31,-0.01 0.3,-0.01 0.31,-0.01 0.3,-0.02 h 0.3 l 0.31,-0.02 0.3,-0.01 0.31,-0.01 0.3,-0.01 0.31,-0.01 0.3,-0.01 0.31,-0.01 0.3,-0.01 0.31,-0.01 0.3,-0.01 0.31,-0.01 0.3,-0.01 0.3,-0.01 0.31,-0.01 0.3,-0.01 0.31,-0.01 0.3,-0.01 0.31,-0.01 0.3,-0.01 0.31,-0.01 0.3,-0.01 h 0.31 l 0.3,-0.01 0.3,-0.01 0.31,-0.01 0.3,-0.01 0.31,-0.01 0.3,-0.01 0.31,-0.01 0.3,-0.01 0.31,-0.01 h 0.3 l 0.31,-0.01 0.3,-0.01 0.3,-0.01 0.31,-0.01 0.3,-0.01 0.31,-0.01 0.3,-0.01 0.31,-0.01 0.3,-0.01 h 0.31 l 0.3,-0.01 0.31,-0.01 0.3,-0.01 0.31,-0.01 h 0.3 l 0.3,-0.01 0.31,-0.01 0.3,-0.01 0.31,-0.01 0.3,-0.01 0.31,-0.01 h 0.3 l 0.31,-0.01 0.3,-0.01 0.31,-0.01 h 0.3 l 0.3,-0.01 0.31,-0.01 0.3,-0.01 h 0.31 l 0.3,-0.01 0.31,-0.01 0.3,-0.01 h 0.31 l 0.3,-0.01 0.31,-0.01 0.3,-0.01 h 0.3 l 0.31,-0.01 0.3,-0.01 h 0.31 l 0.3,-0.01 0.31,-0.01 h 0.3 l 0.31,-0.01 0.3,-0.01 h 0.31 l 0.3,-0.01 0.31,-0.01 h 0.3 l 0.3,-0.01 0.31,-0.01 h 0.3 l 0.31,-0.01 0.3,-0.01 h 0.31 l 0.3,-0.01 0.31,-0.01 h 0.3 l 0.31,-0.01 0.3,-0.01 h 0.3 l 0.31,-0.01 0.3,-0.01 h 0.31 l 0.3,-0.01 h 0.31 l 0.3,-0.01 h 0.31 l 0.3,-0.01 0.31,-0.01 h 0.3 l 0.3,-0.01 h 0.31 l 0.3,-0.01 0.31,-0.01 h 0.3 l 0.31,-0.01 h 0.3 l 0.31,-0.01 h 0.3 l 0.31,-0.01 0.3,-0.01 h 0.31 0.3 l 0.3,-0.01 h 0.31 l 0.3,-0.01 h 0.31 l 0.3,-0.01 h 0.31 l 0.3,-0.01 h 0.31 0.3 l 0.31,-0.01 0.3,-0.01 h 0.3 l 0.31,-0.01 h 0.3 0.31 l 0.3,-0.01 h 0.31 l 0.3,-0.01 h 0.31 l 0.3,-0.01 h 0.31 l 0.3,-0.01 h 0.3 l 0.31,-0.01 h 0.3 0.31 l 0.3,-0.01 h 0.31 l 0.3,-0.01 h 0.31 l 0.3,-0.01 h 0.31 0.3 l 0.31,-0.01 h 0.3 l 0.3,-0.01 h 0.31 0.3 l 0.31,-0.01 h 0.3 l 0.31,-0.01 h 0.3 0.31 l 0.3,-0.01 h 0.31 0.3 l 0.3,-0.01 h 0.31 l 0.3,-0.01 h 0.31 0.3 l 0.31,-0.01 h 0.3 0.31 l 0.3,-0.01 h 0.31 l 0.3,-0.01 h 0.3 0.31 l 0.3,-0.01 h 0.31 0.3 0.31 l 0.3,-0.01 h 0.31 0.3 l 0.31,-0.01 h 0.3 l 0.31,-0.01 h 0.3 0.3 l 0.31,-0.01 h 0.3 0.31 0.3 l 0.31,-0.01 h 0.3 0.31 l 0.3,-0.01 h 0.31 0.3 0.3 l 0.31,-0.01 h 0.3 0.31 l 0.3,-0.01 h 0.31 0.3 0.31 l 0.3,-0.01 h 0.31 0.3 0.3 l 0.31,-0.01 h 0.3 0.31 0.3 l 0.31,-0.01 h 0.3 0.31 0.3 l 0.31,-0.01 h 0.3 0.31 l 0.3,-0.01 h 0.3 0.31 0.3 0.31 l 0.3,-0.01 h 0.31 0.3 l 0.31,-0.01 h 0.3 0.31 0.3 l 0.3,-0.01 h 0.31 0.3 0.31 0.3 l 0.31,-0.01 h 0.3 0.31 0.3 l 0.31,-0.01 h 0.3 0.31 0.3 l 0.3,-0.01 h 0.31 0.3 0.31 0.3 l 0.31,-0.01 h 0.3 0.31 0.3 0.31 0.3 l 0.3,-0.01 h 0.31 0.3 0.31 0.3 0.31 l 0.3,-0.01 h 0.31 0.3 0.31 0.3 0.3 l 0.31,-0.01 h 0.3 0.31 0.3 0.31 0.3 0.31 l 0.3,-0.01 h 0.31 0.3 0.31 0.3 0.3 l 0.31,-0.01 h 0.3 0.31 0.3 0.31 0.3 0.31 l 0.3,-0.01 h 0.31 0.3 0.3 0.31 0.3 l 0.31,-0.01 h 0.3 0.31 0.3 0.31 0.3 0.31 0.3 l 0.3,-0.01 h 0.31 0.3 0.31 0.3 0.31 0.3 l 0.31,-0.01 h 0.3 0.31 0.3 0.31 0.3 0.3 0.31 l 0.3,-0.01 h 0.31 0.3 0.31 0.3 0.31 0.3 0.31 l 0.3,-0.01 h 0.3 0.31 0.3 0.31 0.3 0.31 0.3 l 0.31,-0.01 h 0.3 0.31 0.3 0.3 0.31 0.3 0.31 0.3 l 0.31,-0.01 h 0.3 0.31 0.3 0.31 0.3 0.31 0.3 0.3 0.31 l 0.3,-0.01 h 0.31 0.3 0.31 0.3 0.31 0.3 0.31 0.3 0.3 l 0.31,-0.01 h 0.3 0.31 0.3 0.31 0.3 0.31 0.3 0.31 0.3 0.3 0.31 l 0.3,-0.01 h 0.31 0.3 0.31 0.3 0.31 0.3 0.31 0.3 0.31 0.3 0.3 0.31 l 0.3,-0.01 h 0.31 0.3 0.31 0.3 0.31 0.3 0.31 0.3 0.3 0.31 0.3 0.31 0.3 l 0.31,-0.01 h 0.3 0.31 0.3 0.31 0.3 0.3 0.31 0.3 0.31 0.3 0.31 0.3 0.31 0.3 0.31 0.3 0.31 l 0.3,-0.01 h 0.3 0.31 0.3 0.31 0.3 0.31 0.3 0.31 0.3 0.31 0.3 0.3 0.31 0.3 0.31 0.3 0.31 0.3 l 0.31,-0.01 h 0.3 0.31 0.3 0.3 0.31 0.3 0.31 0.3 0.31 0.3 0.31 0.3 0.31 0.3 0.31 0.3 0.3 0.31 0.3 0.31 l 0.3,-0.01 h 0.31 0.3 0.31 0.3 0.31 0.3 0.3 0.31 0.3 0.31 0.3 0.31 0.3 0.31 0.3 0.31 0.3 0.3 0.31 0.3 0.31 0.3 0.31 0.3 0.31 0.3 l 0.31,-0.01 h 0.3 0.31 0.3 0.3 0.31 0.3 0.31 0.3 0.31 0.3 0.31 0.3 0.31 0.3 0.3 0.31 0.3 0.31 0.3 0.31 0.3 0.31 0.3 0.31 0.6 0.31 0.3 0.31 0.3 0.31 0.61 0.61 0.3 0.31 l 0.3,-0.01 h 0.3 0.31 0.3 0.31 0.3 0.31 0.3 0.31 0.3 0.31 0.3 0.3 0.31 0.3 0.31 0.3 0.31 0.3 0.31 0.3 0.31 0.3 0.3 0.31 0.3 0.31 0.3 0.31 0.3 0.61 0.31 0.3 0.31 0.3 0.3 0.31 0.3 0.31 0.3 0.31 0.3 0.31 0.3 0.31 0.3 0.3 0.31 l 0.3,-0.01 h 0.31 0.3 0.31 0.3 0.31 0.3 0.31 0.6 0.31 0.3 0.31 0.3 0.31 0.3 0.31 0.3 0.61 0.31 0.6 0.31 0.3 0.31 0.3 0.31 0.3 0.61 0.31 0.3 0.3 0.31 0.3 0.31 0.3 0.31 0.3 0.31 0.61 0.3 0.3 0.31 0.3 0.92 0.3 0.31 0.3 0.31 0.3 0.31 0.3 0.3 0.61 0.92 l 0.61,-0.01 h 0.61 0.3 0.3 0.31 0.3 0.92 0.3 0.31 0.3 0.31 0.3 0.3 0.61 0.92 0.61 0.3 0.31 0.3 0.31 0.6 0.31 0.61 0.3 0.31 0.3 0.31 0.3 0.61 0.3 0.31 0.3 0.31 0.3 0.61 0.61 0.31 0.3 0.61 0.3 0.31 0.61 0.61 0.3 0.31 0.3 0.31 0.6 0.31 0.61 0.3 0.31 0.3 0.31 0.61 0.3 0.3 0.61 0.31 0.3 1.22 0.31 0.3 0.3 0.31 0.3 0.31 0.3 2.14 0.3 0.61 0.3 0.92 0.61 0.3 1.22 0.3 0.61 0.92 0.3 0.61 0.3 0.92 0.61 0.61 0.61 0.3 0.61 l 0.91,-0.01 h 0.61 0.92 0.61 0.6 0.92 0.61 0.61 0.3 1.83 0.3 2.44 0.3 3.05 0.3 0.31 0.3 0.31 0.91 0.61 0.61 0.61 0.61 0.61 0.61 0.61 0.91 0.91 0.92 1.22 0.3 0.3 2.75 0.3 0.91 0.61 0.92 0.61 0.61 0.91 0.3 0.31 0.61 2.43 0.31 0.3 1.83 4.87 1.83 0.31 4.26 1.22 1.22 0.61 0.3 0.3 2.75 0.3 0.3 0.31 0.61 0.91 0.61 1.52 1.22 2.74 1.53 10.05 0.3 0.61 0.61 3.96 2.74 3.35 4.57 7.31 1.52 2.44 1.22 3.96 0.61 6.7 16.75 1.22 3.35 2.43 3.35 3.96 5.48 7.62 2.44 3.65 14.01 5.79 8.83 10.66 1.22 101.42" /><path
           id="path78"
           style="fill:none;stroke:#00bf7d;stroke-width:4.25;stroke-linecap:butt;stroke-linejoin:round;stroke-miterlimit:1;stroke-dasharray:17.01, 8.5;stroke-dashoffset:0;stroke-opacity:1"
           d="m 205.89,797.63 0.3,-0.83 0.3,-0.43 0.31,-0.58 0.3,-0.48 0.31,-0.71 0.3,-0.76 0.31,-0.77 0.3,-0.81 0.31,-0.83 0.3,-0.85 0.31,-0.85 0.3,-0.87 0.3,-0.88 0.31,-0.89 0.3,-0.91 0.31,-0.91 0.3,-0.94 0.31,-0.96 0.3,-0.99 0.31,-0.99 0.3,-1.02 0.31,-1.03 0.3,-1.04 0.31,-1.05 0.3,-1.07 0.3,-1.1 0.31,-1.1 0.3,-1.1 0.31,-1.12 0.3,-1.12 0.31,-1.14 0.3,-1.14 0.31,-1.14 0.3,-1.16 0.31,-1.15 0.3,-1.16 0.3,-1.15 0.31,-1.18 0.3,-1.17 0.31,-1.18 0.3,-1.18 0.31,-1.19 0.3,-1.17 0.31,-1.2 0.3,-1.2 0.31,-1.2 0.3,-1.21 0.3,-1.2 0.31,-1.22 0.3,-1.21 0.31,-1.21 0.3,-1.22 0.31,-1.24 0.3,-1.22 0.31,-1.23 0.3,-1.23 0.31,-1.25 0.3,-1.28 0.31,-1.25 0.3,-1.28 0.3,-1.26 0.31,-1.28 0.3,-1.29 0.31,-1.29 0.3,-1.3 0.31,-1.32 0.3,-1.33 0.31,-1.33 0.3,-1.33 0.31,-1.34 0.3,-1.34 0.3,-1.35 0.31,-1.38 0.3,-1.39 0.31,-1.37 0.3,-1.4 0.31,-1.4 0.3,-1.4 0.31,-1.43 0.3,-1.41 0.31,-1.42 0.3,-1.41 0.3,-1.43 0.31,-1.43 0.3,-1.43 0.31,-1.43 0.3,-1.45 0.31,-1.46 0.3,-1.46 0.31,-1.47 0.3,-1.47 0.31,-1.49 0.3,-1.47 0.31,-1.46 0.3,-1.49 0.3,-1.51 0.31,-1.5 0.3,-1.5 0.31,-1.5 0.3,-1.51 0.31,-1.53 0.3,-1.54 0.31,-1.54 0.3,-1.54 0.31,-1.52 0.3,-1.56 0.3,-1.55 0.31,-1.54 0.3,-1.55 0.31,-1.56 0.3,-1.57 0.31,-1.56 0.3,-1.58 0.31,-1.58 0.3,-1.57 0.31,-1.58 0.3,-1.58 0.3,-1.59 0.31,-1.6 0.3,-1.59 0.31,-1.58 0.3,-1.6 0.31,-1.61 0.3,-1.59 0.31,-1.58 0.3,-1.59 0.31,-1.59 0.3,-1.59 0.31,-1.59 0.3,-1.61 0.3,-1.6 0.31,-1.6 0.3,-1.6 0.31,-1.61 0.3,-1.61 0.31,-1.59 0.3,-1.62 0.31,-1.62 0.3,-1.61 0.31,-1.6 0.3,-1.61 0.3,-1.6 0.31,-1.6 0.3,-1.61 0.31,-1.59 0.3,-1.6 0.31,-1.59 0.3,-1.6 0.31,-1.58 0.3,-1.6 0.31,-1.58 0.3,-1.57 0.3,-1.6 0.31,-1.59 0.3,-1.6 0.31,-1.58 0.3,-1.59 0.31,-1.6 0.3,-1.6 0.31,-1.59 0.3,-1.59 0.31,-1.56 0.3,-1.62 0.31,-1.57 0.3,-1.58 0.3,-1.59 0.31,-1.57 0.3,-1.56 0.31,-1.58 0.3,-1.58 0.31,-1.59 0.3,-1.6 0.31,-1.55 0.3,-1.59 0.31,-1.56 0.3,-1.57 0.3,-1.58 0.31,-1.58 0.3,-1.54 0.31,-1.58 0.3,-1.57 0.31,-1.57 0.3,-1.56 0.31,-1.56 0.3,-1.56 0.31,-1.55 0.3,-1.56 0.3,-1.55 0.31,-1.54 0.3,-1.55 0.31,-1.54 0.3,-1.54 0.31,-1.52 0.3,-1.53 0.31,-1.53 0.3,-1.54 0.31,-1.5 0.3,-1.53 0.31,-1.53 0.3,-1.52 0.3,-1.54 0.31,-1.5 0.3,-1.49 0.31,-1.5 0.3,-1.5 0.31,-1.5 0.3,-1.49 0.31,-1.51 0.3,-1.48 0.31,-1.49 0.3,-1.49 0.3,-1.49 0.31,-1.49 0.3,-1.47 0.31,-1.47 0.3,-1.46 0.31,-1.46 0.3,-1.46 0.31,-1.46 0.3,-1.45 0.31,-1.46 0.3,-1.45 0.3,-1.44 0.31,-1.46 0.3,-1.45 0.31,-1.44 0.3,-1.45 0.31,-1.44 0.3,-1.44 0.31,-1.46 0.3,-1.43 0.31,-1.44 0.3,-1.44 0.31,-1.44 0.3,-1.45 0.3,-1.44 0.31,-1.42 0.3,-1.42 0.31,-1.43 0.3,-1.42 0.31,-1.4 0.3,-1.42 0.31,-1.42 0.3,-1.4 0.31,-1.41 0.3,-1.41 0.3,-1.4 0.31,-1.39 0.3,-1.38 0.31,-1.38 0.3,-1.38 0.31,-1.37 0.3,-1.38 0.31,-1.37 0.3,-1.38 0.31,-1.37 0.3,-1.36 0.3,-1.36 0.31,-1.37 0.3,-1.36 0.31,-1.34 0.3,-1.35 0.31,-1.35 0.3,-1.34 0.31,-1.34 0.3,-1.34 0.31,-1.32 0.3,-1.34 0.31,-1.33 0.3,-1.33 0.3,-1.33 0.31,-1.33 0.3,-1.31 0.31,-1.31 0.3,-1.3 0.31,-1.3 0.3,-1.32 0.31,-1.32 0.3,-1.29 0.31,-1.3 0.3,-1.29 0.3,-1.28 0.31,-1.28 0.3,-1.3 0.31,-1.29 0.3,-1.26 0.31,-1.29 0.3,-1.29 0.31,-1.28 0.3,-1.25 0.31,-1.27 0.3,-1.26 0.3,-1.25 0.31,-1.26 0.3,-1.26 0.31,-1.23 0.3,-1.26 0.31,-1.22 0.3,-1.25 0.31,-1.24 0.3,-1.25 0.31,-1.23 0.3,-1.26 0.31,-1.22 0.3,-1.23 0.3,-1.25 0.31,-1.23 0.3,-1.23 0.31,-1.21 0.3,-1.22 0.31,-1.21 0.3,-1.21 0.31,-1.2 0.3,-1.19 0.31,-1.21 0.3,-1.19 0.3,-1.19 0.31,-1.2 0.3,-1.18 0.31,-1.19 0.3,-1.18 0.31,-1.18 0.3,-1.18 0.31,-1.19 0.3,-1.18 0.31,-1.17 0.3,-1.17 0.3,-1.15 0.31,-1.16 0.3,-1.17 0.31,-1.15 0.3,-1.16 0.31,-1.16 0.3,-1.14 0.31,-1.13 0.3,-1.16 0.31,-1.13 0.3,-1.13 0.31,-1.14 0.3,-1.11 0.3,-1.12 0.31,-1.11 0.3,-1.12 0.31,-1.11 0.3,-1.11 0.31,-1.1 0.3,-1.11 0.31,-1.13 0.3,-1.08 0.31,-1.1 0.3,-1.1 0.3,-1.11 0.31,-1.09 0.3,-1.09 0.31,-1.08 0.3,-1.07 0.31,-1.09 0.3,-1.08 0.31,-1.08 0.3,-1.06 0.31,-1.07 0.3,-1.07 0.31,-1.06 0.3,-1.04 0.3,-1.06 0.31,-1.06 0.3,-1.06 0.31,-1.04 0.3,-1.05 0.31,-1.05 0.3,-1.04 0.31,-1.03 0.3,-1.03 0.31,-1.04 0.3,-1.01 0.3,-1.03 0.31,-1.02 0.3,-1.01 0.31,-1 0.3,-1.02 0.31,-1 0.3,-1.01 0.31,-1 0.3,-0.98 0.31,-0.99 0.3,-0.98 0.3,-1 0.31,-0.98 0.3,-0.97 0.31,-0.98 0.3,-0.96 0.31,-0.97 0.3,-0.97 0.31,-0.96 0.3,-0.96 0.31,-0.97 0.3,-0.96 0.31,-0.95 0.3,-0.95 0.3,-0.95 0.31,-0.95 0.3,-0.94 0.31,-0.95 0.3,-0.93 0.31,-0.93 0.3,-0.94 0.31,-0.93 0.3,-0.91 0.31,-0.91 0.3,-0.92 0.3,-0.91 0.31,-0.91 0.3,-0.91 0.31,-0.91 0.3,-0.89 0.31,-0.9 0.3,-0.9 0.31,-0.9 0.3,-0.9 0.31,-0.89 0.3,-0.89 0.3,-0.9 0.31,-0.88 0.3,-0.88 0.31,-0.87 0.3,-0.86 0.31,-0.88 0.3,-0.86 0.31,-0.87 0.3,-0.87 0.31,-0.85 0.3,-0.84 0.31,-0.85 0.3,-0.84 0.3,-0.84 0.31,-0.84 0.3,-0.83 0.31,-0.83 0.3,-0.83 0.31,-0.82 0.3,-0.83 0.31,-0.82 0.3,-0.81 0.31,-0.82 0.3,-0.81 0.3,-0.8 0.31,-0.8 0.3,-0.81 0.31,-0.8 0.3,-0.79 0.31,-0.8 0.3,-0.78 0.31,-0.79 0.3,-0.79 0.31,-0.79 0.3,-0.77 0.3,-0.79 0.31,-0.78 0.3,-0.77 0.31,-0.78 0.3,-0.77 0.31,-0.76 0.3,-0.76 0.31,-0.74 0.3,-0.74 0.31,-0.74 0.3,-0.75 0.31,-0.74 0.3,-0.75 0.3,-0.73 0.31,-0.73 0.3,-0.72 0.31,-0.73 0.3,-0.73 0.31,-0.72 0.3,-0.72 0.31,-0.72 0.3,-0.72 0.31,-0.7 0.3,-0.71 0.3,-0.71 0.31,-0.69 0.3,-0.71 0.31,-0.69 0.3,-0.69 0.31,-0.68 0.3,-0.68 0.31,-0.69 0.3,-0.68 0.31,-0.66 0.3,-0.68 0.3,-0.67 0.31,-0.67 0.3,-0.65 0.31,-0.66 0.3,-0.67 0.31,-0.64 0.3,-0.65 0.31,-0.65 0.3,-0.65 0.31,-0.65 0.3,-0.66 0.31,-0.64 0.3,-0.65 0.3,-0.63 0.31,-0.64 0.3,-0.63 0.31,-0.64 0.3,-0.62 0.31,-0.62 0.3,-0.62 0.31,-0.61 0.3,-0.62 0.31,-0.61 0.3,-0.62 0.3,-0.6 0.31,-0.61 0.3,-0.6 0.31,-0.6 0.3,-0.61 0.31,-0.59 0.3,-0.59 0.31,-0.59 0.3,-0.58 0.31,-0.58 0.3,-0.58 0.3,-0.58 0.31,-0.57 0.3,-0.57 0.31,-0.56 0.3,-0.57 0.31,-0.57 0.3,-0.56 0.31,-0.55 0.3,-0.56 0.31,-0.55 0.3,-0.56 0.31,-0.54 0.3,-0.54 0.3,-0.54 0.31,-0.55 0.3,-0.53 0.31,-0.53 0.3,-0.54 0.31,-0.54 0.3,-0.53 0.31,-0.53 0.3,-0.53 0.31,-0.53 0.3,-0.5 0.3,-0.52 0.31,-0.51 0.3,-0.51 0.31,-0.5 0.3,-0.5 0.31,-0.5 0.3,-0.51 0.31,-0.49 0.3,-0.49 0.31,-0.5 0.3,-0.49 0.3,-0.49 0.31,-0.48 0.3,-0.49 0.31,-0.49 0.3,-0.47 0.31,-0.47 0.3,-0.47 0.31,-0.47 0.3,-0.46 0.31,-0.48 0.3,-0.46 0.31,-0.46 0.3,-0.46 0.3,-0.45 0.31,-0.46 0.3,-0.46 0.31,-0.44 0.3,-0.45 0.31,-0.44 0.3,-0.45 0.31,-0.44 0.3,-0.43 0.31,-0.44 0.3,-0.42 0.3,-0.45 0.31,-0.41 0.3,-0.44 0.31,-0.42 0.3,-0.43 0.31,-0.41 0.3,-0.41 0.31,-0.42 0.3,-0.42 0.31,-0.41 0.3,-0.42 0.3,-0.4 0.31,-0.41 0.3,-0.41 0.31,-0.4 0.3,-0.4 0.31,-0.4 0.3,-0.39 0.31,-0.4 0.3,-0.39 0.31,-0.39 0.3,-0.39 0.31,-0.38 0.3,-0.37 0.3,-0.39 0.31,-0.38 0.3,-0.38 0.31,-0.37 0.3,-0.38 0.31,-0.36 0.3,-0.37 0.31,-0.36 0.3,-0.37 0.31,-0.35 0.3,-0.36 0.3,-0.35 0.31,-0.36 0.3,-0.36 0.31,-0.35 0.3,-0.36 0.31,-0.35 0.3,-0.35 0.31,-0.35 0.3,-0.35 0.31,-0.34 0.3,-0.34 0.3,-0.33 0.31,-0.35 0.3,-0.33 0.31,-0.34 0.3,-0.32 0.31,-0.33 0.3,-0.33 0.31,-0.32 0.3,-0.33 0.31,-0.33 0.3,-0.32 0.31,-0.32 0.3,-0.32 0.3,-0.32 0.31,-0.31 0.3,-0.31 0.31,-0.31 0.3,-0.3 0.31,-0.31 0.3,-0.3 0.31,-0.31 0.3,-0.29 0.31,-0.31 0.3,-0.28 0.3,-0.3 0.31,-0.29 0.3,-0.3 0.31,-0.29 0.3,-0.3 0.31,-0.29 0.3,-0.28 0.31,-0.29 0.3,-0.28 0.31,-0.27 0.3,-0.28 0.3,-0.28 0.31,-0.27 0.3,-0.28 0.31,-0.27 0.3,-0.27 0.31,-0.27 0.3,-0.27 0.31,-0.25 0.3,-0.26 0.31,-0.26 0.3,-0.26 0.31,-0.25 0.3,-0.25 0.3,-0.26 0.31,-0.24 0.3,-0.25 0.31,-0.25 0.3,-0.24 0.31,-0.24 0.3,-0.24 0.31,-0.24 0.3,-0.24 0.31,-0.24 0.3,-0.23 0.3,-0.24 0.31,-0.22 0.3,-0.24 0.31,-0.23 0.3,-0.23 0.31,-0.22 0.3,-0.22 0.31,-0.22 0.3,-0.22 0.31,-0.22 0.3,-0.22 0.3,-0.21 0.31,-0.21 0.3,-0.21 0.31,-0.2 0.3,-0.21 0.31,-0.21 0.3,-0.2 0.31,-0.2 0.3,-0.2 0.31,-0.21 0.3,-0.19 0.31,-0.2 0.3,-0.2 0.3,-0.2 0.31,-0.19 0.3,-0.19 0.31,-0.2 0.3,-0.18 0.31,-0.19 0.3,-0.19 0.31,-0.19 0.3,-0.17 0.31,-0.19 0.3,-0.18 0.3,-0.18 0.31,-0.18 0.3,-0.17 0.31,-0.18 0.3,-0.17 0.31,-0.18 0.3,-0.17 0.31,-0.18 0.3,-0.18 0.31,-0.16 0.3,-0.17 0.3,-0.15 0.31,-0.17 0.3,-0.16 0.31,-0.17 0.3,-0.15 0.31,-0.17 0.3,-0.16 0.31,-0.16 0.3,-0.15 0.31,-0.15 0.3,-0.16 0.31,-0.15 0.3,-0.15 0.3,-0.15 0.31,-0.15 0.3,-0.15 0.31,-0.14 0.3,-0.15 0.31,-0.14 0.3,-0.14 0.31,-0.15 0.3,-0.14 0.31,-0.14 0.3,-0.14 0.3,-0.14 0.31,-0.13 0.3,-0.13 0.31,-0.14 0.3,-0.13 0.31,-0.13 0.3,-0.13 0.31,-0.13 0.3,-0.13 0.31,-0.12 0.3,-0.13 0.3,-0.13 0.31,-0.13 0.3,-0.12 0.31,-0.13 0.3,-0.12 0.31,-0.12 0.3,-0.12 0.31,-0.12 0.3,-0.12 0.31,-0.12 0.3,-0.12 0.31,-0.11 0.3,-0.11 0.3,-0.11 0.31,-0.12 0.3,-0.11 0.31,-0.1 0.3,-0.11 0.31,-0.11 0.3,-0.11 0.31,-0.11 0.3,-0.11 0.31,-0.1 0.3,-0.11 0.3,-0.1 0.31,-0.1 0.3,-0.1 0.31,-0.1 0.3,-0.1 0.31,-0.1 0.3,-0.09 0.31,-0.1 0.3,-0.1 0.31,-0.1 0.3,-0.09 0.3,-0.08 0.31,-0.1 0.3,-0.09 0.31,-0.09 0.3,-0.09 0.31,-0.09 0.3,-0.09 0.31,-0.09 0.3,-0.09 0.31,-0.08 0.3,-0.09 0.31,-0.08 0.3,-0.08 0.3,-0.08 0.31,-0.08 0.3,-0.08 0.31,-0.08 0.3,-0.08 0.31,-0.08 0.3,-0.07 0.31,-0.08 0.3,-0.07 0.31,-0.08 0.3,-0.08 0.3,-0.07 0.31,-0.08 0.3,-0.08 0.31,-0.07 0.3,-0.08 0.31,-0.06 0.3,-0.08 0.31,-0.07 0.3,-0.07 0.31,-0.07 0.3,-0.07 0.3,-0.07 0.31,-0.06 0.3,-0.07 0.31,-0.06 0.3,-0.07 0.31,-0.06 0.3,-0.07 0.31,-0.06 0.3,-0.06 0.31,-0.07 0.3,-0.06 0.31,-0.06 0.3,-0.06 0.3,-0.06 0.31,-0.06 0.3,-0.06 0.31,-0.05 0.3,-0.06 0.31,-0.06 0.3,-0.06 0.31,-0.05 0.3,-0.06 0.31,-0.05 0.3,-0.06 0.3,-0.05 0.31,-0.05 0.3,-0.05 0.31,-0.05 0.3,-0.05 0.31,-0.06 0.3,-0.05 0.31,-0.05 0.3,-0.05 0.31,-0.05 0.3,-0.05 0.3,-0.04 0.31,-0.05 0.3,-0.05 0.31,-0.04 0.3,-0.05 0.31,-0.05 0.3,-0.04 0.31,-0.05 0.3,-0.04 0.31,-0.05 0.3,-0.04 0.31,-0.04 0.3,-0.04 0.3,-0.04 0.31,-0.04 0.3,-0.05 0.31,-0.04 0.3,-0.04 0.31,-0.04 0.3,-0.04 0.31,-0.04 0.3,-0.03 0.31,-0.04 0.3,-0.04 0.3,-0.04 0.31,-0.03 0.3,-0.04 0.31,-0.04 0.3,-0.03 0.31,-0.04 0.3,-0.04 0.31,-0.03 0.3,-0.04 0.31,-0.03 0.3,-0.04 0.31,-0.03 0.3,-0.03 0.3,-0.03 0.31,-0.04 0.3,-0.03 0.31,-0.03 0.3,-0.04 0.31,-0.03 0.3,-0.03 0.31,-0.03 0.3,-0.03 0.31,-0.03 0.3,-0.03 0.3,-0.03 0.31,-0.02 0.3,-0.03 0.31,-0.03 0.3,-0.03 0.31,-0.03 0.3,-0.02 0.31,-0.03 0.3,-0.02 0.31,-0.03 0.3,-0.02 0.3,-0.03 0.31,-0.02 0.3,-0.03 0.31,-0.02 0.3,-0.03 0.31,-0.02 0.3,-0.03 0.31,-0.02 0.3,-0.03 0.31,-0.02 0.3,-0.02 0.31,-0.03 0.3,-0.02 0.3,-0.02 0.31,-0.02 0.3,-0.03 0.31,-0.02 0.3,-0.02 0.31,-0.02 0.3,-0.03 0.31,-0.02 0.3,-0.02 0.31,-0.02 0.3,-0.02 0.3,-0.02 0.31,-0.02 0.3,-0.02 0.31,-0.02 0.3,-0.02 0.31,-0.02 0.3,-0.02 0.31,-0.02 0.3,-0.02 0.31,-0.02 0.3,-0.01 0.3,-0.02 0.31,-0.02 0.3,-0.02 0.31,-0.02 0.3,-0.02 0.31,-0.01 0.3,-0.02 0.31,-0.02 0.3,-0.01 0.31,-0.02 0.3,-0.02 0.31,-0.01 0.3,-0.02 0.3,-0.02 0.31,-0.01 0.3,-0.02 0.31,-0.01 0.3,-0.02 0.31,-0.01 0.3,-0.02 0.31,-0.01 0.3,-0.02 0.31,-0.01 0.3,-0.02 0.3,-0.01 0.31,-0.01 0.3,-0.02 0.31,-0.01 0.3,-0.02 0.31,-0.01 0.3,-0.01 0.31,-0.02 0.3,-0.01 0.31,-0.01 0.3,-0.02 0.3,-0.01 0.31,-0.01 0.3,-0.01 0.31,-0.02 0.3,-0.01 0.31,-0.01 0.3,-0.01 0.31,-0.01 0.3,-0.01 0.31,-0.01 0.3,-0.01 0.31,-0.01 0.3,-0.01 0.3,-0.01 0.31,-0.02 0.3,-0.01 0.31,-0.01 0.3,-0.01 0.31,-0.01 0.3,-0.01 0.31,-0.01 0.3,-0.01 0.31,-0.01 0.3,-0.01 0.3,-0.01 0.31,-0.01 0.3,-0.01 0.31,-0.01 h 0.3 l 0.31,-0.01 0.3,-0.01 0.31,-0.01 0.3,-0.01 0.31,-0.01 0.3,-0.01 h 0.3 l 0.31,-0.01 0.3,-0.01 0.31,-0.01 h 0.3 l 0.31,-0.01 0.3,-0.01 0.31,-0.01 h 0.3 l 0.31,-0.01 0.3,-0.01 h 0.31 l 0.3,-0.01 0.3,-0.01 h 0.31 l 0.3,-0.01 0.31,-0.01 h 0.3 l 0.31,-0.01 0.3,-0.01 h 0.31 l 0.3,-0.01 h 0.31 l 0.3,-0.01 0.3,-0.01 h 0.31 l 0.3,-0.01 0.31,-0.01 h 0.3 l 0.31,-0.01 h 0.3 l 0.31,-0.01 h 0.3 L 533,86.57 h 0.3 l 0.3,-0.01 0.31,-0.01 h 0.3 0.31 l 0.3,-0.01 0.31,-0.01 h 0.3 l 0.31,-0.01 h 0.3 0.31 l 0.3,-0.01 0.31,-0.01 h 0.3 0.3 l 0.31,-0.01 h 0.3 l 0.31,-0.01 h 0.3 l 0.31,-0.01 h 0.3 l 0.31,-0.01 h 0.3 l 0.31,-0.01 h 0.3 0.3 l 0.31,-0.01 h 0.3 0.31 l 0.3,-0.01 h 0.31 l 0.3,-0.01 h 0.31 0.3 l 0.31,-0.01 h 0.3 0.3 l 0.31,-0.01 h 0.3 0.31 l 0.3,-0.01 h 0.31 0.3 l 0.31,-0.01 h 0.3 0.31 l 0.3,-0.01 h 0.31 0.3 l 0.3,-0.01 h 0.31 0.3 l 0.31,-0.01 h 0.3 0.31 l 0.3,-0.01 h 0.31 0.3 l 0.31,-0.01 h 0.3 0.3 0.31 l 0.3,-0.01 h 0.31 0.3 0.31 l 0.3,-0.01 h 0.31 0.3 0.31 l 0.3,-0.01 h 0.3 0.31 0.3 0.31 l 0.3,-0.01 h 0.31 0.3 0.31 0.3 l 0.31,-0.01 h 0.3 0.31 0.3 0.3 0.31 l 0.3,-0.01 h 0.31 0.3 0.31 0.3 l 0.31,-0.01 h 0.3 0.31 0.3 0.3 0.31 l 0.3,-0.01 h 0.31 0.3 0.31 0.3 0.31 l 0.3,-0.01 h 0.31 0.3 0.3 0.31 0.3 l 0.31,-0.01 h 0.3 0.31 0.3 0.31 0.3 0.31 l 0.3,-0.01 h 0.31 0.3 0.3 0.31 0.3 0.31 0.3 0.31 l 0.3,-0.01 h 0.31 0.3 0.31 0.3 0.3 0.31 0.3 l 0.31,-0.01 h 0.3 0.31 0.3 0.31 0.3 0.31 0.3 0.3 l 0.31,-0.01 h 0.3 0.31 0.3 0.31 0.3 0.31 0.3 0.31 l 0.3,-0.01 h 0.31 0.3 0.3 0.31 0.3 0.31 0.3 0.31 0.3 0.31 l 0.3,-0.01 h 0.31 0.3 0.3 0.31 0.3 0.31 0.3 0.31 0.3 0.31 0.3 l 0.31,-0.01 h 0.3 0.3 0.31 0.3 0.31 0.3 0.31 0.3 0.31 0.3 0.31 0.3 0.31 0.3 0.3 0.31 0.3 l 0.31,-0.01 h 0.3 0.31 0.3 0.31 0.3 0.31 0.3 0.3 0.31 0.3 0.31 0.3 0.31 0.3 0.31 0.3 0.31 0.3 0.3 0.31 0.3 0.31 0.3 0.31 l 0.3,-0.01 h 0.31 0.3 0.31 0.3 0.31 0.3 0.3 0.31 0.3 0.31 0.3 0.31 0.3 0.31 0.3 0.31 0.3 0.3 0.31 0.3 0.31 0.3 0.31 0.3 0.31 0.3 l 0.31,-0.01 h 0.3 0.3 0.31 0.3 0.31 0.3 0.31 0.3 0.31 0.3 0.31 0.3 0.31 0.3 0.3 0.31 0.3 0.31 0.3 0.61 0.31 0.3 0.31 0.3 0.3 0.31 0.3 0.31 0.3 0.31 0.3 0.31 0.3 0.31 0.3 0.3 0.31 l 0.3,-0.01 h 0.31 0.3 0.31 0.3 0.31 0.3 0.31 0.3 0.61 0.3 0.31 0.3 0.31 0.3 0.31 0.3 0.31 0.3 0.31 0.3 0.3 0.31 0.3 0.31 0.3 0.31 0.61 0.3 0.61 0.3 0.61 0.61 0.61 0.31 0.91 0.31 0.6 0.61 0.31 0.3 0.61 0.61 0.31 0.3 0.3 0.31 0.3 0.31 0.3 0.31 0.3 0.31 0.3 0.31 l 0.3,-0.01 h 0.91 0.31 0.3 0.31 0.3 0.92 0.3 0.31 1.21 0.31 0.61 0.3 0.92 0.3 0.91 0.31 0.3 0.31 0.61 0.3 0.31 0.3 0.3 0.31 0.3 0.61 0.61 0.61 0.61 0.31 0.6 0.31 0.3 0.61 0.31 0.91 0.31 0.6 0.61 0.61 0.61 0.61 0.61 0.61 0.3 0.61 1.83 0.31 0.3 0.91 2.14 0.3 1.52 1.83 0.31 0.6 0.61 1.53 1.21 1.83 0.31 1.52 4.26 0.31 0.61 1.22 0.91 0.3 1.83 0.61 0.61 1.22 0.91 7.01 0.91 2.44 8.22 1.52 2.74 3.05 6.09 4.57 0.61 0.3 3.66 0.61 0.91 0.61" /><path
           id="path80"
           style="fill:none;stroke:#00b0f6;stroke-width:4.25;stroke-linecap:butt;stroke-linejoin:round;stroke-miterlimit:1;stroke-dasharray:17.01, 17.01;stroke-dashoffset:0;stroke-opacity:1"
           d="m 205.89,815.61 0.3,-13.03 0.3,-12.79 0.31,-12.57 0.3,-12.34 0.31,-12.12 0.3,-11.91 0.31,-11.69 0.3,-11.48 0.31,-11.28 0.3,-11.08 0.31,-10.87 0.3,-10.69 0.3,-10.49 0.31,-10.31 0.3,-10.12 0.31,-9.94 0.3,-9.77 0.31,-9.59 0.3,-9.42 0.31,-9.25 0.3,-9.08 0.31,-8.92 0.3,-8.77 0.31,-8.6 0.3,-8.46 0.3,-8.3 0.31,-8.15 0.3,-8.01 0.31,-7.87 0.3,-7.72 0.31,-7.59 0.3,-7.45 0.31,-7.32 0.3,-7.19 0.31,-7.06 0.3,-6.93 0.3,-6.81 0.31,-6.69 0.3,-6.57 0.31,-6.45 0.3,-6.34 0.31,-6.22 0.3,-6.11 0.31,-6 0.3,-5.9 0.31,-5.79 0.3,-5.69 0.3,-5.58 0.31,-5.49 0.3,-5.38 0.31,-5.3 0.3,-5.19 0.31,-5.11 0.3,-5.01 0.31,-4.92 0.3,-4.84 0.31,-4.75 0.3,-4.66 0.31,-4.58 0.3,-4.5 0.3,-4.42 0.31,-4.34 0.3,-4.26 0.31,-4.19 0.3,-4.11 0.31,-4.04 0.3,-3.97 0.31,-3.89 0.3,-3.83 0.31,-3.76 0.3,-3.69 0.3,-3.62 0.31,-3.56 0.3,-3.5 0.31,-3.43 0.3,-3.37 0.31,-3.31 0.3,-3.26 0.31,-3.19 0.3,-3.14 0.31,-3.08 0.3,-3.03 0.3,-2.97 0.31,-2.92 0.3,-2.87 0.31,-2.81 0.3,-2.77 0.31,-2.72 0.3,-2.67 0.31,-2.62 0.3,-2.57 0.31,-2.53 0.3,-2.48 0.31,-2.44 0.3,-2.39 0.3,-2.36 0.31,-2.31 0.3,-2.26 0.31,-2.23 0.3,-2.19 0.31,-2.15 0.3,-2.11 0.31,-2.07 0.3,-2.04 0.31,-2 0.3,-1.96 0.3,-1.93 0.31,-1.9 0.3,-1.86 0.31,-1.83 0.3,-1.79 0.31,-1.76 0.3,-1.74 0.31,-1.7 0.3,-1.67 0.31,-1.64 0.3,-1.61 0.3,-1.58 0.31,-1.55 0.3,-1.53 0.31,-1.5 0.3,-1.47 0.31,-1.45 0.3,-1.42 0.31,-1.39 0.3,-1.37 0.31,-1.35 0.3,-1.32 0.31,-1.3 0.3,-1.27 0.3,-1.25 0.31,-1.23 0.3,-1.21 0.31,-1.19 0.3,-1.16 0.31,-1.14 0.3,-1.13 0.31,-1.1 0.3,-1.09 0.31,-1.06 0.3,-1.05 0.3,-1.02 0.31,-1.01 0.3,-0.99 0.31,-0.97 0.3,-0.96 0.31,-0.94 0.3,-0.92 0.31,-0.9 0.3,-0.89 0.31,-0.88 0.3,-0.85 0.3,-0.85 0.31,-0.82 0.3,-0.81 0.31,-0.8 0.3,-0.79 0.31,-0.77 0.3,-0.75 0.31,-0.74 0.3,-0.73 0.31,-0.72 0.3,-0.7 0.31,-0.69 0.3,-0.68 0.3,-0.67 0.31,-0.65 0.3,-0.65 0.31,-0.63 0.3,-0.62 0.31,-0.61 0.3,-0.59 0.31,-0.59 0.3,-0.58 0.31,-0.56 0.3,-0.56 0.3,-0.55 0.31,-0.53 0.3,-0.53 0.31,-0.52 0.3,-0.51 0.31,-0.5 0.3,-0.49 0.31,-0.48 0.3,-0.47 0.31,-0.47 0.3,-0.45 0.3,-0.45 0.31,-0.44 0.3,-0.43 0.31,-0.43 0.3,-0.42 0.31,-0.4 0.3,-0.41 0.31,-0.39 0.3,-0.39 0.31,-0.38 0.3,-0.38 0.31,-0.36 0.3,-0.36 0.3,-0.36 0.31,-0.35 0.3,-0.34 0.31,-0.34 0.3,-0.33 0.31,-0.32 0.3,-0.32 0.31,-0.31 0.3,-0.31 0.31,-0.3 0.3,-0.29 0.3,-0.3 0.31,-0.28 0.3,-0.28 0.31,-0.28 0.3,-0.27 0.31,-0.26 0.3,-0.27 0.31,-0.25 0.3,-0.25 0.31,-0.25 0.3,-0.24 0.3,-0.24 0.31,-0.24 0.3,-0.23 0.31,-0.22 0.3,-0.22 0.31,-0.22 0.3,-0.22 0.31,-0.21 0.3,-0.2 0.31,-0.21 0.3,-0.2 0.31,-0.19 0.3,-0.19 0.3,-0.19 0.31,-0.19 0.3,-0.18 0.31,-0.18 0.3,-0.17 0.31,-0.18 0.3,-0.17 0.31,-0.16 0.3,-0.17 0.31,-0.16 0.3,-0.15 0.3,-0.16 0.31,-0.15 0.3,-0.15 0.31,-0.15 0.3,-0.14 0.31,-0.14 0.3,-0.14 0.31,-0.14 0.3,-0.13 0.31,-0.13 0.3,-0.13 0.3,-0.13 0.31,-0.12 0.3,-0.13 0.31,-0.12 0.3,-0.12 0.31,-0.11 0.3,-0.12 0.31,-0.11 0.3,-0.11 0.31,-0.11 0.3,-0.1 0.31,-0.11 0.3,-0.1 0.3,-0.1 0.31,-0.1 0.3,-0.09 0.31,-0.1 0.3,-0.09 0.31,-0.09 0.3,-0.09 0.31,-0.09 0.3,-0.09 0.31,-0.09 0.3,-0.08 0.3,-0.08 0.31,-0.08 0.3,-0.08 0.31,-0.08 0.3,-0.08 0.31,-0.07 0.3,-0.08 0.31,-0.07 0.3,-0.07 0.31,-0.07 0.3,-0.07 0.3,-0.07 0.31,-0.06 0.3,-0.07 0.31,-0.06 0.3,-0.06 0.31,-0.07 0.3,-0.06 0.31,-0.06 0.3,-0.06 0.31,-0.05 0.3,-0.06 0.31,-0.05 0.3,-0.06 0.3,-0.05 0.31,-0.06 0.3,-0.05 0.31,-0.05 0.3,-0.05 0.31,-0.05 0.3,-0.04 0.31,-0.05 0.3,-0.05 0.31,-0.04 0.3,-0.05 0.3,-0.04 0.31,-0.04 0.3,-0.05 0.31,-0.04 0.3,-0.04 0.31,-0.04 0.3,-0.04 0.31,-0.04 0.3,-0.04 0.31,-0.03 0.3,-0.04 0.3,-0.03 0.31,-0.04 0.3,-0.04 0.31,-0.03 0.3,-0.03 0.31,-0.04 0.3,-0.03 0.31,-0.03 0.3,-0.03 0.31,-0.03 0.3,-0.03 0.31,-0.03 0.3,-0.03 0.3,-0.03 0.31,-0.03 0.3,-0.02 0.31,-0.03 0.3,-0.03 0.31,-0.02 0.3,-0.03 0.31,-0.02 0.3,-0.03 0.31,-0.02 0.3,-0.03 0.3,-0.02 0.31,-0.02 0.3,-0.02 0.31,-0.03 0.3,-0.02 0.31,-0.02 0.3,-0.02 0.31,-0.02 0.3,-0.02 0.31,-0.02 0.3,-0.02 0.31,-0.02 0.3,-0.02 0.3,-0.02 0.31,-0.02 0.3,-0.01 0.31,-0.02 0.3,-0.02 0.31,-0.02 0.3,-0.01 0.31,-0.02 0.3,-0.01 0.31,-0.02 0.3,-0.02 0.3,-0.01 0.31,-0.02 0.3,-0.01 0.31,-0.01 0.3,-0.02 0.31,-0.01 0.3,-0.02 0.31,-0.01 0.3,-0.01 0.31,-0.01 0.3,-0.02 0.3,-0.01 0.31,-0.01 0.3,-0.01 0.31,-0.02 0.3,-0.01 0.31,-0.01 0.3,-0.01 0.31,-0.01 0.3,-0.01 0.31,-0.01 0.3,-0.01 0.31,-0.01 0.3,-0.01 0.3,-0.01 0.31,-0.01 0.3,-0.01 0.31,-0.01 0.3,-0.01 0.31,-0.01 0.3,-0.01 0.31,-0.01 0.3,-0.01 h 0.31 l 0.3,-0.01 0.3,-0.01 0.31,-0.01 0.3,-0.01 h 0.31 l 0.3,-0.01 0.31,-0.01 0.3,-0.01 h 0.31 l 0.3,-0.01 0.31,-0.01 h 0.3 l 0.3,-0.01 0.31,-0.01 h 0.3 l 0.31,-0.01 h 0.3 l 0.31,-0.01 0.3,-0.01 h 0.31 l 0.3,-0.01 h 0.31 l 0.3,-0.01 0.31,-0.01 h 0.3 l 0.3,-0.01 h 0.31 l 0.3,-0.01 h 0.31 l 0.3,-0.01 h 0.31 l 0.3,-0.01 h 0.31 0.3 l 0.31,-0.01 h 0.3 l 0.3,-0.01 h 0.31 l 0.3,-0.01 h 0.31 0.3 l 0.31,-0.01 h 0.3 l 0.31,-0.01 h 0.3 0.31 l 0.3,-0.01 h 0.3 0.31 l 0.3,-0.01 h 0.31 0.3 l 0.31,-0.01 h 0.3 0.31 l 0.3,-0.01 h 0.31 0.3 0.31 l 0.3,-0.01 h 0.3 0.31 l 0.3,-0.01 h 0.31 0.3 0.31 l 0.3,-0.01 h 0.31 0.3 0.31 l 0.3,-0.01 h 0.3 0.31 0.3 0.31 l 0.3,-0.01 h 0.31 0.3 0.31 0.3 l 0.31,-0.01 h 0.3 0.3 0.31 0.3 l 0.31,-0.01 h 0.3 0.31 0.3 0.31 0.3 l 0.31,-0.01 h 0.3 0.31 0.3 0.3 0.31 0.3 l 0.31,-0.01 h 0.3 0.31 0.3 0.31 0.3 0.31 l 0.3,-0.01 h 0.3 0.31 0.3 0.31 0.3 0.31 0.3 0.31 l 0.3,-0.01 h 0.31 0.3 0.3 0.31 0.3 0.31 0.3 0.31 0.3 l 0.31,-0.01 h 0.3 0.31 0.3 0.31 0.3 0.3 0.31 0.3 0.31 0.3 0.31 0.3 l 0.31,-0.01 h 0.3 0.31 0.3 0.3 0.31 0.3 0.31 0.3 0.31 0.3 0.31 0.3 0.31 0.3 0.3 0.31 l 0.3,-0.01 h 0.31 0.3 0.31 0.3 0.31 0.3 0.31 0.3 0.31 0.3 0.3 0.31 0.3 0.31 0.3 0.31 0.3 0.31 0.3 0.31 0.3 0.3 0.31 l 0.3,-0.01 h 0.31 0.3 0.31 0.3 0.31 0.3 0.31 0.3 0.3 0.31 0.3 0.31 0.3 0.31 0.3 0.31 0.3 0.31 0.3 0.31 0.3 0.3 0.31 0.3 0.31 0.3 0.31 0.3 0.31 0.3 0.31 0.3 0.3 0.31 0.3 0.31 0.3 0.31 0.3 0.31 0.3 0.31 0.3 l 0.3,-0.01 h 0.31 0.3 0.31 0.3 0.31 0.3 0.31 0.3 0.31 0.3 0.31 0.3 0.3 0.31 0.3 0.31 0.3 0.31 0.3 0.31 0.3 0.31 0.3 0.3 0.31 0.3 0.31 0.3 0.31 0.3 0.31 0.3 0.31 0.3 0.3 0.31 0.3 0.31 0.3 0.31 0.3 0.31 0.3 0.31 0.3 0.31 0.3 0.3 0.31 0.3 0.31 0.3 0.31 0.3 0.31 0.3 0.31 0.3 0.3 0.31 0.3 0.31 0.3 0.31 0.3 0.31 0.3 0.31 0.3 0.3 0.31 0.3 0.31 0.3 0.31 0.3 0.31 0.3 0.31 0.3 0.31 0.3 0.3 0.31 0.3 0.31 0.3 0.31 0.3 0.31 0.3 0.31 0.3 0.3 0.31 0.3 0.31 0.3 0.31 0.3 0.31 0.3 0.31 0.3 0.3 0.31 0.3 0.31 0.3 0.31 0.3 0.31 0.3 0.31 0.3 0.31 0.3 0.3 0.31 0.3 0.31 0.3 0.31 0.3 0.31 0.3 0.31 0.3 0.3 0.31 0.3 0.31 0.3 0.31 0.3 0.31 0.3 0.31 0.3 0.3 0.31 0.3 0.31 0.3 0.31 0.3 0.31 0.3 0.31 0.3 0.31 0.3 0.3 0.31 0.3 0.31 0.3 0.31 0.3 0.31 0.3 0.31 0.3 0.3 0.31 0.3 0.31 0.3 0.31 0.3 0.31 0.3 0.31 0.3 0.3 0.31 0.3 0.31 0.3 0.31 0.3 0.31 0.3 0.31 0.3 0.31 0.3 0.3 0.31 0.3 0.31 0.3 0.31 0.3 0.31 0.3 0.31 0.3 0.3 0.31 0.3 0.31 0.3 0.31 0.3 0.31 0.3 0.31 0.3 0.3 0.31 0.3 0.31 0.3 0.31 0.3 0.31 0.3 0.31 0.3 0.31 0.3 0.3 0.31 0.3 0.31 0.3 0.31 0.3 0.31 0.3 0.31 0.3 0.3 0.31 0.3 0.31 0.3 0.31 0.3 0.31 0.3 0.31 0.3 0.3 0.31 0.3 0.31 0.3 0.31 0.3 0.31 0.3 0.31 0.3 0.31 0.3 0.3 0.31 0.3 0.31 0.3 0.31 0.3 0.31 0.3 0.31 0.3 0.3 0.31 0.3 0.31 0.3 0.31 0.3 0.31 0.3 0.31 0.3 0.31 0.3 0.3 0.31 0.3 0.31 0.3 0.31 0.3 0.31 0.3 0.31 0.3 0.3 0.31 0.3 0.31 0.3 0.31 0.3 0.31 0.3 0.31 0.3 0.3 0.31 0.3 0.31 0.3 0.31 0.3 0.31 0.3 0.31 0.3 0.31 0.3 0.3 0.31 0.3 0.31 0.3 0.31 0.3 0.31 0.3 0.31 0.3 0.3 0.31 0.3 0.31 0.3 0.31 0.3 0.31 0.3 0.31 0.3 0.3 0.31 0.3 0.31 0.3 0.31 0.3 0.31 0.3 0.31 0.3 0.31 0.3 0.3 0.31 0.3 0.31 0.3 0.31 0.3 0.31 0.3 0.31 0.3 0.3 0.31 0.3 0.31 0.3 0.31 0.3 0.31 0.3 0.31 0.3 0.3 0.31 0.3 0.31 0.3 0.31 0.3 0.31 0.3 0.31 0.3 0.31 0.3 0.3 0.31 0.3 0.31 0.3 0.31 0.3 0.31 0.3 0.31 0.3 0.3 0.31 0.3 0.31 0.3 0.31 0.3 0.31 0.3 0.31 0.3 0.3 0.31 0.3 0.31 0.3 0.31 0.3 0.31 0.3 0.31 0.3 0.31 0.3 0.3 0.31 0.3 0.31 0.3 0.31 0.3 0.31 0.3 0.31 0.3 0.3 0.31 0.3 0.31 0.3 0.31 0.3 0.31 0.3 0.31 0.3 0.3 0.31 0.3 0.31 0.3 0.31 0.3 0.31 0.3 0.31 0.3 0.31 0.3 0.3 0.31 0.3 0.31 0.3 0.31 0.3 0.31 0.3 0.31 0.3 0.3 0.31 0.3 0.31 0.3 0.31 0.3 0.31 0.3 0.31 0.3 0.3 0.31 0.3 0.31 0.3 0.31 0.3 0.31 0.3 0.31 0.3 0.31 0.3 0.3 0.31 0.3 0.31 0.3 0.31 0.3 0.31 0.3 0.31 0.3 0.3 0.31 0.3 0.31 0.3 0.31 0.3 0.31 0.3 0.31 0.3 0.3 0.31 0.3 0.31 0.3 0.31 0.3 0.31 0.3 0.31 0.3 0.31 0.3 0.3 0.31 0.3 0.31 0.3 0.31 0.3 0.31 0.3 0.31 0.3 0.3 0.31 0.3 0.31 0.3 0.31 0.3 0.31 0.3 0.31 0.3 0.3 0.31 0.3 0.31 0.3 0.31 0.3 0.31 0.3 0.31 0.3 0.31 0.3 0.3 0.31 0.3 0.31 0.3 0.31 0.3 0.31 0.3 0.31 0.3 0.3 0.31 0.3 0.31 0.3 0.31 0.3 0.31 0.3 0.31 0.3 0.3 0.31 0.3 0.31 0.3 0.31 0.3 0.31 0.3 0.31 0.3 0.31 0.3 0.3 0.31 0.3 0.31 0.3 0.31 0.3 0.31 0.3 0.31 0.3 0.3 0.31 0.3 0.31 0.3 0.31 0.3 0.31 0.3 0.31 0.3 0.3 0.31 0.3 0.31 0.3 0.31 0.3 0.31 0.3 0.31 0.3 0.31 0.3 0.3 0.31 0.3 0.31 0.3 0.31 0.3 0.31 0.3 0.31 0.3 0.3 0.31 0.3 0.31 0.3 0.31 0.3 0.31 0.3 0.31 0.3 0.3 0.31 0.3 0.31 0.3 0.31 0.3 0.31 0.3 0.31 0.3 0.31 0.3 0.3 0.31 0.3 0.31 0.3 0.31 0.3 0.31 0.3 0.31 0.3 0.3 0.31 0.3 0.31 0.3 0.31 0.3 0.31 0.3 0.31 0.3 0.3 0.31 0.3 0.31 0.3 0.31 0.3 0.31 0.3 0.31 0.3 0.31 0.3 0.3 0.31 0.3 0.31 0.3 0.31 0.3 0.31 0.3 0.31 0.3 0.3 0.31 0.3 0.31 0.3 0.31 0.3 0.31 0.3 0.31 0.3 0.3 0.31 0.3 0.31 0.3 0.31 0.3 0.31 0.3 0.31 0.3 0.31 0.3 0.3 0.31 0.3 0.31 0.3 0.31 0.3 0.31 0.3 0.31 0.3 0.3 0.31 0.3 0.31 0.3 0.31 0.3 0.31 0.3 0.31 0.3 0.3 0.31 0.3 0.31 0.3 0.31 0.3 0.31 0.3 0.31 0.3 0.31 0.3 0.3 0.31 0.3 0.31 0.3 0.31 0.3 0.31 0.3 0.31 0.3 0.3 0.31 0.3 0.31 0.3 0.31 0.3 0.31 0.3 0.31 0.3 0.3 0.31 0.3 0.31 0.3 0.31 0.3 0.31 0.3 0.31 0.3 0.31 0.3 0.3 0.31 0.3 0.31 0.3 0.31 0.3 0.31 0.3 0.31 0.3 0.3 0.31 0.3 0.31 0.3 0.31 0.3 0.31 0.3 0.31 0.3 0.3 0.31 0.3 0.31 0.3 0.31 0.3 0.31 0.3 0.31 0.3 0.31 0.3 0.3 0.31 0.3 0.31 0.3 0.31 0.3 0.31 0.3 0.31 0.3 0.3 0.31 0.3 0.31 0.3 0.31 0.3 0.31 0.3 0.31 0.3 0.31 0.3 0.3 0.31 0.3 0.31 0.3 0.31 0.3 0.31 0.3 0.31 0.3 0.3 0.31 0.3 0.31 0.3 0.31 0.3 0.31 0.3 0.31 0.3 0.3 0.31 0.3 0.31 0.3 0.31 0.3 0.31 0.3 0.31 0.3 0.31 0.3 0.3 0.31 0.3 0.31 0.3 0.31 0.3 0.31 0.3 0.31 0.3 0.3 0.31 0.3 0.31 0.3 0.31 0.3 0.31 0.3 0.31 0.3 0.3 0.31 0.3 0.31 0.3 0.31 0.3 0.31 0.3 0.31 0.3 0.31 0.3 0.3 0.31 0.3 0.31 0.3 0.31 0.3 0.31 0.3 0.31 0.3 0.3 0.31 0.3 0.31 0.3 0.31 0.3 0.31 0.3 0.31 0.3 0.3 0.31 0.3 0.31 0.3 0.31 0.3 0.31 0.3 0.31 0.3 0.31 0.3 0.3 0.31 0.3 0.31 0.3 0.31 0.3 0.31 0.3 0.31 0.3 0.3 0.31 0.3 0.31 0.3 0.31 0.3 0.31 0.3 0.31 0.3 0.3 0.31 0.3 0.31 0.3 0.31 0.3 0.31 0.3 0.31 0.3 0.31 0.3 0.3 0.31 0.3 0.31 0.3 0.31 0.3 0.31 0.3 0.31 0.3 0.3 0.31 0.3 0.31 0.3 0.31 0.3 0.31 0.3 0.31 0.3 0.3 0.31 0.3 0.31 0.3 0.31 0.3 0.31 0.3 0.31 0.3 0.31 0.3 0.3 0.31 0.3 0.31 0.3 0.31 0.3 0.31 0.3 0.31 0.3 0.3 0.31 0.3 0.31 0.3 0.31 0.3 0.31 0.3 0.31 0.3 0.3 0.31 0.3 0.31 0.3 0.31 0.3 0.31 0.3 0.31 0.3 0.31 0.3 0.3 0.31 0.3 0.31 0.3 0.31 0.3 0.31 0.3 0.31 0.3 0.3 0.31 0.3 0.31 0.3 0.31 0.3 0.31 0.3 0.31 0.3 0.3 0.31 0.3 0.31 0.3 0.31 0.3 0.31 0.3 0.31 0.3 0.31 0.3 0.3 0.31 0.3 0.31 0.3 0.31 0.3 0.31 0.3 0.31 0.3 0.3 0.31 0.3 0.31 0.3 0.31 0.3 0.31 0.3 0.31 0.3 0.3 0.31 0.3 0.31 0.3 0.31 0.3 0.31 0.3 0.31 0.3 0.31 0.3 0.3 0.31 0.3 0.31 0.3 0.31 0.3 0.31 0.3 0.31 0.3 0.3 0.31 0.3 0.31 0.3 0.31 0.3 0.31 0.3 0.31 0.3 0.3 0.31 0.3 0.31 0.3 0.31 0.3 0.31 0.3 0.31 0.3 0.31 0.3 0.3 0.31 0.3 0.31 0.3 0.31 0.3 0.31 0.3 0.31 0.3 0.3 0.31 0.3 0.31 0.3 0.31 0.3 0.31 0.3 0.31 0.3 0.3 0.31 0.3 0.31 0.3 0.31 0.3 0.31 0.3 0.31 0.3 0.31 0.3 0.3 0.31 0.3 0.31 0.3 0.31 0.3 0.31 0.3 0.31 0.3 0.3 0.31 0.3 0.31 0.3 0.31 0.3 0.31 0.3 0.31 0.3 0.3 0.31 0.3 0.31 0.3 0.31 0.3 0.31 0.3 0.31 0.3 0.31 0.3 0.3 0.31 0.3 0.31 0.3 0.31 0.3 0.31 0.3 0.31 0.3 0.3 0.31 0.3 0.31 0.3 0.31 0.3 0.31 0.3 0.31 0.3 0.3 0.31 0.3 0.31 0.3 0.31 0.3 0.31 0.3 0.31 0.3 0.31 0.3 0.3 0.31 0.3 0.31 0.3 0.31 0.3 0.31 0.3 0.31 0.3 0.3 0.31 0.3 0.31 0.3 0.31 0.3 0.31 0.3 0.31 0.3 0.3 0.31 0.3 0.31 0.3 0.31 0.3 0.31 0.3 0.31 0.3 0.31 0.3 0.3 0.31 0.3 0.31 0.3 0.31 0.3 0.31 0.3 0.31 0.3 0.3 0.31 0.3 0.31 0.3 0.31 0.3 0.31 0.3 0.31 0.3 0.3 0.31 0.3 0.31 0.3 0.31 0.3 0.31 0.3 0.31 0.3 0.31 0.3 0.3 0.31 0.3 0.31 0.3 0.31 0.3 0.31 0.3 0.31 0.3 0.3 0.31 0.3 0.31 0.3 0.31 0.3 0.31 0.3 0.31 0.3 0.3 0.31 0.3 0.31 0.3 0.31 0.3 0.31 0.3 0.31 0.3 0.31 0.3 0.3 0.31 0.3 0.31 0.3 0.31 0.3 0.31 0.3 0.31 0.3 0.3 0.31 0.3 0.31 0.3 0.31 0.3 0.31 0.3 0.31 0.3 0.3 0.31 0.3 0.31 0.3 0.31 0.3 0.31 0.3 0.31 0.3 0.31 0.3 0.3 0.31 0.3 0.31 0.3 0.31 0.3 0.31 0.3 0.31 0.3 0.3 0.31 0.3 0.31 0.3 0.31 0.3 0.31 0.3 0.31 0.3 0.31 0.3 0.3 0.31 0.3 0.31 0.3 0.31 0.3 0.31 0.3 0.31 0.3 0.3 0.31 0.3 0.31 0.3 0.31 0.3 0.31 0.3 0.31 0.3 0.3 0.31 0.3 0.31 0.3 0.31 0.3 0.31 0.3 0.31 0.3 0.31 0.3 0.3 0.31 0.3 0.31 0.3 0.31 0.3 0.31 0.3 0.31 0.3 0.3 0.31 0.3 0.31 0.3 0.31 0.3 0.31 0.3 0.31 0.3 0.3 0.31 0.3 0.31 0.3 0.31 0.3 0.31 0.3 0.31 0.3 0.31 0.3 0.3 0.31 0.3 0.31 0.3 0.31 0.3 0.31 0.3 0.31 0.3 0.3 0.31 0.3 0.31 0.3 0.31 0.3 0.31 0.3 0.31 0.3 0.3 0.31 0.3 0.31 0.3 0.31 0.3 0.31 0.3 0.31 0.3 0.31 0.3 0.3 0.31 0.3 0.31 0.3 0.31 0.3 0.31 0.3 0.31 0.3 0.3 0.31 0.3 0.31 0.3 0.31 0.3 0.31 0.3 0.31 0.3 0.3 0.31 0.3 0.31 0.3 0.31 0.3 0.31 0.3 0.31 0.3 0.31 0.3 0.3 0.31 0.3 0.31 0.3 0.31 0.3 0.31 0.3 0.31 0.3 0.3 0.31 0.3 0.31 0.3 0.31 0.3 0.31 0.3 0.31 0.3 0.3 0.31 0.3 0.31 0.3 0.31 0.3 0.31 0.3 0.31 0.3 0.31 0.3 0.3 0.31 0.3 0.31 0.3 0.31 0.3 0.31 0.3 0.31 0.3 0.3 0.31 0.3 0.31 0.3 0.31 0.3 0.31 0.3 0.31 0.3 0.3 0.31 0.3 0.31 0.3 0.31 0.3 0.31 0.3 0.31 0.3 0.31 0.3 0.3 0.31 0.3 0.31 0.3 0.31 0.3 0.31 0.3 0.31 0.3 0.3 0.31 0.3 0.31 0.3 0.31 0.3 0.31 0.3 0.31 0.3 0.3 0.31 0.3 0.31 0.3 0.31 0.3 0.31 0.3 0.31 0.3 0.31 0.3 0.3 0.31 0.3 0.31 0.3 0.31 0.3 0.31 0.3 0.31 0.3 0.3 0.31 0.3 0.31 0.3 0.31 0.3 0.31 0.3 0.31 0.3 0.3 0.31 0.3 0.31 0.3 0.31 0.3 0.31 0.3 0.31 0.3 0.31 0.3 0.3 0.31 0.3 0.31 0.3 0.31 0.3 0.31 0.3 0.31 0.3 0.3 0.31 0.3 0.31 0.3 0.31 0.3 0.31 0.3 0.31 0.3 0.3 0.31 0.3 0.31 0.3 0.31 0.3 0.31 0.3 0.31 0.3 0.31 0.3 0.3 0.31 0.3 0.31 0.3 0.31 0.3 0.31 0.3 0.31 0.3 0.3 0.31 0.3 0.31 0.3 0.31 0.3 0.31 0.3 0.31 0.3 0.3 0.31 0.3 0.31 0.3 0.31 0.3 0.31 0.3 0.31 0.3 0.31 0.3 0.3 0.31 0.3 0.31 0.3 0.31 0.3 0.31 0.3 0.31 0.3 0.3 0.31 0.3 0.31 0.3 0.31 0.3 0.31 0.3 0.31 0.3 0.3 0.31 0.3 0.31 0.3 0.31 0.3 0.31 0.3 0.31 0.3 0.31 0.3 0.3 0.31 0.3 0.31 0.3 0.31 0.3 0.31 0.3 0.31 0.3 0.3 0.31 0.3 0.31 0.3 0.31 0.3 0.31 0.3 0.31 0.3 0.3 0.31 0.3 0.31 0.3 0.31 0.3 0.31 0.3 0.31 0.3 0.31 0.3 0.3 0.31 0.3 0.31 0.3 0.31 0.3 0.31 0.3 0.31 0.3 0.3 0.31 0.3 0.31 0.3 0.31 0.3 0.31 0.3 0.31 0.3 0.3 0.31 0.3 0.31 0.3 0.31 0.3 0.31 0.3 0.31 0.3 0.31 0.3 0.3 0.31 0.3 0.31 0.3 0.31 0.3 0.31 0.3 0.31 0.3 0.3 0.31 0.3 0.31 0.3 0.31 0.3 0.31 0.3 0.31 0.3 0.3 0.31 0.3 0.31 0.3 0.31 0.3 0.31 0.3 0.31 0.3 0.31 0.3 0.3 0.31 0.3 0.31 0.3 0.31 0.3 0.31 0.3 0.31 0.3 0.3 0.31 0.3 0.31 0.3 0.31 0.3 0.31 0.3 0.31 0.3 0.3 0.31 0.3 0.31 0.3 0.31 0.3 0.31 0.3 0.31 0.3 0.31 0.3 0.3 0.31 0.3 0.31 0.3 0.31 0.3 0.31 0.3 0.31 0.3 0.3 0.31 0.3 0.31 0.3 0.31 0.3 0.31 0.3 0.31 0.3 0.31 0.3 0.3 0.31 0.3 0.31 0.3 0.31 0.3 0.31 0.3 0.31 0.3 0.3 0.31 0.3 0.31 0.3 0.31 0.3 0.31 0.3 0.31 0.3 0.3 0.31 0.3 0.31 0.3 0.31 0.3 0.31 0.3 0.31 0.3 0.31 0.3 0.3 0.31 0.3 0.31 0.3 0.31 0.3 0.31 0.3 0.31 0.3 0.3 0.31 0.3 0.31 0.3 0.31 0.3 0.31 0.3 0.31 0.3 0.3 0.31 0.3 0.31 0.3 0.31 0.3 0.31 0.3 0.31 0.3 0.31 0.3 0.3 0.31 0.3 0.31 0.3 0.31 0.3 0.31 0.3 0.31 0.3 0.3 0.31 0.3 0.31 0.3 0.31 0.3 0.31 0.3 0.31 0.3 0.3 0.31 0.3 0.31 0.3 0.31 0.3 0.31 0.3 0.31 0.3 0.31 0.3 0.3 0.31 0.3 0.31 0.3 0.31 0.3 0.31 0.3 0.31 0.3 0.3 0.31 0.3 0.31 0.3 0.31 0.3 0.31 0.3 0.31 0.3 0.3 0.31 0.3 0.31 0.3 0.31 0.3 0.31 0.3 0.31 0.3 0.31 0.3 0.3 0.31 0.3 0.31 0.3 0.31 0.3 0.31 0.3 0.31 0.3 0.3 0.31 0.3 0.31 0.3 0.31 0.3 0.31 0.3 0.31 0.3 0.3 0.31 0.3 0.31 0.3 0.31 0.3 0.31 0.3 0.31 0.3 0.31 0.3 0.3 0.31 0.3 0.31 0.3 0.31 0.3 0.31 0.3 0.31 0.3 0.3 0.31 0.3 0.31 0.3 0.31 0.3 0.31 0.3 0.31 0.3 0.3 0.31 0.3 0.31 0.3 0.31 0.3 0.31 0.3 0.31 0.3 0.31 0.3 0.3 0.31 0.3 0.31 0.3 0.31 0.3 0.31 0.3 0.31 0.3 0.3 0.31 0.3 0.31 0.3 0.31 0.3 0.31 0.3 0.31 0.3 0.3 0.31 0.3 0.31 0.3 0.31 0.3 0.31 0.3 0.31 0.3 0.31 0.3 0.3 0.31 0.3 0.31 0.3 0.31 0.3 0.31 0.3 0.31 0.3 0.3 0.31 0.3 0.31 0.3 0.31 0.3 0.31 0.3 0.31 0.3 0.3 0.31 0.3 0.31 0.3 0.31 0.3 0.31 0.3 0.31 0.3 0.31 0.3 0.3 0.31 0.3 0.31 0.3 0.31 0.3 0.31 0.3 0.31 0.3 0.3 0.31 0.3 0.31 0.3 0.31 0.3 0.31 0.3 0.31 0.3 0.3 0.31 0.3 0.31 0.3 0.31 0.3 0.31 0.3 0.31 0.3 0.31 0.3 0.3 0.31 0.3 0.31 0.3 0.31 0.3 0.31 0.3 0.31 0.3 0.3 0.31 0.3 0.31 0.3 0.31 0.3 0.31 0.3 0.31 0.3 0.3 0.31 0.3 0.31 0.3 0.31 0.3 0.31 0.3 0.31 0.3 0.31 0.3 0.3 0.31 0.3 0.31 0.3 0.31 0.3 0.31 0.3 0.31 0.3 0.3 0.31 0.3 0.31 0.3 0.31 0.3 0.31 0.3" /><path
           id="path82"
           style="fill:none;stroke:#e76bf3;stroke-width:4.25;stroke-linecap:butt;stroke-linejoin:round;stroke-miterlimit:1;stroke-dasharray:4.25, 12.76;stroke-dashoffset:0;stroke-opacity:1"
           d="m 205.89,815.61 0.3,-6.52 0.3,-6.45 0.31,-6.4 0.3,-6.34 0.31,-6.28 0.3,-6.23 0.31,-6.17 0.3,-6.12 0.31,-6.06 0.3,-6.01 0.31,-5.96 0.3,-5.9 0.3,-5.85 0.31,-5.79 0.3,-5.75 0.31,-5.69 0.3,-5.64 0.31,-5.6 0.3,-5.54 0.31,-5.49 0.3,-5.44 0.31,-5.4 0.3,-5.35 0.31,-5.3 0.3,-5.25 0.3,-5.2 0.31,-5.16 0.3,-5.11 0.31,-5.07 0.3,-5.02 0.31,-4.98 0.3,-4.93 0.31,-4.89 0.3,-4.85 0.31,-4.8 0.3,-4.76 0.3,-4.71 0.31,-4.68 0.3,-4.63 0.31,-4.59 0.3,-4.55 0.31,-4.51 0.3,-4.47 0.31,-4.43 0.3,-4.39 0.31,-4.35 0.3,-4.31 0.3,-4.27 0.31,-4.24 0.3,-4.19 0.31,-4.16 0.3,-4.13 0.31,-4.08 0.3,-4.05 0.31,-4.01 0.3,-3.98 0.31,-3.94 0.3,-3.91 0.31,-3.87 0.3,-3.84 0.3,-3.8 0.31,-3.77 0.3,-3.73 0.31,-3.71 0.3,-3.67 0.31,-3.63 0.3,-3.61 0.31,-3.57 0.3,-3.54 0.31,-3.5 0.3,-3.48 0.3,-3.45 0.31,-3.41 0.3,-3.39 0.31,-3.35 0.3,-3.32 0.31,-3.3 0.3,-3.26 0.31,-3.24 0.3,-3.21 0.31,-3.17 0.3,-3.15 0.3,-3.13 0.31,-3.09 0.3,-3.07 0.31,-3.04 0.3,-3.01 0.31,-2.98 0.3,-2.96 0.31,-2.93 0.3,-2.91 0.31,-2.88 0.3,-2.85 0.31,-2.83 0.3,-2.8 0.3,-2.78 0.31,-2.76 0.3,-2.72 0.31,-2.71 0.3,-2.68 0.31,-2.66 0.3,-2.63 0.31,-2.61 0.3,-2.58 0.31,-2.57 0.3,-2.54 0.3,-2.51 0.31,-2.5 0.3,-2.47 0.31,-2.45 0.3,-2.43 0.31,-2.41 0.3,-2.38 0.31,-2.37 0.3,-2.34 0.31,-2.32 0.3,-2.3 0.3,-2.28 0.31,-2.26 0.3,-2.24 0.31,-2.23 0.3,-2.2 0.31,-2.18 0.3,-2.16 0.31,-2.14 0.3,-2.12 0.31,-2.11 0.3,-2.08 0.31,-2.07 0.3,-2.05 0.3,-2.03 0.31,-2.01 0.3,-1.99 0.31,-1.98 0.3,-1.96 0.31,-1.94 0.3,-1.92 0.31,-1.91 0.3,-1.89 0.31,-1.87 0.3,-1.85 0.3,-1.84 0.31,-1.83 0.3,-1.8 0.31,-1.79 0.3,-1.78 0.31,-1.75 0.3,-1.75 0.31,-1.72 0.3,-1.72 0.31,-1.69 0.3,-1.68 0.3,-1.67 0.31,-1.65 0.3,-1.64 0.31,-1.62 0.3,-1.61 0.31,-1.59 0.3,-1.58 0.31,-1.57 0.3,-1.55 0.31,-1.53 0.3,-1.53 0.31,-1.51 0.3,-1.49 0.3,-1.49 0.31,-1.47 0.3,-1.45 0.31,-1.45 0.3,-1.43 0.31,-1.41 0.3,-1.41 0.31,-1.39 0.3,-1.38 0.31,-1.37 0.3,-1.36 0.3,-1.34 0.31,-1.33 0.3,-1.32 0.31,-1.31 0.3,-1.3 0.31,-1.28 0.3,-1.27 0.31,-1.27 0.3,-1.25 0.31,-1.24 0.3,-1.22 0.3,-1.22 0.31,-1.21 0.3,-1.19 0.31,-1.19 0.3,-1.17 0.31,-1.17 0.3,-1.15 0.31,-1.14 0.3,-1.14 0.31,-1.12 0.3,-1.11 0.31,-1.11 0.3,-1.09 0.3,-1.08 0.31,-1.08 0.3,-1.06 0.31,-1.06 0.3,-1.04 0.31,-1.04 0.3,-1.02 0.31,-1.02 0.3,-1.01 0.31,-1 0.3,-0.99 0.3,-0.98 0.31,-0.97 0.3,-0.97 0.31,-0.95 0.3,-0.95 0.31,-0.94 0.3,-0.93 0.31,-0.92 0.3,-0.92 0.31,-0.9 0.3,-0.9 0.3,-0.89 0.31,-0.88 0.3,-0.87 0.31,-0.87 0.3,-0.86 0.31,-0.85 0.3,-0.84 0.31,-0.83 0.3,-0.83 0.31,-0.82 0.3,-0.82 0.31,-0.8 0.3,-0.8 0.3,-0.79 0.31,-0.79 0.3,-0.77 0.31,-0.77 0.3,-0.77 0.31,-0.76 0.3,-0.75 0.31,-0.74 0.3,-0.74 0.31,-0.73 0.3,-0.72 0.3,-0.72 0.31,-0.71 0.3,-0.7 0.31,-0.7 0.3,-0.69 0.31,-0.69 0.3,-0.68 0.31,-0.67 0.3,-0.67 0.31,-0.66 0.3,-0.66 0.3,-0.65 0.31,-0.64 0.3,-0.64 0.31,-0.63 0.3,-0.63 0.31,-0.62 0.3,-0.61 0.31,-0.61 0.3,-0.61 0.31,-0.6 0.3,-0.59 0.31,-0.59 0.3,-0.58 0.3,-0.58 0.31,-0.58 0.3,-0.56 0.31,-0.57 0.3,-0.56 0.31,-0.55 0.3,-0.55 0.31,-0.54 0.3,-0.54 0.31,-0.53 0.3,-0.53 0.3,-0.52 0.31,-0.52 0.3,-0.52 0.31,-0.51 0.3,-0.5 0.31,-0.5 0.3,-0.5 0.31,-0.49 0.3,-0.49 0.31,-0.48 0.3,-0.48 0.3,-0.48 0.31,-0.47 0.3,-0.46 0.31,-0.47 0.3,-0.45 0.31,-0.46 0.3,-0.45 0.31,-0.44 0.3,-0.45 0.31,-0.43 0.3,-0.44 0.31,-0.43 0.3,-0.42 0.3,-0.43 0.31,-0.42 0.3,-0.41 0.31,-0.41 0.3,-0.41 0.31,-0.4 0.3,-0.4 0.31,-0.4 0.3,-0.39 0.31,-0.39 0.3,-0.39 0.3,-0.38 0.31,-0.38 0.3,-0.38 0.31,-0.37 0.3,-0.37 0.31,-0.37 0.3,-0.36 0.31,-0.36 0.3,-0.35 0.31,-0.36 0.3,-0.35 0.3,-0.34 0.31,-0.35 0.3,-0.34 0.31,-0.34 0.3,-0.33 0.31,-0.33 0.3,-0.33 0.31,-0.33 0.3,-0.32 0.31,-0.32 0.3,-0.32 0.31,-0.31 0.3,-0.31 0.3,-0.31 0.31,-0.31 0.3,-0.3 0.31,-0.3 0.3,-0.3 0.31,-0.29 0.3,-0.3 0.31,-0.29 0.3,-0.28 0.31,-0.29 0.3,-0.28 0.3,-0.28 0.31,-0.28 0.3,-0.27 0.31,-0.27 0.3,-0.27 0.31,-0.27 0.3,-0.27 0.31,-0.26 0.3,-0.26 0.31,-0.26 0.3,-0.25 0.31,-0.26 0.3,-0.25 0.3,-0.25 0.31,-0.24 0.3,-0.25 0.31,-0.24 0.3,-0.24 0.31,-0.24 0.3,-0.23 0.31,-0.24 0.3,-0.23 0.31,-0.23 0.3,-0.23 0.3,-0.22 0.31,-0.23 0.3,-0.22 0.31,-0.22 0.3,-0.21 0.31,-0.22 0.3,-0.21 0.31,-0.21 0.3,-0.21 0.31,-0.21 0.3,-0.21 0.3,-0.2 0.31,-0.21 0.3,-0.2 0.31,-0.2 0.3,-0.19 0.31,-0.2 0.3,-0.19 0.31,-0.19 0.3,-0.19 0.31,-0.19 0.3,-0.19 0.31,-0.18 0.3,-0.19 0.3,-0.18 0.31,-0.18 0.3,-0.18 0.31,-0.18 0.3,-0.17 0.31,-0.17 0.3,-0.18 0.31,-0.17 0.3,-0.17 0.31,-0.16 0.3,-0.17 0.3,-0.17 0.31,-0.16 0.3,-0.16 0.31,-0.16 0.3,-0.16 0.31,-0.16 0.3,-0.15 0.31,-0.16 0.3,-0.15 0.31,-0.15 0.3,-0.15 0.3,-0.15 0.31,-0.15 0.3,-0.15 0.31,-0.14 0.3,-0.15 0.31,-0.14 0.3,-0.14 0.31,-0.14 0.3,-0.14 0.31,-0.14 0.3,-0.13 0.31,-0.14 0.3,-0.13 0.3,-0.14 0.31,-0.13 0.3,-0.13 0.31,-0.13 0.3,-0.13 0.31,-0.12 0.3,-0.13 0.31,-0.12 0.3,-0.13 0.31,-0.12 0.3,-0.12 0.3,-0.12 0.31,-0.12 0.3,-0.12 0.31,-0.12 0.3,-0.11 0.31,-0.12 0.3,-0.11 0.31,-0.12 0.3,-0.11 0.31,-0.11 0.3,-0.11 0.3,-0.11 0.31,-0.11 0.3,-0.1 0.31,-0.11 0.3,-0.1 0.31,-0.11 0.3,-0.1 0.31,-0.1 0.3,-0.11 0.31,-0.1 0.3,-0.1 0.31,-0.09 0.3,-0.1 0.3,-0.1 0.31,-0.1 0.3,-0.09 0.31,-0.1 0.3,-0.09 0.31,-0.09 0.3,-0.09 0.31,-0.1 0.3,-0.09 0.31,-0.09 0.3,-0.08 0.3,-0.09 0.31,-0.09 0.3,-0.09 0.31,-0.08 0.3,-0.09 0.31,-0.08 0.3,-0.08 0.31,-0.09 0.3,-0.08 0.31,-0.08 0.3,-0.08 0.3,-0.08 0.31,-0.08 0.3,-0.08 0.31,-0.07 0.3,-0.08 0.31,-0.08 0.3,-0.07 0.31,-0.08 0.3,-0.07 0.31,-0.07 0.3,-0.08 0.31,-0.07 0.3,-0.07 0.3,-0.07 0.31,-0.07 0.3,-0.07 0.31,-0.07 0.3,-0.07 0.31,-0.07 0.3,-0.06 0.31,-0.07 0.3,-0.07 0.31,-0.06 0.3,-0.07 0.3,-0.06 0.31,-0.07 0.3,-0.06 0.31,-0.06 0.3,-0.06 0.31,-0.06 0.3,-0.07 0.31,-0.06 0.3,-0.06 0.31,-0.05 0.3,-0.06 0.3,-0.06 0.31,-0.06 0.3,-0.06 0.31,-0.05 0.3,-0.06 0.31,-0.06 0.3,-0.05 0.31,-0.06 0.3,-0.05 0.31,-0.05 0.3,-0.06 0.31,-0.05 0.3,-0.05 0.3,-0.05 0.31,-0.05 0.3,-0.06 0.31,-0.05 0.3,-0.05 0.31,-0.05 0.3,-0.04 0.31,-0.05 0.3,-0.05 0.31,-0.05 0.3,-0.05 0.3,-0.04 0.31,-0.05 0.3,-0.05 0.31,-0.04 0.3,-0.05 0.31,-0.04 0.3,-0.05 0.31,-0.04 0.3,-0.04 0.31,-0.05 0.3,-0.04 0.3,-0.04 0.31,-0.04 0.3,-0.05 0.31,-0.04 0.3,-0.04 0.31,-0.04 0.3,-0.04 0.31,-0.04 0.3,-0.04 0.31,-0.04 0.3,-0.04 0.31,-0.04 0.3,-0.03 0.3,-0.04 0.31,-0.04 0.3,-0.04 0.31,-0.03 0.3,-0.04 0.31,-0.04 0.3,-0.03 0.31,-0.04 0.3,-0.03 0.31,-0.04 0.3,-0.03 0.3,-0.04 0.31,-0.03 0.3,-0.03 0.31,-0.04 0.3,-0.03 0.31,-0.03 0.3,-0.04 0.31,-0.03 0.3,-0.03 0.31,-0.03 0.3,-0.03 0.3,-0.03 0.31,-0.04 0.3,-0.03 0.31,-0.03 0.3,-0.03 0.31,-0.03 0.3,-0.03 0.31,-0.02 0.3,-0.03 0.31,-0.03 0.3,-0.03 0.31,-0.03 0.3,-0.03 0.3,-0.02 0.31,-0.03 0.3,-0.03 0.31,-0.03 0.3,-0.02 0.31,-0.03 0.3,-0.02 0.31,-0.03 0.3,-0.03 0.31,-0.02 0.3,-0.03 0.3,-0.02 0.31,-0.03 0.3,-0.02 0.31,-0.03 0.3,-0.02 0.31,-0.02 0.3,-0.03 0.31,-0.02 0.3,-0.02 0.31,-0.03 0.3,-0.02 0.3,-0.02 0.31,-0.03 0.3,-0.02 0.31,-0.02 0.3,-0.02 0.31,-0.02 0.3,-0.03 0.31,-0.02 0.3,-0.02 0.31,-0.02 0.3,-0.02 0.31,-0.02 0.3,-0.02 0.3,-0.02 0.31,-0.02 0.3,-0.02 0.31,-0.02 0.3,-0.02 0.31,-0.02 0.3,-0.02 0.31,-0.02 0.3,-0.02 0.31,-0.01 0.3,-0.02 0.3,-0.02 0.31,-0.02 0.3,-0.02 0.31,-0.02 0.3,-0.01 0.31,-0.02 0.3,-0.02 0.31,-0.02 0.3,-0.01 0.31,-0.02 0.3,-0.02 0.3,-0.01 0.31,-0.02 0.3,-0.02 0.31,-0.01 0.3,-0.02 0.31,-0.01 0.3,-0.02 0.31,-0.01 0.3,-0.02 0.31,-0.02 0.3,-0.01 0.31,-0.02 0.3,-0.01 0.3,-0.02 0.31,-0.01 0.3,-0.01 0.31,-0.02 0.3,-0.01 0.31,-0.02 0.3,-0.01 0.31,-0.01 0.3,-0.02 0.31,-0.01 0.3,-0.02 0.3,-0.01 0.31,-0.01 0.3,-0.02 0.31,-0.01 0.3,-0.01 0.31,-0.01 0.3,-0.02 0.31,-0.01 0.3,-0.01 0.31,-0.01 0.3,-0.02 0.3,-0.01 0.31,-0.01 0.3,-0.01 0.31,-0.01 0.3,-0.02 0.31,-0.01 0.3,-0.01 0.31,-0.01 0.3,-0.01 0.31,-0.01 0.3,-0.01 0.31,-0.01 0.3,-0.02 0.3,-0.01 0.31,-0.01 0.3,-0.01 0.31,-0.01 0.3,-0.01 0.31,-0.01 0.3,-0.01 0.31,-0.01 0.3,-0.01 0.31,-0.01 0.3,-0.01 0.3,-0.01 0.31,-0.01 0.3,-0.01 0.31,-0.01 0.3,-0.01 0.31,-0.01 0.3,-0.01 h 0.31 l 0.3,-0.01 0.31,-0.01 0.3,-0.01 0.3,-0.01 0.31,-0.01 0.3,-0.01 0.31,-0.01 0.3,-0.01 h 0.31 l 0.3,-0.01 0.31,-0.01 0.3,-0.01 0.31,-0.01 0.3,-0.01 h 0.31 l 0.3,-0.01 0.3,-0.01 0.31,-0.01 h 0.3 l 0.31,-0.01 0.3,-0.01 0.31,-0.01 h 0.3 l 0.31,-0.01 0.3,-0.01 0.31,-0.01 h 0.3 l 0.3,-0.01 0.31,-0.01 0.3,-0.01 h 0.31 l 0.3,-0.01 0.31,-0.01 h 0.3 l 0.31,-0.01 0.3,-0.01 h 0.31 l 0.3,-0.01 0.3,-0.01 h 0.31 l 0.3,-0.01 h 0.31 l 0.3,-0.01 0.31,-0.01 h 0.3 l 0.31,-0.01 0.3,-0.01 h 0.31 l 0.3,-0.01 h 0.31 l 0.3,-0.01 h 0.3 l 0.31,-0.01 0.3,-0.01 h 0.31 l 0.3,-0.01 h 0.31 l 0.3,-0.01 h 0.31 l 0.3,-0.01 h 0.31 l 0.3,-0.01 h 0.3 l 0.31,-0.01 h 0.3 l 0.31,-0.01 h 0.3 l 0.31,-0.01 h 0.3 l 0.31,-0.01 h 0.3 l 0.31,-0.01 h 0.3 l 0.3,-0.01 h 0.31 l 0.3,-0.01 h 0.31 l 0.3,-0.01 h 0.31 l 0.3,-0.01 h 0.31 l 0.3,-0.01 h 0.31 0.3 l 0.31,-0.01 h 0.3 l 0.3,-0.01 h 0.31 0.3 l 0.31,-0.01 h 0.3 l 0.31,-0.01 h 0.3 l 0.31,-0.01 h 0.3 0.31 l 0.3,-0.01 h 0.3 0.31 l 0.3,-0.01 h 0.31 l 0.3,-0.01 h 0.31 0.3 l 0.31,-0.01 h 0.3 0.31 l 0.3,-0.01 h 0.3 0.31 l 0.3,-0.01 h 0.31 0.3 l 0.31,-0.01 h 0.3 0.31 l 0.3,-0.01 h 0.31 0.3 l 0.31,-0.01 h 0.3 0.3 l 0.31,-0.01 h 0.3 0.31 0.3 l 0.31,-0.01 h 0.3 0.31 l 0.3,-0.01 h 0.31 0.3 0.3 l 0.31,-0.01 h 0.3 0.31 l 0.3,-0.01 h 0.31 0.3 0.31 l 0.3,-0.01 h 0.31 0.3 0.3 l 0.31,-0.01 h 0.3 0.31 0.3 l 0.31,-0.01 h 0.3 0.31 0.3 l 0.31,-0.01 h 0.3 0.31 0.3 0.3 l 0.31,-0.01 h 0.3 0.31 0.3 l 0.31,-0.01 h 0.3 0.31 0.3 0.31 l 0.3,-0.01 h 0.3 0.31 0.3 0.31 l 0.3,-0.01 h 0.31 0.3 0.31 0.3 l 0.31,-0.01 h 0.3 0.31 0.3 0.3 0.31 l 0.3,-0.01 h 0.31 0.3 0.31 0.3 0.31 l 0.3,-0.01 h 0.31 0.3 0.3 0.31 0.3 l 0.31,-0.01 h 0.3 0.31 0.3 0.31 0.3 l 0.31,-0.01 h 0.3 0.3 0.31 0.3 0.31 0.3 l 0.31,-0.01 h 0.3 0.31 0.3 0.31 0.3 0.31 l 0.3,-0.01 h 0.3 0.31 0.3 0.31 0.3 0.31 0.3 l 0.31,-0.01 h 0.3 0.31 0.3 0.3 0.31 0.3 0.31 l 0.3,-0.01 h 0.31 0.3 0.31 0.3 0.31 0.3 0.3 0.31 l 0.3,-0.01 h 0.31 0.3 0.31 0.3 0.31 0.3 0.31 0.3 0.31 l 0.3,-0.01 h 0.3 0.31 0.3 0.31 0.3 0.31 0.3 0.31 0.3 0.31 l 0.3,-0.01 h 0.3 0.31 0.3 0.31 0.3 0.31 0.3 0.31 0.3 0.31 0.3 l 0.3,-0.01 h 0.31 0.3 0.31 0.3 0.31 0.3 0.31 0.3 0.31 0.3 0.31 0.3 l 0.3,-0.01 h 0.31 0.3 0.31 0.3 0.31 0.3 0.31 0.3 0.31 0.3 0.3 0.31 0.3 0.31 0.3 l 0.31,-0.01 h 0.3 0.31 0.3 0.31 0.3 0.3 0.31 0.3 0.31 0.3 0.31 0.3 0.31 0.3 0.31 0.3 l 0.31,-0.01 h 0.3 0.3 0.31 0.3 0.31 0.3 0.31 0.3 0.31 0.3 0.31 0.3 0.3 0.31 0.3 0.31 0.3 0.31 0.3 0.31 l 0.3,-0.01 h 0.31 0.3 0.3 0.31 0.3 0.31 0.3 0.31 0.3 0.31 0.3 0.31 0.3 0.31 0.3 0.3 0.31 0.3 0.31 0.3 0.31 0.3 0.31 0.3 0.31 l 0.3,-0.01 h 0.3 0.31 0.3 0.31 0.3 0.31 0.3 0.31 0.3 0.31 0.3 0.3 0.31 0.3 0.31 0.3 0.31 0.3 0.31 0.3 0.31 0.3 0.31 0.3 0.3 0.31 0.3 0.31 0.3 0.31 0.3 0.31 0.3 l 0.31,-0.01 h 0.3 0.3 0.31 0.3 0.31 0.3 0.31 0.3 0.31 0.3 0.31 0.3 0.3 0.31 0.3 0.31 0.3 0.31 0.3 0.31 0.3 0.31 0.3 0.31 0.3 0.3 0.31 0.3 0.31 0.3 0.31 0.3 0.31 0.3 0.31 0.3 0.3 0.31 0.3 0.31 0.3 0.31 0.3 0.31 0.3 0.31 0.3 l 0.3,-0.01 h 0.31 0.3 0.31 0.3 0.31 0.3 0.31 0.3 0.31 0.3 0.31 0.3 0.3 0.31 0.3 0.31 0.3 0.31 0.3 0.31 0.3 0.31 0.3 0.3 0.31 0.3 0.31 0.3 0.31 0.3 0.31 0.3 0.31 0.3 0.3 0.31 0.3 0.31 0.3 0.31 0.3 0.31 0.3 0.31 0.3 0.31 0.3 0.3 0.31 0.3 0.31 0.3 0.31 0.3 0.31 0.3 0.31 0.3 0.3 0.31 0.3 0.31 0.3 0.31 0.3 0.31 0.3 0.31 0.3 0.3 0.31 0.3 0.31 0.3 0.31 0.3 0.31 0.3 0.31 0.3 0.31 0.3 0.3 0.31 0.3 0.31 0.3 l 0.31,-0.01 h 0.3 0.31 0.3 0.31 0.3 0.3 0.31 0.3 0.31 0.3 0.31 0.3 0.31 0.3 0.31 0.3 0.3 0.31 0.3 0.31 0.3 0.31 0.3 0.31 0.3 0.31 0.3 0.31 0.3 0.3 0.31 0.3 0.31 0.3 0.31 0.3 0.31 0.3 0.31 0.3 0.3 0.31 0.3 0.31 0.3 0.31 0.3 0.31 0.3 0.31 0.3 0.3 0.31 0.3 0.31 0.3 0.31 0.3 0.31 0.3 0.31 0.3 0.31 0.3 0.3 0.31 0.3 0.31 0.3 0.31 0.3 0.31 0.3 0.31 0.3 0.3 0.31 0.3 0.31 0.3 0.31 0.3 0.31 0.3 0.31 0.3 0.3 0.31 0.3 0.31 0.3 0.31 0.3 0.31 0.3 0.31 0.3 0.31 0.3 0.3 0.31 0.3 0.31 0.3 0.31 0.3 0.31 0.3 0.31 0.3 0.3 0.31 0.3 0.31 0.3 0.31 0.3 0.31 0.3 0.31 0.3 0.3 0.31 0.3 0.31 0.3 0.31 0.3 0.31 0.3 0.31 0.3 0.31 0.3 0.3 0.31 0.3 0.31 0.3 0.31 0.3 0.31 0.3 0.31 0.3 0.3 0.31 0.3 0.31 0.3 0.31 0.3 0.31 0.3 0.31 0.3 0.3 0.31 0.3 0.31 0.3 0.31 0.3 0.31 0.3 0.31 0.3 0.31 0.3 0.3 0.31 0.3 0.31 0.3 0.31 0.3 0.31 0.3 0.31 0.3 0.3 0.31 0.3 0.31 0.3 0.31 0.3 0.31 0.3 0.31 0.3 0.3 0.31 0.3 0.31 0.3 0.31 0.3 0.31 0.3 0.31 0.3 0.31 0.3 0.3 0.31 0.3 0.31 0.3 0.31 0.3 0.31 0.3 0.31 0.3 0.3 0.31 0.3 0.31 0.3 0.31 0.3 0.31 0.3 0.31 0.3 0.31 0.3 0.3 0.31 0.3 0.31 0.3 0.31 0.3 0.31 0.3 0.31 0.3 0.3 0.31 0.3 0.31 0.3 0.31 0.3 0.31 0.3 0.31 0.3 0.3 0.31 0.3 0.31 0.3 0.31 0.3 0.31 0.3 0.31 0.3 0.31 0.3 0.3 0.31 0.3 0.31 0.3 0.31 0.3 0.31 0.3 0.31 0.3 0.3 0.31 0.3 0.31 0.3 0.31 0.3 0.31 0.3 0.31 0.3 0.3 0.31 0.3 0.31 0.3 0.31 0.3 0.31 0.3 0.31 0.3 0.31 0.3 0.3 0.31 0.3 0.31 0.3 0.31 0.3 0.31 0.3 0.31 0.3 0.3 0.31 0.3 0.31 0.3 0.31 0.3 0.31 0.3 0.31 0.3 0.3 0.31 0.3 0.31 0.3 0.31 0.3 0.31 0.3 0.31 0.3 0.31 0.3 0.3 0.31 0.3 0.31 0.3 0.31 0.3 0.31 0.3 0.31 0.3 0.3 0.31 0.3 0.31 0.3 0.31 0.3 0.31 0.3 0.31 0.3 0.3 0.31 0.3 0.31 0.3 0.31 0.3 0.31 0.3 0.31 0.3 0.31 0.3 0.3 0.31 0.3 0.31 0.3 0.31 0.3 0.31 0.3 0.31 0.3 0.3 0.31 0.3 0.31 0.3 0.31 0.3 0.31 0.3 0.31 0.3 0.3 0.31 0.3 0.31 0.3 0.31 0.3 0.31 0.3 0.31 0.3 0.31 0.3 0.3 0.31 0.3 0.31 0.3 0.31 0.3 0.31 0.3 0.31 0.3 0.3 0.31 0.3 0.31 0.3 0.31 0.3 0.31 0.3 0.31 0.3 0.3 0.31 0.3 0.31 0.3 0.31 0.3 0.31 0.3 0.31 0.3 0.31 0.3 0.3 0.31 0.3 0.31 0.3 0.31 0.3 0.31 0.3 0.31 0.3 0.3 0.31 0.3 0.31 0.3 0.31 0.3 0.31 0.3 0.31 0.3 0.3 0.31 0.3 0.31 0.3 0.31 0.3 0.31 0.3 0.31 0.3 0.31 0.3 0.3 0.31 0.3 0.31 0.3 0.31 0.3 0.31 0.3 0.31 0.3 0.3 0.31 0.3 0.31 0.3 0.31 0.3 0.31 0.3 0.31 0.3 0.3 0.31 0.3 0.31 0.3 0.31 0.3 0.31 0.3 0.31 0.3 0.31 0.3 0.3 0.31 0.3 0.31 0.3 0.31 0.3 0.31 0.3 0.31 0.3 0.3 0.31 0.3 0.31 0.3 0.31 0.3 0.31 0.3 0.31 0.3 0.3 0.31 0.3 0.31 0.3 0.31 0.3 0.31 0.3 0.31 0.3 0.31 0.3 0.3 0.31 0.3 0.31 0.3 0.31 0.3 0.31 0.3 0.31 0.3 0.3 0.31 0.3 0.31 0.3 0.31 0.3 0.31 0.3 0.31 0.3 0.3 0.31 0.3 0.31 0.3 0.31 0.3 0.31 0.3 0.31 0.3 0.31 0.3 0.3 0.31 0.3 0.31 0.3 0.31 0.3 0.31 0.3 0.31 0.3 0.3 0.31 0.3 0.31 0.3 0.31 0.3 0.31 0.3 0.31 0.3 0.3 0.31 0.3 0.31 0.3 0.31 0.3 0.31 0.3 0.31 0.3 0.31 0.3 0.3 0.31 0.3 0.31 0.3 0.31 0.3 0.31 0.3 0.31 0.3 0.3 0.31 0.3 0.31 0.3 0.31 0.3 0.31 0.3 0.31 0.3 0.3 0.31 0.3 0.31 0.3 0.31 0.3 0.31 0.3 0.31 0.3 0.31 0.3 0.3 0.31 0.3 0.31 0.3 0.31 0.3 0.31 0.3 0.31 0.3 0.3 0.31 0.3 0.31 0.3 0.31 0.3 0.31 0.3 0.31 0.3 0.3 0.31 0.3 0.31 0.3 0.31 0.3 0.31 0.3 0.31 0.3 0.31 0.3 0.3 0.31 0.3 0.31 0.3 0.31 0.3 0.31 0.3 0.31 0.3 0.3 0.31 0.3 0.31 0.3 0.31 0.3 0.31 0.3 0.31 0.3 0.3 0.31 0.3 0.31 0.3 0.31 0.3 0.31 0.3 0.31 0.3 0.31 0.3 0.3 0.31 0.3 0.31 0.3 0.31 0.3 0.31 0.3 0.31 0.3 0.3 0.31 0.3 0.31 0.3 0.31 0.3 0.31 0.3 0.31 0.3 0.3 0.31 0.3 0.31 0.3 0.31 0.3 0.31 0.3 0.31 0.3 0.31 0.3 0.3 0.31 0.3 0.31 0.3 0.31 0.3 0.31 0.3 0.31 0.3 0.3 0.31 0.3 0.31 0.3 0.31 0.3 0.31 0.3 0.31 0.3 0.3 0.31 0.3 0.31 0.3 0.31 0.3 0.31 0.3 0.31 0.3 0.31 0.3 0.3 0.31 0.3 0.31 0.3 0.31 0.3 0.31 0.3 0.31 0.3 0.3 0.31 0.3 0.31 0.3 0.31 0.3 0.31 0.3 0.31 0.3 0.31 0.3 0.3 0.31 0.3 0.31 0.3 0.31 0.3 0.31 0.3 0.31 0.3 0.3 0.31 0.3 0.31 0.3 0.31 0.3 0.31 0.3 0.31 0.3 0.3 0.31 0.3 0.31 0.3 0.31 0.3 0.31 0.3 0.31 0.3 0.31 0.3 0.3 0.31 0.3 0.31 0.3 0.31 0.3 0.31 0.3 0.31 0.3 0.3 0.31 0.3 0.31 0.3 0.31 0.3 0.31 0.3 0.31 0.3 0.3 0.31 0.3 0.31 0.3 0.31 0.3 0.31 0.3 0.31 0.3 0.31 0.3 0.3 0.31 0.3 0.31 0.3 0.31 0.3 0.31 0.3 0.31 0.3 0.3 0.31 0.3 0.31 0.3 0.31 0.3 0.31 0.3 0.31 0.3 0.3 0.31 0.3 0.31 0.3 0.31 0.3 0.31 0.3 0.31 0.3 0.31 0.3 0.3 0.31 0.3 0.31 0.3 0.31 0.3 0.31 0.3 0.31 0.3 0.3 0.31 0.3 0.31 0.3 0.31 0.3 0.31 0.3 0.31 0.3 0.3 0.31 0.3 0.31 0.3 0.31 0.3 0.31 0.3 0.31 0.3 0.31 0.3 0.3 0.31 0.3 0.31 0.3 0.31 0.3 0.31 0.3 0.31 0.3 0.3 0.31 0.3 0.31 0.3 0.31 0.3 0.31 0.3 0.31 0.3 0.3 0.31 0.3 0.31 0.3 0.31 0.3 0.31 0.3 0.31 0.3 0.31 0.3 0.3 0.31 0.3 0.31 0.3 0.31 0.3 0.31 0.3 0.31 0.3 0.3 0.31 0.3 0.31 0.3 0.31 0.3 0.31 0.3 0.31 0.3 0.3 0.31 0.3 0.31 0.3 0.31 0.3 0.31 0.3 0.31 0.3 0.31 0.3 0.3 0.31 0.3 0.31 0.3 0.31 0.3 0.31 0.3 0.31 0.3 0.3 0.31 0.3 0.31 0.3 0.31 0.3 0.31 0.3 0.31 0.3 0.3 0.31 0.3 0.31 0.3 0.31 0.3 0.31 0.3 0.31 0.3 0.31 0.3 0.3 0.31 0.3 0.31 0.3 0.31 0.3 0.31 0.3 0.31 0.3 0.3 0.31 0.3 0.31 0.3 0.31 0.3 0.31 0.3 0.31 0.3 0.3 0.31 0.3 0.31 0.3 0.31 0.3 0.31 0.3 0.31 0.3 0.31 0.3 0.3 0.31 0.3 0.31 0.3 0.31 0.3 0.31 0.3 0.31 0.3 0.3 0.31 0.3 0.31 0.3 0.31 0.3 0.31 0.3 0.31 0.3 0.3 0.31 0.3 0.31 0.3 0.31 0.3 0.31 0.3 0.31 0.3 0.31 0.3 0.3 0.31 0.3 0.31 0.3 0.31 0.3 0.31 0.3 0.31 0.3 0.3 0.31 0.3 0.31 0.3 0.31 0.3 0.31 0.3 0.31 0.3 0.3 0.31 0.3 0.31 0.3 0.31 0.3 0.31 0.3 0.31 0.3 0.31 0.3 0.3 0.31 0.3 0.31 0.3 0.31 0.3 0.31 0.3 0.31 0.3 0.3 0.31 0.3 0.31 0.3 0.31 0.3 0.31 0.3 0.31 0.3 0.3 0.31 0.3 0.31 0.3 0.31 0.3 0.31 0.3 0.31 0.3 0.31 0.3 0.3 0.31 0.3 0.31 0.3 0.31 0.3 0.31 0.3 0.31 0.3 0.3 0.31 0.3 0.31 0.3 0.31 0.3 0.31 0.3 0.31 0.3 0.3 0.31 0.3 0.31 0.3 0.31 0.3 0.31 0.3 0.31 0.3 0.31 0.3 0.3 0.31 0.3 0.31 0.3 0.31 0.3 0.31 0.3 0.31 0.3 0.3 0.31 0.3 0.31 0.3 0.31 0.3 0.31 0.3 0.31 0.3 0.3 0.31 0.3 0.31 0.3 0.31 0.3 0.31 0.3 0.31 0.3 0.31 0.3 0.3 0.31 0.3 0.31 0.3 0.31 0.3 0.31 0.3 0.31 0.3 0.3 0.31 0.3 0.31 0.3 0.31 0.3 0.31 0.3 0.31 0.3 0.3 0.31 0.3 0.31 0.3 0.31 0.3 0.31 0.3 0.31 0.3 0.31 0.3 0.3 0.31 0.3 0.31 0.3 0.31 0.3 0.31 0.3 0.31 0.3 0.3 0.31 0.3 0.31 0.3 0.31 0.3 0.31 0.3 0.31 0.3 0.3 0.31 0.3 0.31 0.3 0.31 0.3 0.31 0.3 0.31 0.3 0.31 0.3 0.3 0.31 0.3 0.31 0.3 0.31 0.3 0.31 0.3 0.31 0.3 0.3 0.31 0.3 0.31 0.3 0.31 0.3 0.31 0.3 0.31 0.3 0.31 0.3 0.3 0.31 0.3 0.31 0.3 0.31 0.3 0.31 0.3 0.31 0.3 0.3 0.31 0.3 0.31 0.3 0.31 0.3 0.31 0.3 0.31 0.3 0.3 0.31 0.3 0.31 0.3 0.31 0.3 0.31 0.3 0.31 0.3 0.31 0.3 0.3 0.31 0.3 0.31 0.3 0.31 0.3 0.31 0.3 0.31 0.3 0.3 0.31 0.3 0.31 0.3 0.31 0.3 0.31 0.3 0.31 0.3 0.3 0.31 0.3 0.31 0.3 0.31 0.3 0.31 0.3 0.31 0.3 0.31 0.3 0.3 0.31 0.3 0.31 0.3 0.31 0.3 0.31 0.3 0.31 0.3 0.3 0.31 0.3 0.31 0.3 0.31 0.3 0.31 0.3 0.31 0.3 0.3 0.31 0.3 0.31 0.3 0.31 0.3 0.31 0.3 0.31 0.3 0.31 0.3 0.3 0.31 0.3 0.31 0.3 0.31 0.3 0.31 0.3 0.31 0.3 0.3 0.31 0.3 0.31 0.3 0.31 0.3 0.31 0.3 0.31 0.3 0.3 0.31 0.3 0.31 0.3 0.31 0.3 0.31 0.3 0.31 0.3 0.31 0.3 0.3 0.31 0.3 0.31 0.3 0.31 0.3 0.31 0.3 0.31 0.3 0.3 0.31 0.3 0.31 0.3 0.31 0.3 0.31 0.3 0.31 0.3 0.3 0.31 0.3 0.31 0.3 0.31 0.3 0.31 0.3 0.31 0.3 0.31 0.3 0.3 0.31 0.3 0.31 0.3 0.31 0.3 0.31 0.3 0.31 0.3 0.3 0.31 0.3 0.31 0.3 0.31 0.3 0.31 0.3 0.31 0.3 0.3 0.31 0.3 0.31 0.3 0.31 0.3 0.31 0.3 0.31 0.3 0.31 0.3 0.3 0.31 0.3 0.31 0.3 0.31 0.3 0.31 0.3 0.31 0.3 0.3 0.31 0.3 0.31 0.3 0.31 0.3 0.31 0.3 0.31 0.3 0.3 0.31 0.3 0.31 0.3 0.31 0.3 0.31 0.3 0.31 0.3 0.31 0.3 0.3 0.31 0.3 0.31 0.3 0.31 0.3 0.31 0.3 0.31 0.3 0.3 0.31 0.3 0.31 0.3 0.31 0.3 0.31 0.3 0.31 0.3 0.3 0.31 0.3 0.31 0.3 0.31 0.3 0.31 0.3 0.31 0.3 0.31 0.3 0.3 0.31 0.3 0.31 0.3 0.31 0.3 0.31 0.3 0.31 0.3 0.3 0.31 0.3 0.31 0.3 0.31 0.3 0.31 0.3 0.31 0.3 0.3 0.31 0.3 0.31 0.3 0.31 0.3 0.31 0.3 0.31 0.3 0.31 0.3 0.3 0.31 0.3 0.31 0.3 0.31 0.3 0.31 0.3 0.31 0.3 0.3 0.31 0.3 0.31 0.3 0.31 0.3 0.31 0.3 0.31 0.3 0.3 0.31 0.3 0.31 0.3 0.31 0.3 0.31 0.3 0.31 0.3 0.31 0.3 0.3 0.31 0.3 0.31 0.3 0.31 0.3 0.31 0.3 0.31 0.3 0.3 0.31 0.3 0.31 0.3 0.31 0.3 0.31 0.3" /></g></g><g
       id="g84" /><g
       id="g86" /><g
       id="g88"><text
         id="text92"
         style="font-variant:normal;font-weight:normal;font-size:40px;font-family:Helvetica;-inkscape-font-specification:Helvetica;writing-mode:lr-tb;fill:#000000;fill-opacity:1;fill-rule:nonzero;stroke:none"
         transform="matrix(1,0,0,-1,72.54,144.7)"><tspan
           id="tspan90"
           y="0"
           x="0 22.24 44.48">10%</tspan></text>
<text
         id="text96"
         style="font-variant:normal;font-weight:normal;font-size:40px;font-family:Helvetica;-inkscape-font-specification:Helvetica;writing-mode:lr-tb;fill:#000000;fill-opacity:1;fill-rule:nonzero;stroke:none"
         transform="matrix(1,0,0,-1,72.54,217.65)"><tspan
           id="tspan94"
           y="0"
           x="0 22.24 44.48">20%</tspan></text>
<text
         id="text100"
         style="font-variant:normal;font-weight:normal;font-size:40px;font-family:Helvetica;-inkscape-font-specification:Helvetica;writing-mode:lr-tb;fill:#000000;fill-opacity:1;fill-rule:nonzero;stroke:none"
         transform="matrix(1,0,0,-1,72.54,290.6)"><tspan
           id="tspan98"
           y="0"
           x="0 22.24 44.48">30%</tspan></text>
<text
         id="text104"
         style="font-variant:normal;font-weight:normal;font-size:40px;font-family:Helvetica;-inkscape-font-specification:Helvetica;writing-mode:lr-tb;fill:#000000;fill-opacity:1;fill-rule:nonzero;stroke:none"
         transform="matrix(1,0,0,-1,72.54,363.55)"><tspan
           id="tspan102"
           y="0"
           x="0 22.24 44.48">40%</tspan></text>
<text
         id="text108"
         style="font-variant:normal;font-weight:normal;font-size:40px;font-family:Helvetica;-inkscape-font-specification:Helvetica;writing-mode:lr-tb;fill:#000000;fill-opacity:1;fill-rule:nonzero;stroke:none"
         transform="matrix(1,0,0,-1,72.54,436.5)"><tspan
           id="tspan106"
           y="0"
           x="0 22.24 44.48">50%</tspan></text>
<text
         id="text112"
         style="font-variant:normal;font-weight:normal;font-size:40px;font-family:Helvetica;-inkscape-font-specification:Helvetica;writing-mode:lr-tb;fill:#000000;fill-opacity:1;fill-rule:nonzero;stroke:none"
         transform="matrix(1,0,0,-1,72.54,509.45)"><tspan
           id="tspan110"
           y="0"
           x="0 22.24 44.48">60%</tspan></text>
<text
         id="text116"
         style="font-variant:normal;font-weight:normal;font-size:40px;font-family:Helvetica;-inkscape-font-specification:Helvetica;writing-mode:lr-tb;fill:#000000;fill-opacity:1;fill-rule:nonzero;stroke:none"
         transform="matrix(1,0,0,-1,72.54,582.4)"><tspan
           id="tspan114"
           y="0"
           x="0 22.24 44.48">70%</tspan></text>
<text
         id="text120"
         style="font-variant:normal;font-weight:normal;font-size:40px;font-family:Helvetica;-inkscape-font-specification:Helvetica;writing-mode:lr-tb;fill:#000000;fill-opacity:1;fill-rule:nonzero;stroke:none"
         transform="matrix(1,0,0,-1,72.54,655.35)"><tspan
           id="tspan118"
           y="0"
           x="0 22.24 44.48">80%</tspan></text>
<text
         id="text124"
         style="font-variant:normal;font-weight:normal;font-size:40px;font-family:Helvetica;-inkscape-font-specification:Helvetica;writing-mode:lr-tb;fill:#000000;fill-opacity:1;fill-rule:nonzero;stroke:none"
         transform="matrix(1,0,0,-1,72.54,728.3)"><tspan
           id="tspan122"
           y="0"
           x="0 22.24 44.48">90%</tspan></text>
<text
         id="text128"
         style="font-variant:normal;font-weight:normal;font-size:40px;font-family:Helvetica;-inkscape-font-specification:Helvetica;writing-mode:lr-tb;fill:#000000;fill-opacity:1;fill-rule:nonzero;stroke:none"
         transform="matrix(1,0,0,-1,50.3,801.25)"><tspan
           id="tspan126"
           y="0"
           x="0 22.24 44.48 66.720001">100%</tspan></text>
</g><g
       id="g130" /><g
       id="g132"><path
         id="path134"
         style="fill:none;stroke:#7f7f7f;stroke-width:1.05999994;stroke-linecap:butt;stroke-linejoin:round;stroke-miterlimit:10;stroke-dasharray:none;stroke-opacity:1"
         d="m 155.41,159.06 h 4.26" /><path
         id="path136"
         style="fill:none;stroke:#7f7f7f;stroke-width:1.05999994;stroke-linecap:butt;stroke-linejoin:round;stroke-miterlimit:10;stroke-dasharray:none;stroke-opacity:1"
         d="m 155.41,232.01 h 4.26" /><path
         id="path138"
         style="fill:none;stroke:#7f7f7f;stroke-width:1.05999994;stroke-linecap:butt;stroke-linejoin:round;stroke-miterlimit:10;stroke-dasharray:none;stroke-opacity:1"
         d="m 155.41,304.96 h 4.26" /><path
         id="path140"
         style="fill:none;stroke:#7f7f7f;stroke-width:1.05999994;stroke-linecap:butt;stroke-linejoin:round;stroke-miterlimit:10;stroke-dasharray:none;stroke-opacity:1"
         d="m 155.41,377.91 h 4.26" /><path
         id="path142"
         style="fill:none;stroke:#7f7f7f;stroke-width:1.05999994;stroke-linecap:butt;stroke-linejoin:round;stroke-miterlimit:10;stroke-dasharray:none;stroke-opacity:1"
         d="m 155.41,450.86 h 4.26" /><path
         id="path144"
         style="fill:none;stroke:#7f7f7f;stroke-width:1.05999994;stroke-linecap:butt;stroke-linejoin:round;stroke-miterlimit:10;stroke-dasharray:none;stroke-opacity:1"
         d="m 155.41,523.81 h 4.26" /><path
         id="path146"
         style="fill:none;stroke:#7f7f7f;stroke-width:1.05999994;stroke-linecap:butt;stroke-linejoin:round;stroke-miterlimit:10;stroke-dasharray:none;stroke-opacity:1"
         d="m 155.41,596.76 h 4.26" /><path
         id="path148"
         style="fill:none;stroke:#7f7f7f;stroke-width:1.05999994;stroke-linecap:butt;stroke-linejoin:round;stroke-miterlimit:10;stroke-dasharray:none;stroke-opacity:1"
         d="m 155.41,669.71 h 4.26" /><path
         id="path150"
         style="fill:none;stroke:#7f7f7f;stroke-width:1.05999994;stroke-linecap:butt;stroke-linejoin:round;stroke-miterlimit:10;stroke-dasharray:none;stroke-opacity:1"
         d="m 155.41,742.66 h 4.26" /><path
         id="path152"
         style="fill:none;stroke:#7f7f7f;stroke-width:1.05999994;stroke-linecap:butt;stroke-linejoin:round;stroke-miterlimit:10;stroke-dasharray:none;stroke-opacity:1"
         d="m 155.41,815.61 h 4.26" /></g><g
       id="g154" /><g
       id="g156" /><g
       id="g158" /><g
       id="g160" /><g
       id="g162" /><g
       id="g164"><path
         id="path166"
         style="fill:none;stroke:#7f7f7f;stroke-width:1.05999994;stroke-linecap:butt;stroke-linejoin:round;stroke-miterlimit:10;stroke-dasharray:none;stroke-opacity:1"
         d="m 205.89,81.85 v 4.26" /><path
         id="path168"
         style="fill:none;stroke:#7f7f7f;stroke-width:1.05999994;stroke-linecap:butt;stroke-linejoin:round;stroke-miterlimit:10;stroke-dasharray:none;stroke-opacity:1"
         d="m 510.46,81.85 v 4.26" /><path
         id="path170"
         style="fill:none;stroke:#7f7f7f;stroke-width:1.05999994;stroke-linecap:butt;stroke-linejoin:round;stroke-miterlimit:10;stroke-dasharray:none;stroke-opacity:1"
         d="m 815.03,81.85 v 4.26" /><path
         id="path172"
         style="fill:none;stroke:#7f7f7f;stroke-width:1.05999994;stroke-linecap:butt;stroke-linejoin:round;stroke-miterlimit:10;stroke-dasharray:none;stroke-opacity:1"
         d="m 1119.6,81.85 v 4.26" /></g><g
       id="g174" /><g
       id="g176"><text
         id="text180"
         style="font-variant:normal;font-weight:normal;font-size:40px;font-family:Helvetica;-inkscape-font-specification:Helvetica;writing-mode:lr-tb;fill:#000000;fill-opacity:1;fill-rule:nonzero;stroke:none"
         transform="matrix(1,0,0,-1,194.77,50.3)"><tspan
           id="tspan178"
           y="0"
           x="0">0</tspan></text>
<text
         id="text184"
         style="font-variant:normal;font-weight:normal;font-size:40px;font-family:Helvetica;-inkscape-font-specification:Helvetica;writing-mode:lr-tb;fill:#000000;fill-opacity:1;fill-rule:nonzero;stroke:none"
         transform="matrix(1,0,0,-1,465.98,50.3)"><tspan
           id="tspan182"
           y="0"
           x="0 22.24 44.48 66.720001">1000</tspan></text>
<text
         id="text188"
         style="font-variant:normal;font-weight:normal;font-size:40px;font-family:Helvetica;-inkscape-font-specification:Helvetica;writing-mode:lr-tb;fill:#000000;fill-opacity:1;fill-rule:nonzero;stroke:none"
         transform="matrix(1,0,0,-1,770.55,50.3)"><tspan
           id="tspan186"
           y="0"
           x="0 22.24 44.48 66.720001">2000</tspan></text>
<text
         id="text192"
         style="font-variant:normal;font-weight:normal;font-size:40px;font-family:Helvetica;-inkscape-font-specification:Helvetica;writing-mode:lr-tb;fill:#000000;fill-opacity:1;fill-rule:nonzero;stroke:none"
         transform="matrix(1,0,0,-1,1075.12,50.3)"><tspan
           id="tspan190"
           y="0"
           x="0 22.24 44.48 66.720001">3000</tspan></text>
</g><g
       id="g194" /><g
       id="g196" /><g
       id="g198" /><g
       id="g200" /><g
       id="g202"><text
         id="text206"
         style="font-variant:normal;font-weight:normal;font-size:50px;font-family:Helvetica;-inkscape-font-specification:Helvetica;writing-mode:lr-tb;fill:#000000;fill-opacity:1;fill-rule:nonzero;stroke:none"
         transform="matrix(1,0,0,-1,600.25,10.8)"><tspan
           id="tspan204"
           y="0"
           x="0 16.15 43.950001 71.75 96.75 110.65">rank k</tspan></text>
</g><g
       id="g208" /><g
       id="g210"><text
         id="text214"
         style="font-variant:normal;font-weight:normal;font-size:50px;font-family:Helvetica;-inkscape-font-specification:Helvetica;writing-mode:lr-tb;fill:#000000;fill-opacity:1;fill-rule:nonzero;stroke:none"
         transform="matrix(0,1,1,0,46.7,215.82)"><tspan
           id="tspan212"
           y="0"
           x="0 36.099998 63.900002 105.05 132.85001 143.95 171.75 185.64999 196.75 220.5 248.3 262.20001 276.10001 292.75 320.54999 348.35001 376.14999 403.95001 431.75 456.75">Cumulative frequency</tspan></text>
</g><g
       id="g216" /><g
       id="g218" /><g
       id="g220" /><g
       id="g222" /><g
       id="g224" /><g
       id="g226"><path
         id="path228"
         style="fill:#ffffff;fill-opacity:1;fill-rule:nonzero;stroke:none"
         d="m 824.53,520.96 h 341.92 V 817.25 H 824.53 Z" /></g><g
       id="g230" /><g
       id="g232" /><g
       id="g234" /><g
       id="g236"><path
         id="path238"
         style="fill:none;stroke:#ffffff;stroke-width:1.05999994;stroke-linecap:round;stroke-linejoin:round;stroke-miterlimit:10;stroke-dasharray:none;stroke-opacity:1"
         d="m 828.78,751.98 h 56.69 v 56.69 h -56.69 z" /></g><g
       id="g240" /><g
       id="g242"><path
         id="path244"
         style="fill:none;stroke:#f8766d;stroke-width:4.25;stroke-linecap:butt;stroke-linejoin:round;stroke-miterlimit:10;stroke-dasharray:none;stroke-opacity:1"
         d="M 834.45,780.33 H 879.8" /></g><g
       id="g246" /><g
       id="g248"><path
         id="path250"
         style="fill:none;stroke:#ffffff;stroke-width:1.05999994;stroke-linecap:round;stroke-linejoin:round;stroke-miterlimit:10;stroke-dasharray:none;stroke-opacity:1"
         d="m 828.78,695.29 h 56.69 v 56.69 h -56.69 z" /></g><g
       id="g252" /><g
       id="g254"><path
         id="path256"
         style="fill:none;stroke:#a3a500;stroke-width:4.25;stroke-linecap:butt;stroke-linejoin:round;stroke-miterlimit:10;stroke-dasharray:8.5, 8.5;stroke-dashoffset:0;stroke-opacity:1"
         d="M 834.45,723.63 H 879.8" /></g><g
       id="g258" /><g
       id="g260"><path
         id="path262"
         style="fill:none;stroke:#ffffff;stroke-width:1.05999994;stroke-linecap:round;stroke-linejoin:round;stroke-miterlimit:10;stroke-dasharray:none;stroke-opacity:1"
         d="m 828.78,638.59 h 56.69 v 56.69 h -56.69 z" /></g><g
       id="g264" /><g
       id="g266"><path
         id="path268"
         style="fill:none;stroke:#00bf7d;stroke-width:4.25;stroke-linecap:butt;stroke-linejoin:round;stroke-miterlimit:10;stroke-dasharray:17.01, 8.5;stroke-dashoffset:0;stroke-opacity:1"
         d="M 834.45,666.94 H 879.8" /></g><g
       id="g270" /><g
       id="g272"><path
         id="path274"
         style="fill:none;stroke:#ffffff;stroke-width:1.05999994;stroke-linecap:round;stroke-linejoin:round;stroke-miterlimit:10;stroke-dasharray:none;stroke-opacity:1"
         d="m 828.78,581.9 h 56.69 v 56.69 h -56.69 z" /></g><g
       id="g276" /><g
       id="g278"><path
         id="path280"
         style="fill:none;stroke:#00b0f6;stroke-width:4.25;stroke-linecap:butt;stroke-linejoin:round;stroke-miterlimit:10;stroke-dasharray:17.01, 17.01;stroke-dashoffset:0;stroke-opacity:1"
         d="M 834.45,610.25 H 879.8" /></g><g
       id="g282" /><g
       id="g284"><path
         id="path286"
         style="fill:none;stroke:#ffffff;stroke-width:1.05999994;stroke-linecap:round;stroke-linejoin:round;stroke-miterlimit:10;stroke-dasharray:none;stroke-opacity:1"
         d="m 828.78,525.21 h 56.69 v 56.69 h -56.69 z" /></g><g
       id="g288" /><g
       id="g290"><path
         id="path292"
         style="fill:none;stroke:#e76bf3;stroke-width:4.25;stroke-linecap:butt;stroke-linejoin:round;stroke-miterlimit:10;stroke-dasharray:4.25, 12.76;stroke-dashoffset:0;stroke-opacity:1"
         d="M 834.45,553.56 H 879.8" /></g><g
       id="g294" /><g
       id="g296"><text
         id="text300"
         style="font-variant:normal;font-weight:normal;font-size:40px;font-family:Helvetica;-inkscape-font-specification:Helvetica;writing-mode:lr-tb;fill:#000000;fill-opacity:1;fill-rule:nonzero;stroke:none"
         transform="matrix(1,0,0,-1,887.63,765.97)"><tspan
           id="tspan298"
           y="0"
           x="0 33.32 55.560001 64.440002 75.559998 84.440002 115.56 126.68 146.67999 170.03999">MultiQ c=2</tspan></text>
</g><g
       id="g302" /><g
       id="g304"><text
         id="text308"
         style="font-variant:normal;font-weight:normal;font-size:40px;font-family:Helvetica;-inkscape-font-specification:Helvetica;writing-mode:lr-tb;fill:#000000;fill-opacity:1;fill-rule:nonzero;stroke:none"
         transform="matrix(1,0,0,-1,887.63,709.27)"><tspan
           id="tspan306"
           y="0"
           x="0 33.32 55.560001 64.440002 75.559998 84.440002 115.56 126.68 146.67999 170.03999">MultiQ c=4</tspan></text>
</g><g
       id="g310" /><g
       id="g312"><text
         id="text316"
         style="font-variant:normal;font-weight:normal;font-size:40px;font-family:Helvetica;-inkscape-font-specification:Helvetica;writing-mode:lr-tb;fill:#000000;fill-opacity:1;fill-rule:nonzero;stroke:none"
         transform="matrix(1,0,0,-1,887.63,652.58)"><tspan
           id="tspan314"
           y="0"
           x="0 26.68 48.919998 61.84 82.879997 102.88 111.76 120.64 140.64">Spraylist</tspan></text>
</g><g
       id="g318" /><g
       id="g320"><text
         id="text324"
         style="font-variant:normal;font-weight:normal;font-size:40px;font-family:Helvetica;-inkscape-font-specification:Helvetica;writing-mode:lr-tb;fill:#000000;fill-opacity:1;fill-rule:nonzero;stroke:none"
         transform="matrix(1,0,0,-1,887.63,595.89)"><tspan
           id="tspan322"
           y="0"
           x="0 24.440001 46.68 68.919998 91.160004 104.48 126.72 137.84 146.72 166.72 188.96001 197.84 208.96001 228.96001 252.32001">Theoretical c=2</tspan></text>
</g><g
       id="g326" /><g
       id="g328"><text
         id="text332"
         style="font-variant:normal;font-weight:normal;font-size:40px;font-family:Helvetica;-inkscape-font-specification:Helvetica;writing-mode:lr-tb;fill:#000000;fill-opacity:1;fill-rule:nonzero;stroke:none"
         transform="matrix(1,0,0,-1,887.63,539.2)"><tspan
           id="tspan330"
           y="0"
           x="0 24.440001 46.68 68.919998 91.160004 104.48 126.72 137.84 146.72 166.72 188.96001 197.84 208.96001 228.96001 252.32001">Theoretical c=4</tspan></text>
</g><g
       id="g334" /><g
       id="g336" /><g
       id="g338" /><g
       id="g340" /><g
       id="g342" /><g
       id="g344" /><g
       id="g346" /><g
       id="g348" /><g
       id="g350" /><g
       id="g352" /><g
       id="g354" /><g
       id="g356" /><g
       id="g358" /><g
       id="g360" /><g
       id="g362" /><g
       id="g364" /><g
       id="g366" /><g
       id="g368" /><g
       id="g370" /><g
       id="g372" /></g></svg>