<?xml version="1.0" encoding="UTF-8"?>
<!DOCTYPE svg PUBLIC "-//W3C//DTD SVG 1.1//EN" "http://www.w3.org/Graphics/SVG/1.1/DTD/svg11.dtd">
<svg xmlns="http://www.w3.org/2000/svg" xmlns:xlink="http://www.w3.org/1999/xlink" version="1.1" width="662px" height="387px" viewBox="-0.5 -0.5 662 387"><defs/><g><ellipse cx="198" cy="187" rx="44" ry="44" fill="#99ccff" stroke="rgb(240, 240, 240)" stroke-width="1.1" pointer-events="none"/><ellipse cx="198" cy="187" rx="41.25" ry="41.25" fill="none" stroke="rgb(240, 240, 240)" stroke-width="1.1" pointer-events="none"/><ellipse cx="429" cy="110" rx="44" ry="44" fill="#99ffcc" stroke="rgb(240, 240, 240)" stroke-width="1.1" pointer-events="none"/><ellipse cx="429" cy="110" rx="41.25" ry="41.25" fill="none" stroke="rgb(240, 240, 240)" stroke-width="1.1" pointer-events="none"/><ellipse cx="132" cy="44" rx="44" ry="44" fill="#ffb366" stroke="rgb(240, 240, 240)" stroke-width="1.1" pointer-events="none"/><ellipse cx="132" cy="44" rx="41.25" ry="41.25" fill="none" stroke="rgb(240, 240, 240)" stroke-width="1.1" pointer-events="none"/><ellipse cx="616" cy="253" rx="44" ry="44" fill="#ffa1ec" stroke="rgb(240, 240, 240)" stroke-width="1.1" pointer-events="none"/><ellipse cx="616" cy="253" rx="41.25" ry="41.25" fill="none" stroke="rgb(240, 240, 240)" stroke-width="1.1" pointer-events="none"/><ellipse cx="44" cy="341" rx="44" ry="44" fill="#b266ff" stroke="rgb(240, 240, 240)" stroke-width="1.1" pointer-events="none"/><ellipse cx="44" cy="341" rx="41.25" ry="41.25" fill="none" stroke="rgb(240, 240, 240)" stroke-width="1.1" pointer-events="none"/><ellipse cx="363" cy="319" rx="44" ry="44" fill="#ff6666" stroke="rgb(240, 240, 240)" stroke-width="1.1" pointer-events="none"/><ellipse cx="363" cy="319" rx="41.25" ry="41.25" fill="none" stroke="rgb(240, 240, 240)" stroke-width="1.1" pointer-events="none"/><path d="M 474.72 129.85 L 584.72 217.85 M 581.28 222.15 L 471.28 134.15 M 581.28 222.15" fill="none" stroke="#999999" stroke-width="2.2" stroke-miterlimit="10" pointer-events="none"/><path d="M 155.61 82.47 L 178.93 145.57 M 173.77 147.47 L 150.45 84.38 M 173.77 147.47" fill="none" stroke="#999999" stroke-width="2.2" stroke-miterlimit="10" pointer-events="none"/><path d="M 385.75 123.64 L 238.71 165.62 M 237.2 160.33 L 384.25 118.36 M 237.2 160.33" fill="none" stroke="#999999" stroke-width="2.2" stroke-miterlimit="10" pointer-events="none"/><path d="M 328.35 288.2 L 284.32 255.18 L 235.11 216.44 M 238.51 212.12 L 287.68 250.82 L 331.65 283.8 M 238.51 212.12" fill="none" stroke="#999999" stroke-width="2.2" stroke-miterlimit="1.42" pointer-events="none"/><path d="M 75.06 306.06 L 163.06 218.06 M 166.94 221.94 L 78.94 309.94 M 166.94 221.94" fill="none" stroke="#999999" stroke-width="2.2" stroke-miterlimit="10" pointer-events="none"/><path d="M 415.27 152.66 L 379.01 275.95 M 373.74 274.4 L 409.99 151.11 M 373.74 274.4" fill="none" stroke="#999999" stroke-width="2.2" stroke-miterlimit="10" pointer-events="none"/><path d="M 112.66 88.7 L 57.66 297.7 M 52.34 296.3 L 107.34 87.3 M 52.34 296.3" fill="none" stroke="#999999" stroke-width="2.2" stroke-miterlimit="10" pointer-events="none"/></g></svg>