<?xml version="1.0" encoding="UTF-8"?>
<!DOCTYPE svg PUBLIC "-//W3C//DTD SVG 1.1//EN" "http://www.w3.org/Graphics/SVG/1.1/DTD/svg11.dtd">
<svg xmlns="http://www.w3.org/2000/svg" xmlns:xlink="http://www.w3.org/1999/xlink" version="1.1" width="992px" height="552px" viewBox="-0.5 -0.5 992 552"><defs/><g><ellipse cx="484" cy="242" rx="44" ry="44" fill="#99ccff" stroke="rgb(240, 240, 240)" stroke-width="1.1" pointer-events="none"/><ellipse cx="484" cy="242" rx="41.25" ry="41.25" fill="none" stroke="rgb(240, 240, 240)" stroke-width="1.1" pointer-events="none"/><ellipse cx="44" cy="242" rx="44" ry="44" fill="#99ffcc" stroke="rgb(240, 240, 240)" stroke-width="1.1" pointer-events="none"/><ellipse cx="44" cy="242" rx="41.25" ry="41.25" fill="none" stroke="rgb(240, 240, 240)" stroke-width="1.1" pointer-events="none"/><ellipse cx="946" cy="176" rx="44" ry="44" fill="#ffb366" stroke="rgb(240, 240, 240)" stroke-width="1.1" pointer-events="none"/><ellipse cx="946" cy="176" rx="41.25" ry="41.25" fill="none" stroke="rgb(240, 240, 240)" stroke-width="1.1" pointer-events="none"/><ellipse cx="473" cy="99" rx="44" ry="44" fill="#ffa1ec" stroke="rgb(240, 240, 240)" stroke-width="1.1" pointer-events="none"/><ellipse cx="473" cy="99" rx="41.25" ry="41.25" fill="none" stroke="rgb(240, 240, 240)" stroke-width="1.1" pointer-events="none"/><ellipse cx="946" cy="275" rx="44" ry="44" fill="#b266ff" stroke="rgb(240, 240, 240)" stroke-width="1.1" pointer-events="none"/><ellipse cx="946" cy="275" rx="41.25" ry="41.25" fill="none" stroke="rgb(240, 240, 240)" stroke-width="1.1" pointer-events="none"/><ellipse cx="473" cy="385" rx="44" ry="44" fill="#ff6666" stroke="rgb(240, 240, 240)" stroke-width="1.1" pointer-events="none"/><ellipse cx="473" cy="385" rx="41.25" ry="41.25" fill="none" stroke="rgb(240, 240, 240)" stroke-width="1.1" pointer-events="none"/><path d="M 154 242 L 99.11 242" fill="none" stroke="#999999" stroke-width="3.3" stroke-miterlimit="10" pointer-events="none"/><path d="M 91.69 242 L 101.59 237.05 L 99.11 242 L 101.59 246.95 Z" fill="#999999" stroke="#999999" stroke-width="3.3" stroke-miterlimit="10" pointer-events="none"/><rect x="154" y="176" width="132" height="132" fill="#545454" stroke="#c2c2c2" stroke-width="1.1" pointer-events="none"/><path d="M 429 352 L 306.6 280.6" fill="none" stroke="#999999" stroke-width="3.3" stroke-miterlimit="10" stroke-dasharray="3.3000000000000003 3.3000000000000003" pointer-events="none"/><path d="M 300.19 276.86 L 311.23 277.57 L 306.6 280.6 L 306.24 286.12 Z" fill="#999999" stroke="#999999" stroke-width="3.3" stroke-miterlimit="10" pointer-events="none"/><path d="M 429 132 L 306.6 203.4" fill="none" stroke="#999999" stroke-width="3.3" stroke-miterlimit="10" stroke-dasharray="3.3000000000000003 3.3000000000000003" pointer-events="none"/><path d="M 300.19 207.14 L 306.24 197.88 L 306.6 203.4 L 311.23 206.43 Z" fill="#999999" stroke="#999999" stroke-width="3.3" stroke-miterlimit="10" pointer-events="none"/><path d="M 440 242 L 308.11 242" fill="none" stroke="#999999" stroke-width="3.3" stroke-miterlimit="10" stroke-dasharray="3.3000000000000003 3.3000000000000003" pointer-events="none"/><path d="M 300.69 242 L 310.59 237.05 L 308.11 242 L 310.59 246.95 Z" fill="#999999" stroke="#999999" stroke-width="3.3" stroke-miterlimit="10" pointer-events="none"/><ellipse cx="902" cy="451" rx="44" ry="44" fill="#99ccff" stroke="rgb(240, 240, 240)" stroke-width="1.1" pointer-events="none"/><ellipse cx="902" cy="451" rx="41.25" ry="41.25" fill="none" stroke="rgb(240, 240, 240)" stroke-width="1.1" pointer-events="none"/><path d="M 847 440 L 659.85 398.41" fill="none" stroke="#999999" stroke-width="3.3" stroke-miterlimit="10" stroke-dasharray="3.3000000000000003 3.3000000000000003" pointer-events="none"/><path d="M 652.6 396.8 L 663.34 394.12 L 659.85 398.41 L 661.19 403.78 Z" fill="#999999" stroke="#999999" stroke-width="3.3" stroke-miterlimit="10" pointer-events="none"/><ellipse cx="847" cy="132" rx="44" ry="44" fill="#ff6666" stroke="rgb(240, 240, 240)" stroke-width="1.1" pointer-events="none"/><ellipse cx="847" cy="132" rx="41.25" ry="41.25" fill="none" stroke="rgb(240, 240, 240)" stroke-width="1.1" pointer-events="none"/><ellipse cx="847" cy="319" rx="44" ry="44" fill="#99ffcc" stroke="rgb(240, 240, 240)" stroke-width="1.1" pointer-events="none"/><ellipse cx="847" cy="319" rx="41.25" ry="41.25" fill="none" stroke="rgb(240, 240, 240)" stroke-width="1.1" pointer-events="none"/><rect x="550" y="352" width="88" height="88" fill="#545454" stroke="#c2c2c2" stroke-width="1.1" pointer-events="none"/><rect x="561" y="198" width="88" height="88" fill="#545454" stroke="#c2c2c2" stroke-width="1.1" pointer-events="none"/><path d="M 803 297 L 670.83 266.5" fill="none" stroke="#999999" stroke-width="3.3" stroke-miterlimit="10" stroke-dasharray="3.3000000000000003 3.3000000000000003" pointer-events="none"/><path d="M 663.59 264.83 L 674.35 262.23 L 670.83 266.5 L 672.13 271.88 Z" fill="#999999" stroke="#999999" stroke-width="3.3" stroke-miterlimit="10" pointer-events="none"/><path d="M 891 264 L 671.1 253.53" fill="none" stroke="#999999" stroke-width="3.3" stroke-miterlimit="10" stroke-dasharray="3.3000000000000003 3.3000000000000003" pointer-events="none"/><path d="M 663.69 253.18 L 673.81 248.7 L 671.1 253.53 L 673.34 258.59 Z" fill="#999999" stroke="#999999" stroke-width="3.3" stroke-miterlimit="10" pointer-events="none"/><path d="M 891 198 L 671 229.43" fill="none" stroke="#999999" stroke-width="3.3" stroke-miterlimit="10" stroke-dasharray="3.3000000000000003 3.3000000000000003" pointer-events="none"/><path d="M 663.65 230.48 L 672.75 224.18 L 671 229.43 L 674.15 233.98 Z" fill="#999999" stroke="#999999" stroke-width="3.3" stroke-miterlimit="10" pointer-events="none"/><path d="M 803 154 L 670.09 215.34" fill="none" stroke="#999999" stroke-width="3.3" stroke-miterlimit="10" stroke-dasharray="3.3000000000000003 3.3000000000000003" pointer-events="none"/><path d="M 663.35 218.45 L 670.26 209.81 L 670.09 215.34 L 674.41 218.8 Z" fill="#999999" stroke="#999999" stroke-width="3.3" stroke-miterlimit="10" pointer-events="none"/><path d="M 550 396 L 527.54 388.51" fill="none" stroke="#999999" stroke-width="3.3" stroke-miterlimit="10" pointer-events="none"/><path d="M 520.5 386.17 L 531.46 384.6 L 527.54 388.51 L 528.33 393.99 Z" fill="#999999" stroke="#999999" stroke-width="3.3" stroke-miterlimit="10" pointer-events="none"/><path d="M 561 242 L 539.11 242" fill="none" stroke="#999999" stroke-width="3.3" stroke-miterlimit="10" pointer-events="none"/><path d="M 531.69 242 L 541.59 237.05 L 539.11 242 L 541.59 246.95 Z" fill="#999999" stroke="#999999" stroke-width="3.3" stroke-miterlimit="10" pointer-events="none"/><rect x="550" y="44" width="88" height="88" fill="#545454" stroke="#c2c2c2" stroke-width="1.1" pointer-events="none"/><path d="M 550 88 L 529.28 91.45" fill="none" stroke="#999999" stroke-width="3.3" stroke-miterlimit="10" pointer-events="none"/><path d="M 521.96 92.67 L 530.91 86.16 L 529.28 91.45 L 532.54 95.93 Z" fill="#999999" stroke="#999999" stroke-width="3.3" stroke-miterlimit="10" pointer-events="none"/><ellipse cx="759" cy="44" rx="44" ry="44" fill="#99ffcc" stroke="rgb(240, 240, 240)" stroke-width="1.1" pointer-events="none"/><ellipse cx="759" cy="44" rx="41.25" ry="41.25" fill="none" stroke="rgb(240, 240, 240)" stroke-width="1.1" pointer-events="none"/><path d="M 704 55 L 659.9 63.82" fill="none" stroke="#999999" stroke-width="3.3" stroke-miterlimit="10" stroke-dasharray="3.3000000000000003 3.3000000000000003" pointer-events="none"/><path d="M 652.62 65.28 L 661.35 58.48 L 659.9 63.82 L 663.3 68.19 Z" fill="#999999" stroke="#999999" stroke-width="3.3" stroke-miterlimit="10" pointer-events="none"/><ellipse cx="781" cy="506" rx="44" ry="44" fill="#99ffcc" stroke="rgb(240, 240, 240)" stroke-width="1.1" pointer-events="none"/><ellipse cx="781" cy="506" rx="41.25" ry="41.25" fill="none" stroke="rgb(240, 240, 240)" stroke-width="1.1" pointer-events="none"/><path d="M 737 484 L 657.89 424.67" fill="none" stroke="#999999" stroke-width="3.3" stroke-miterlimit="10" stroke-dasharray="3.3000000000000003 3.3000000000000003" pointer-events="none"/><path d="M 651.95 420.21 L 662.84 422.19 L 657.89 424.67 L 656.9 430.11 Z" fill="#999999" stroke="#999999" stroke-width="3.3" stroke-miterlimit="10" pointer-events="none"/></g></svg>