<?xml version="1.0" encoding="UTF-8"?>
<!DOCTYPE svg PUBLIC "-//W3C//DTD SVG 1.1//EN" "http://www.w3.org/Graphics/SVG/1.1/DTD/svg11.dtd">
<svg xmlns="http://www.w3.org/2000/svg" xmlns:xlink="http://www.w3.org/1999/xlink" version="1.1" width="1003px" height="530px" viewBox="-0.5 -0.5 1003 530"><defs/><g><ellipse cx="495" cy="165" rx="44" ry="44" fill="#99ccff" stroke="rgb(240, 240, 240)" stroke-width="1.1" pointer-events="none"/><ellipse cx="495" cy="165" rx="41.25" ry="41.25" fill="none" stroke="rgb(240, 240, 240)" stroke-width="1.1" pointer-events="none"/><ellipse cx="495" cy="330" rx="44" ry="44" fill="#99ffcc" stroke="rgb(240, 240, 240)" stroke-width="1.1" pointer-events="none"/><ellipse cx="495" cy="330" rx="41.25" ry="41.25" fill="none" stroke="rgb(240, 240, 240)" stroke-width="1.1" pointer-events="none"/><ellipse cx="957" cy="88" rx="44" ry="44" fill="#ffb366" stroke="rgb(240, 240, 240)" stroke-width="1.1" pointer-events="none"/><ellipse cx="957" cy="88" rx="41.25" ry="41.25" fill="none" stroke="rgb(240, 240, 240)" stroke-width="1.1" pointer-events="none"/><ellipse cx="792" cy="484" rx="44" ry="44" fill="#ffa1ec" stroke="rgb(240, 240, 240)" stroke-width="1.1" pointer-events="none"/><ellipse cx="792" cy="484" rx="41.25" ry="41.25" fill="none" stroke="rgb(240, 240, 240)" stroke-width="1.1" pointer-events="none"/><ellipse cx="957" cy="187" rx="44" ry="44" fill="#b266ff" stroke="rgb(240, 240, 240)" stroke-width="1.1" pointer-events="none"/><ellipse cx="957" cy="187" rx="41.25" ry="41.25" fill="none" stroke="rgb(240, 240, 240)" stroke-width="1.1" pointer-events="none"/><ellipse cx="44" cy="231" rx="44" ry="44" fill="#ff6666" stroke="rgb(240, 240, 240)" stroke-width="1.1" pointer-events="none"/><ellipse cx="44" cy="231" rx="41.25" ry="41.25" fill="none" stroke="rgb(240, 240, 240)" stroke-width="1.1" pointer-events="none"/><path d="M 165 231 L 110.11 231" fill="none" stroke="#999999" stroke-width="3.3" stroke-miterlimit="10" pointer-events="none"/><path d="M 102.69 231 L 112.59 226.05 L 110.11 231 L 112.59 235.95 Z" fill="#999999" stroke="#999999" stroke-width="3.3" stroke-miterlimit="10" pointer-events="none"/><rect x="165" y="165" width="132" height="132" fill="#545454" stroke="#c2c2c2" stroke-width="1.1" pointer-events="none"/><path d="M 440 308 L 318.54 267.51" fill="none" stroke="#999999" stroke-width="3.3" stroke-miterlimit="10" stroke-dasharray="3.3000000000000003 3.3000000000000003" pointer-events="none"/><path d="M 311.5 265.17 L 322.46 263.6 L 318.54 267.51 L 319.33 272.99 Z" fill="#999999" stroke="#999999" stroke-width="3.3" stroke-miterlimit="10" pointer-events="none"/><path d="M 440 176 L 318.78 206.3" fill="none" stroke="#999999" stroke-width="3.3" stroke-miterlimit="10" stroke-dasharray="3.3000000000000003 3.3000000000000003" pointer-events="none"/><path d="M 311.58 208.11 L 319.98 200.9 L 318.78 206.3 L 322.38 210.51 Z" fill="#999999" stroke="#999999" stroke-width="3.3" stroke-miterlimit="10" pointer-events="none"/><ellipse cx="902" cy="440" rx="44" ry="44" fill="#99ccff" stroke="rgb(240, 240, 240)" stroke-width="1.1" pointer-events="none"/><ellipse cx="902" cy="440" rx="41.25" ry="41.25" fill="none" stroke="rgb(240, 240, 240)" stroke-width="1.1" pointer-events="none"/><path d="M 847 429 L 681.41 366.9" fill="none" stroke="#999999" stroke-width="3.3" stroke-miterlimit="10" stroke-dasharray="3.3000000000000003 3.3000000000000003" pointer-events="none"/><path d="M 674.45 364.3 L 685.46 363.14 L 681.41 366.9 L 681.99 372.41 Z" fill="#999999" stroke="#999999" stroke-width="3.3" stroke-miterlimit="10" pointer-events="none"/><ellipse cx="858" cy="44" rx="44" ry="44" fill="#ff6666" stroke="rgb(240, 240, 240)" stroke-width="1.1" pointer-events="none"/><ellipse cx="858" cy="44" rx="41.25" ry="41.25" fill="none" stroke="rgb(240, 240, 240)" stroke-width="1.1" pointer-events="none"/><ellipse cx="858" cy="231" rx="44" ry="44" fill="#99ffcc" stroke="rgb(240, 240, 240)" stroke-width="1.1" pointer-events="none"/><ellipse cx="858" cy="231" rx="41.25" ry="41.25" fill="none" stroke="rgb(240, 240, 240)" stroke-width="1.1" pointer-events="none"/><rect x="572" y="319" width="88" height="88" fill="#545454" stroke="#c2c2c2" stroke-width="1.1" pointer-events="none"/><rect x="572" y="110" width="88" height="88" fill="#545454" stroke="#c2c2c2" stroke-width="1.1" pointer-events="none"/><path d="M 814 209 L 681.83 178.5" fill="none" stroke="#999999" stroke-width="3.3" stroke-miterlimit="10" stroke-dasharray="3.3000000000000003 3.3000000000000003" pointer-events="none"/><path d="M 674.59 176.83 L 685.35 174.23 L 681.83 178.5 L 683.13 183.88 Z" fill="#999999" stroke="#999999" stroke-width="3.3" stroke-miterlimit="10" pointer-events="none"/><path d="M 902 176 L 682.1 165.53" fill="none" stroke="#999999" stroke-width="3.3" stroke-miterlimit="10" stroke-dasharray="3.3000000000000003 3.3000000000000003" pointer-events="none"/><path d="M 674.69 165.18 L 684.81 160.7 L 682.1 165.53 L 684.34 170.59 Z" fill="#999999" stroke="#999999" stroke-width="3.3" stroke-miterlimit="10" pointer-events="none"/><path d="M 902 110 L 682 141.43" fill="none" stroke="#999999" stroke-width="3.3" stroke-miterlimit="10" stroke-dasharray="3.3000000000000003 3.3000000000000003" pointer-events="none"/><path d="M 674.65 142.48 L 683.75 136.18 L 682 141.43 L 685.15 145.98 Z" fill="#999999" stroke="#999999" stroke-width="3.3" stroke-miterlimit="10" pointer-events="none"/><path d="M 814 66 L 681.09 127.34" fill="none" stroke="#999999" stroke-width="3.3" stroke-miterlimit="10" stroke-dasharray="3.3000000000000003 3.3000000000000003" pointer-events="none"/><path d="M 674.35 130.45 L 681.26 121.81 L 681.09 127.34 L 685.41 130.8 Z" fill="#999999" stroke="#999999" stroke-width="3.3" stroke-miterlimit="10" pointer-events="none"/><path d="M 572 363 L 549.54 355.51" fill="none" stroke="#999999" stroke-width="3.3" stroke-miterlimit="10" pointer-events="none"/><path d="M 542.5 353.17 L 553.46 351.6 L 549.54 355.51 L 550.33 360.99 Z" fill="#999999" stroke="#999999" stroke-width="3.3" stroke-miterlimit="10" pointer-events="none"/><path d="M 572 154 L 549.54 161.49" fill="none" stroke="#999999" stroke-width="3.3" stroke-miterlimit="10" pointer-events="none"/><path d="M 542.5 163.83 L 550.33 156.01 L 549.54 161.49 L 553.46 165.4 Z" fill="#999999" stroke="#999999" stroke-width="3.3" stroke-miterlimit="10" pointer-events="none"/><path d="M 759 451 L 679.89 391.67" fill="none" stroke="#999999" stroke-width="3.3" stroke-miterlimit="10" stroke-dasharray="3.3000000000000003 3.3000000000000003" pointer-events="none"/><path d="M 673.95 387.21 L 684.84 389.19 L 679.89 391.67 L 678.9 397.11 Z" fill="#999999" stroke="#999999" stroke-width="3.3" stroke-miterlimit="10" pointer-events="none"/><ellipse cx="836" cy="341" rx="44" ry="44" fill="#ff6666" stroke="rgb(240, 240, 240)" stroke-width="1.1" pointer-events="none"/><ellipse cx="836" cy="341" rx="41.25" ry="41.25" fill="none" stroke="rgb(240, 240, 240)" stroke-width="1.1" pointer-events="none"/><path d="M 781 341 L 682.06 350.89" fill="none" stroke="#999999" stroke-width="3.3" stroke-miterlimit="10" stroke-dasharray="3.3000000000000003 3.3000000000000003" pointer-events="none"/><path d="M 674.67 351.63 L 684.03 345.72 L 682.06 350.89 L 685.01 355.57 Z" fill="#999999" stroke="#999999" stroke-width="3.3" stroke-miterlimit="10" pointer-events="none"/></g></svg>