<?xml version="1.0" encoding="UTF-8"?>
<!DOCTYPE svg PUBLIC "-//W3C//DTD SVG 1.1//EN" "http://www.w3.org/Graphics/SVG/1.1/DTD/svg11.dtd">
<svg xmlns="http://www.w3.org/2000/svg" xmlns:xlink="http://www.w3.org/1999/xlink" version="1.1" width="475px" height="387px" viewBox="-0.5 -0.5 475 387"><defs/><g><ellipse cx="198" cy="187" rx="44" ry="44" fill="#99ccff" stroke="rgb(240, 240, 240)" stroke-width="1.1" pointer-events="none"/><ellipse cx="198" cy="187" rx="41.25" ry="41.25" fill="none" stroke="rgb(240, 240, 240)" stroke-width="1.1" pointer-events="none"/><ellipse cx="429" cy="110" rx="44" ry="44" fill="#99ffcc" stroke="rgb(240, 240, 240)" stroke-width="1.1" pointer-events="none"/><ellipse cx="429" cy="110" rx="41.25" ry="41.25" fill="none" stroke="rgb(240, 240, 240)" stroke-width="1.1" pointer-events="none"/><ellipse cx="132" cy="44" rx="44" ry="44" fill="#ffb366" stroke="rgb(240, 240, 240)" stroke-width="1.1" pointer-events="none"/><ellipse cx="132" cy="44" rx="41.25" ry="41.25" fill="none" stroke="rgb(240, 240, 240)" stroke-width="1.1" pointer-events="none"/><ellipse cx="44" cy="341" rx="44" ry="44" fill="#b266ff" stroke="rgb(240, 240, 240)" stroke-width="1.1" pointer-events="none"/><ellipse cx="44" cy="341" rx="41.25" ry="41.25" fill="none" stroke="rgb(240, 240, 240)" stroke-width="1.1" pointer-events="none"/><ellipse cx="363" cy="319" rx="44" ry="44" fill="#ff6666" stroke="rgb(240, 240, 240)" stroke-width="1.1" pointer-events="none"/><ellipse cx="363" cy="319" rx="41.25" ry="41.25" fill="none" stroke="rgb(240, 240, 240)" stroke-width="1.1" pointer-events="none"/><path d="M 153.03 83.42 L 173.21 138.02" fill="none" stroke="#999999" stroke-width="2.2" stroke-miterlimit="10" pointer-events="none"/><path d="M 175.5 144.21 L 168.32 137.48 L 173.21 138.02 L 176.58 134.43 Z" fill="#999999" stroke="#999999" stroke-width="2.2" stroke-miterlimit="10" pointer-events="none"/><path d="M 385 121 L 246.66 160.49" fill="none" stroke="#999999" stroke-width="2.2" stroke-miterlimit="10" pointer-events="none"/><path d="M 240.32 162.3 L 247.57 155.65 L 246.66 160.49 L 249.99 164.12 Z" fill="#999999" stroke="#999999" stroke-width="2.2" stroke-miterlimit="10" pointer-events="none"/><path d="M 330 286 L 286 253 L 243.93 219.88" fill="none" stroke="#999999" stroke-width="2.2" stroke-miterlimit="10" pointer-events="none"/><path d="M 238.74 215.8 L 248.38 217.79 L 243.93 219.88 L 242.93 224.7 Z" fill="#999999" stroke="#999999" stroke-width="2.2" stroke-miterlimit="10" pointer-events="none"/><path d="M 77 308 L 158.59 226.41" fill="none" stroke="#999999" stroke-width="2.2" stroke-miterlimit="10" pointer-events="none"/><path d="M 163.26 221.74 L 160.15 231.07 L 158.59 226.41 L 153.93 224.85 Z" fill="#999999" stroke="#999999" stroke-width="2.2" stroke-miterlimit="10" pointer-events="none"/></g></svg>